<mxfile host="Electron" modified="2024-07-20T23:00:10.165Z" agent="Mozilla/5.0 (Windows NT 10.0; Win64; x64) AppleWebKit/537.36 (KHTML, like Gecko) draw.io/24.4.8 Chrome/124.0.6367.207 Electron/30.0.6 Safari/537.36" etag="15HyMhuUpFfYhIYYs9GL" version="24.4.8" type="device">
  <diagram name="Page-1" id="KZN-zyBD-0XipZeYQRDT">
    <mxGraphModel dx="277" dy="160" grid="1" gridSize="10" guides="1" tooltips="1" connect="1" arrows="1" fold="1" page="1" pageScale="1" pageWidth="500" pageHeight="200" math="0" shadow="0">
      <root>
        <mxCell id="0" />
        <mxCell id="1" parent="0" />
        <mxCell id="qDtawQAKe1lcSOI-oKHI-362" value="" style="group" parent="1" vertex="1" connectable="0">
          <mxGeometry x="9" y="78" width="482.6" height="44.45" as="geometry" />
        </mxCell>
        <mxCell id="PZP4gdgeWaH-fIwLRfgN-368" value="" style="rounded=0;whiteSpace=wrap;html=1;fillColor=#C5C5C5;strokeColor=#B5B5B5;glass=0;aspect=fixed;container=0;" parent="qDtawQAKe1lcSOI-oKHI-362" vertex="1">
          <mxGeometry width="482.6" height="44.45" as="geometry" />
        </mxCell>
        <mxCell id="PZP4gdgeWaH-fIwLRfgN-369" value="" style="rounded=0;whiteSpace=wrap;html=1;fillColor=#C5C5C5;strokeColor=#B5B5B5;glass=0;aspect=fixed;container=0;" parent="qDtawQAKe1lcSOI-oKHI-362" vertex="1">
          <mxGeometry x="18" width="446.6" height="44.45" as="geometry" />
        </mxCell>
        <mxCell id="8-Y4Epgb5bJB_0jupaL6-1" value="" style="group;strokeColor=#222222;rounded=1;arcSize=50;container=0;" parent="qDtawQAKe1lcSOI-oKHI-362" vertex="1" connectable="0">
          <mxGeometry x="468.6" y="3" width="10" height="6" as="geometry" />
        </mxCell>
        <mxCell id="8-Y4Epgb5bJB_0jupaL6-2" value="" style="group;rounded=1;strokeColor=#222222;arcSize=50;container=0;" parent="qDtawQAKe1lcSOI-oKHI-362" vertex="1" connectable="0">
          <mxGeometry x="468.6" y="35.45" width="10" height="6" as="geometry" />
        </mxCell>
        <mxCell id="8-Y4Epgb5bJB_0jupaL6-3" value="" style="group;rounded=1;strokeColor=#222222;arcSize=50;container=0;" parent="qDtawQAKe1lcSOI-oKHI-362" vertex="1" connectable="0">
          <mxGeometry x="4" y="3" width="10" height="6" as="geometry" />
        </mxCell>
        <mxCell id="8-Y4Epgb5bJB_0jupaL6-4" value="" style="group;strokeColor=#222222;rounded=1;arcSize=50;container=0;" parent="qDtawQAKe1lcSOI-oKHI-362" vertex="1" connectable="0">
          <mxGeometry x="4" y="35.45" width="10" height="6" as="geometry" />
        </mxCell>
        <mxCell id="dPUykWXNvH8D_2w4ptwh-304" value="52" style="text;html=1;align=center;verticalAlign=middle;whiteSpace=wrap;rounded=0;fontSize=3;container=0;fontColor=#000000;" parent="qDtawQAKe1lcSOI-oKHI-362" vertex="1">
          <mxGeometry x="428.8" y="36.22999999999999" width="12" height="5" as="geometry" />
        </mxCell>
        <mxCell id="dPUykWXNvH8D_2w4ptwh-305" value="51" style="text;html=1;align=center;verticalAlign=middle;whiteSpace=wrap;rounded=0;fontSize=3;container=0;fontColor=#000000;" parent="qDtawQAKe1lcSOI-oKHI-362" vertex="1">
          <mxGeometry x="428.8" y="3.2299999999999898" width="12" height="5" as="geometry" />
        </mxCell>
        <mxCell id="dPUykWXNvH8D_2w4ptwh-325" value="" style="ellipse;whiteSpace=wrap;html=1;aspect=fixed;fillColor=#000000;strokeWidth=0.1;strokeColor=#222222;container=0;" parent="qDtawQAKe1lcSOI-oKHI-362" vertex="1">
          <mxGeometry x="448.5" y="39" width="2" height="2" as="geometry" />
        </mxCell>
        <mxCell id="dPUykWXNvH8D_2w4ptwh-328" value="RESET" style="text;html=1;align=left;verticalAlign=middle;whiteSpace=wrap;rounded=0;fontSize=2;container=0;fontColor=#000000;" parent="qDtawQAKe1lcSOI-oKHI-362" vertex="1">
          <mxGeometry x="450.5" y="39" width="10" height="2" as="geometry" />
        </mxCell>
        <mxCell id="PZP4gdgeWaH-fIwLRfgN-395" value="" style="rounded=0;whiteSpace=wrap;html=1;fillColor=#000000;fontColor=#ffffff;strokeColor=none;container=0;" parent="qDtawQAKe1lcSOI-oKHI-362" vertex="1">
          <mxGeometry x="471.6" y="3" width="4" height="6" as="geometry" />
        </mxCell>
        <mxCell id="PZP4gdgeWaH-fIwLRfgN-396" value="" style="ellipse;whiteSpace=wrap;html=1;aspect=fixed;strokeColor=none;fillColor=#000000;container=0;" parent="qDtawQAKe1lcSOI-oKHI-362" vertex="1">
          <mxGeometry x="472.6" y="3" width="6" height="6" as="geometry" />
        </mxCell>
        <mxCell id="PZP4gdgeWaH-fIwLRfgN-397" value="" style="ellipse;whiteSpace=wrap;html=1;aspect=fixed;strokeColor=none;fillColor=#000000;container=0;" parent="qDtawQAKe1lcSOI-oKHI-362" vertex="1">
          <mxGeometry x="468.6" y="3" width="6" height="6" as="geometry" />
        </mxCell>
        <mxCell id="PZP4gdgeWaH-fIwLRfgN-391" value="" style="rounded=0;whiteSpace=wrap;html=1;fillColor=#000000;fontColor=#ffffff;strokeColor=none;container=0;" parent="qDtawQAKe1lcSOI-oKHI-362" vertex="1">
          <mxGeometry x="471.6" y="35.45" width="4" height="6" as="geometry" />
        </mxCell>
        <mxCell id="PZP4gdgeWaH-fIwLRfgN-392" value="" style="ellipse;whiteSpace=wrap;html=1;aspect=fixed;strokeColor=none;fillColor=#000000;container=0;" parent="qDtawQAKe1lcSOI-oKHI-362" vertex="1">
          <mxGeometry x="472.6" y="35.45" width="6" height="6" as="geometry" />
        </mxCell>
        <mxCell id="PZP4gdgeWaH-fIwLRfgN-393" value="" style="ellipse;whiteSpace=wrap;html=1;aspect=fixed;strokeColor=none;fillColor=#000000;container=0;" parent="qDtawQAKe1lcSOI-oKHI-362" vertex="1">
          <mxGeometry x="468.6" y="35.45" width="6" height="6" as="geometry" />
        </mxCell>
        <mxCell id="PZP4gdgeWaH-fIwLRfgN-385" value="" style="rounded=0;whiteSpace=wrap;html=1;fillColor=#000000;fontColor=#ffffff;strokeColor=none;container=0;" parent="qDtawQAKe1lcSOI-oKHI-362" vertex="1">
          <mxGeometry x="7" y="3" width="4" height="6" as="geometry" />
        </mxCell>
        <mxCell id="PZP4gdgeWaH-fIwLRfgN-386" value="" style="ellipse;whiteSpace=wrap;html=1;aspect=fixed;strokeColor=none;fillColor=#000000;container=0;" parent="qDtawQAKe1lcSOI-oKHI-362" vertex="1">
          <mxGeometry x="8" y="3" width="6" height="6" as="geometry" />
        </mxCell>
        <mxCell id="PZP4gdgeWaH-fIwLRfgN-387" value="" style="ellipse;whiteSpace=wrap;html=1;aspect=fixed;strokeColor=none;fillColor=#000000;container=0;" parent="qDtawQAKe1lcSOI-oKHI-362" vertex="1">
          <mxGeometry x="4" y="3" width="6" height="6" as="geometry" />
        </mxCell>
        <mxCell id="PZP4gdgeWaH-fIwLRfgN-376" value="" style="rounded=0;whiteSpace=wrap;html=1;fillColor=#000000;fontColor=#ffffff;strokeColor=none;container=0;" parent="qDtawQAKe1lcSOI-oKHI-362" vertex="1">
          <mxGeometry x="7" y="35.45" width="4" height="6" as="geometry" />
        </mxCell>
        <mxCell id="PZP4gdgeWaH-fIwLRfgN-381" value="" style="ellipse;whiteSpace=wrap;html=1;aspect=fixed;strokeColor=none;fillColor=#000000;container=0;" parent="qDtawQAKe1lcSOI-oKHI-362" vertex="1">
          <mxGeometry x="8" y="35.45" width="6" height="6" as="geometry" />
        </mxCell>
        <mxCell id="PZP4gdgeWaH-fIwLRfgN-382" value="" style="ellipse;whiteSpace=wrap;html=1;aspect=fixed;strokeColor=none;fillColor=#000000;container=0;" parent="qDtawQAKe1lcSOI-oKHI-362" vertex="1">
          <mxGeometry x="4" y="35.45" width="6" height="6" as="geometry" />
        </mxCell>
        <mxCell id="dPUykWXNvH8D_2w4ptwh-297" value="" style="rounded=0;whiteSpace=wrap;html=1;strokeColor=#000000;fillColor=#BFBFBF;fontColor=#ffffff;strokeWidth=0.1;container=0;align=center;verticalAlign=middle;fontFamily=Teko Light;fontSize=3;" parent="qDtawQAKe1lcSOI-oKHI-362" vertex="1">
          <mxGeometry x="427.3" y="8.22999999999999" width="15" height="28" as="geometry" />
        </mxCell>
        <mxCell id="dPUykWXNvH8D_2w4ptwh-299" value="" style="rounded=0;whiteSpace=wrap;html=1;strokeColor=#AAAAAA;fillColor=#000000;fontColor=#ffffff;strokeWidth=0.1;container=0;" parent="qDtawQAKe1lcSOI-oKHI-362" vertex="1">
          <mxGeometry x="427.8" y="25.72999999999999" width="14" height="10" as="geometry" />
        </mxCell>
        <mxCell id="dPUykWXNvH8D_2w4ptwh-300" value="" style="rounded=0;whiteSpace=wrap;html=1;strokeColor=#AAAAAA;fillColor=#000000;fontColor=#ffffff;strokeWidth=0.1;container=0;" parent="qDtawQAKe1lcSOI-oKHI-362" vertex="1">
          <mxGeometry x="427.8" y="8.72999999999999" width="14" height="10" as="geometry" />
        </mxCell>
        <mxCell id="dPUykWXNvH8D_2w4ptwh-301" value="" style="rounded=0;whiteSpace=wrap;html=1;strokeColor=#111111;fillColor=#BFBFBF;fontColor=#ffffff;strokeWidth=0.1;container=0;" parent="qDtawQAKe1lcSOI-oKHI-362" vertex="1">
          <mxGeometry x="432.3" y="25.22999999999999" width="5" height="1.2" as="geometry" />
        </mxCell>
        <mxCell id="dPUykWXNvH8D_2w4ptwh-302" value="" style="rounded=0;whiteSpace=wrap;html=1;strokeColor=#111111;fillColor=#BFBFBF;fontColor=#ffffff;strokeWidth=0.1;container=0;" parent="qDtawQAKe1lcSOI-oKHI-362" vertex="1">
          <mxGeometry x="432.3" y="18.029999999999987" width="5" height="1.2" as="geometry" />
        </mxCell>
        <mxCell id="dPUykWXNvH8D_2w4ptwh-272" value="" style="triangle;whiteSpace=wrap;html=1;fillColor=#60a917;fontColor=#ffffff;strokeColor=none;rotation=90;container=0;" parent="qDtawQAKe1lcSOI-oKHI-362" vertex="1">
          <mxGeometry x="437.43" y="20.72999999999999" width="3" height="3.000000000000001" as="geometry" />
        </mxCell>
        <mxCell id="dPUykWXNvH8D_2w4ptwh-273" value="" style="triangle;whiteSpace=wrap;html=1;fillColor=#60a917;fontColor=#ffffff;strokeColor=none;rotation=-90;container=0;" parent="qDtawQAKe1lcSOI-oKHI-362" vertex="1">
          <mxGeometry x="428.8" y="20.72999999999999" width="3" height="3.000000000000001" as="geometry" />
        </mxCell>
        <mxCell id="J5RZUyof8dS3kiCCLcv3-2" value="" style="rounded=1;whiteSpace=wrap;html=1;fillColor=#000213;strokeColor=#000000;glass=0;container=0;arcSize=8;gradientColor=none;gradientDirection=north;strokeWidth=0.1;" parent="qDtawQAKe1lcSOI-oKHI-362" vertex="1">
          <mxGeometry x="26.22" y="8.219999999999999" width="28" height="28" as="geometry" />
        </mxCell>
        <mxCell id="YbWxmgszaFembR20GTfz-1" value="&lt;b&gt;USW&lt;/b&gt;" style="text;html=1;align=center;verticalAlign=middle;whiteSpace=wrap;rounded=0;fontSize=3;fontColor=#000000;container=0;" parent="qDtawQAKe1lcSOI-oKHI-362" vertex="1">
          <mxGeometry x="32.22000000000001" y="37.22999999999999" width="16" height="5" as="geometry" />
        </mxCell>
        <mxCell id="YbWxmgszaFembR20GTfz-4" style="edgeStyle=orthogonalEdgeStyle;rounded=0;orthogonalLoop=1;jettySize=auto;html=1;exitX=1;exitY=0.5;exitDx=0;exitDy=0;entryX=1;entryY=0.5;entryDx=0;entryDy=0;strokeWidth=0.1;endArrow=none;endFill=0;strokeColor=#C5C5C5;" parent="qDtawQAKe1lcSOI-oKHI-362" source="YbWxmgszaFembR20GTfz-2" target="J5RZUyof8dS3kiCCLcv3-2" edge="1">
          <mxGeometry relative="1" as="geometry" />
        </mxCell>
        <mxCell id="YbWxmgszaFembR20GTfz-5" style="edgeStyle=orthogonalEdgeStyle;rounded=0;orthogonalLoop=1;jettySize=auto;html=1;exitX=0.5;exitY=0;exitDx=0;exitDy=0;entryX=0.5;entryY=0;entryDx=0;entryDy=0;endArrow=none;endFill=0;strokeWidth=0.1;strokeColor=#C5C5C5;" parent="qDtawQAKe1lcSOI-oKHI-362" source="YbWxmgszaFembR20GTfz-2" target="J5RZUyof8dS3kiCCLcv3-2" edge="1">
          <mxGeometry relative="1" as="geometry" />
        </mxCell>
        <mxCell id="YbWxmgszaFembR20GTfz-6" style="edgeStyle=orthogonalEdgeStyle;rounded=0;orthogonalLoop=1;jettySize=auto;html=1;exitX=0;exitY=0.5;exitDx=0;exitDy=0;entryX=0;entryY=0.5;entryDx=0;entryDy=0;endArrow=none;endFill=0;strokeColor=#C5C5C5;strokeWidth=0.1;" parent="qDtawQAKe1lcSOI-oKHI-362" source="YbWxmgszaFembR20GTfz-2" target="J5RZUyof8dS3kiCCLcv3-2" edge="1">
          <mxGeometry relative="1" as="geometry" />
        </mxCell>
        <mxCell id="YbWxmgszaFembR20GTfz-2" value="" style="ellipse;whiteSpace=wrap;html=1;aspect=fixed;strokeColor=#c5c5c5;fillColor=none;strokeWidth=0.1;container=0;" parent="qDtawQAKe1lcSOI-oKHI-362" vertex="1">
          <mxGeometry x="35.22" y="17.22" width="10" height="10" as="geometry" />
        </mxCell>
        <mxCell id="YbWxmgszaFembR20GTfz-7" style="edgeStyle=orthogonalEdgeStyle;rounded=0;orthogonalLoop=1;jettySize=auto;html=1;exitX=0.5;exitY=1;exitDx=0;exitDy=0;entryX=0.5;entryY=1;entryDx=0;entryDy=0;endArrow=none;endFill=0;strokeWidth=0.1;strokeColor=#C5C5C5;" parent="qDtawQAKe1lcSOI-oKHI-362" source="J5RZUyof8dS3kiCCLcv3-2" target="YbWxmgszaFembR20GTfz-2" edge="1">
          <mxGeometry relative="1" as="geometry">
            <mxPoint x="50" y="27" as="sourcePoint" />
            <mxPoint x="50" y="18" as="targetPoint" />
          </mxGeometry>
        </mxCell>
        <mxCell id="YbWxmgszaFembR20GTfz-9" value="" style="ellipse;whiteSpace=wrap;html=1;aspect=fixed;strokeColor=#c5c5c5;fillColor=#c5c5c5;strokeWidth=0.1;container=0;" parent="qDtawQAKe1lcSOI-oKHI-362" vertex="1">
          <mxGeometry x="38.22" y="20.22" width="4" height="4" as="geometry" />
        </mxCell>
        <mxCell id="YbWxmgszaFembR20GTfz-10" value="" style="ellipse;whiteSpace=wrap;html=1;aspect=fixed;strokeColor=#4E95BE;fillColor=none;strokeWidth=0.1;container=0;" parent="qDtawQAKe1lcSOI-oKHI-362" vertex="1">
          <mxGeometry x="39.22" y="21.22" width="2" height="2" as="geometry" />
        </mxCell>
        <mxCell id="YbWxmgszaFembR20GTfz-12" value="" style="sketch=0;pointerEvents=1;shadow=0;dashed=0;html=1;strokeColor=none;fillColor=#c5c5c5;aspect=fixed;labelPosition=center;verticalLabelPosition=bottom;verticalAlign=top;align=center;outlineConnect=0;shape=mxgraph.vvd.ethernet_port;rotation=-180;container=0;" parent="qDtawQAKe1lcSOI-oKHI-362" vertex="1">
          <mxGeometry x="30.22" y="12.219999999999999" width="5" height="5" as="geometry" />
        </mxCell>
        <mxCell id="YbWxmgszaFembR20GTfz-16" value="" style="sketch=0;outlineConnect=0;fontColor=#232F3E;gradientColor=none;fillColor=#c5c5c5;strokeColor=none;dashed=0;verticalLabelPosition=bottom;verticalAlign=top;align=center;html=1;fontSize=12;fontStyle=0;aspect=fixed;pointerEvents=1;shape=mxgraph.aws4.gear;container=0;" parent="qDtawQAKe1lcSOI-oKHI-362" vertex="1">
          <mxGeometry x="45.22" y="27.22" width="5" height="5" as="geometry" />
        </mxCell>
        <mxCell id="YbWxmgszaFembR20GTfz-17" value="" style="html=1;verticalLabelPosition=bottom;align=center;labelBackgroundColor=#ffffff;verticalAlign=top;strokeWidth=0.2;strokeColor=#c5c5c5;shadow=0;dashed=0;shape=mxgraph.ios7.icons.info;fillColor=none;container=0;" parent="qDtawQAKe1lcSOI-oKHI-362" vertex="1">
          <mxGeometry x="30.22" y="27.22" width="5" height="5" as="geometry" />
        </mxCell>
        <mxCell id="YbWxmgszaFembR20GTfz-33" value="" style="rounded=0;whiteSpace=wrap;html=1;fillColor=#C5C5C5;strokeColor=none;container=0;" parent="qDtawQAKe1lcSOI-oKHI-362" vertex="1">
          <mxGeometry x="46.22" y="14.219999999999999" width="1" height="2" as="geometry" />
        </mxCell>
        <mxCell id="YbWxmgszaFembR20GTfz-34" value="" style="rounded=0;whiteSpace=wrap;html=1;fillColor=#C5C5C5;strokeColor=none;container=0;" parent="qDtawQAKe1lcSOI-oKHI-362" vertex="1">
          <mxGeometry x="47.72" y="12.219999999999999" width="1" height="4" as="geometry" />
        </mxCell>
        <mxCell id="YbWxmgszaFembR20GTfz-35" value="" style="rounded=0;whiteSpace=wrap;html=1;fillColor=#C5C5C5;strokeColor=none;container=0;" parent="qDtawQAKe1lcSOI-oKHI-362" vertex="1">
          <mxGeometry x="49.22" y="13.219999999999999" width="1" height="3" as="geometry" />
        </mxCell>
        <mxCell id="YbWxmgszaFembR20GTfz-38" value="" style="rounded=1;whiteSpace=wrap;html=1;strokeWidth=0.2;strokeColor=#b5b5b5;arcSize=50;fillColor=#000000;container=0;" parent="qDtawQAKe1lcSOI-oKHI-362" vertex="1">
          <mxGeometry x="72.22" y="1" width="70" height="2" as="geometry" />
        </mxCell>
        <mxCell id="YbWxmgszaFembR20GTfz-44" value="" style="rounded=1;whiteSpace=wrap;html=1;strokeWidth=0.2;strokeColor=#b5b5b5;arcSize=50;fillColor=#000000;container=0;" parent="qDtawQAKe1lcSOI-oKHI-362" vertex="1">
          <mxGeometry x="147.22" y="1" width="70" height="2" as="geometry" />
        </mxCell>
        <mxCell id="YbWxmgszaFembR20GTfz-45" value="" style="rounded=1;whiteSpace=wrap;html=1;strokeWidth=0.2;strokeColor=#b5b5b5;arcSize=50;fillColor=#000000;container=0;" parent="qDtawQAKe1lcSOI-oKHI-362" vertex="1">
          <mxGeometry x="222.22" y="1" width="70" height="2" as="geometry" />
        </mxCell>
        <mxCell id="YbWxmgszaFembR20GTfz-46" value="" style="rounded=1;whiteSpace=wrap;html=1;strokeWidth=0.2;strokeColor=#b5b5b5;arcSize=50;fillColor=#000000;container=0;" parent="qDtawQAKe1lcSOI-oKHI-362" vertex="1">
          <mxGeometry x="297.22" y="1" width="70" height="2" as="geometry" />
        </mxCell>
        <mxCell id="YbWxmgszaFembR20GTfz-47" value="" style="rounded=1;whiteSpace=wrap;html=1;strokeWidth=0.2;strokeColor=#b5b5b5;arcSize=50;fillColor=#000000;container=0;" parent="qDtawQAKe1lcSOI-oKHI-362" vertex="1">
          <mxGeometry x="372.22" y="1" width="70" height="2" as="geometry" />
        </mxCell>
        <mxCell id="YbWxmgszaFembR20GTfz-50" style="edgeStyle=orthogonalEdgeStyle;rounded=0;orthogonalLoop=1;jettySize=auto;html=1;exitX=0.25;exitY=0;exitDx=0;exitDy=0;entryX=0.25;entryY=1;entryDx=0;entryDy=0;endArrow=none;endFill=0;strokeWidth=1;strokeColor=#B5B5B5;" parent="qDtawQAKe1lcSOI-oKHI-362" edge="1">
          <mxGeometry relative="1" as="geometry">
            <mxPoint x="94.72000000000023" y="1" as="sourcePoint" />
            <mxPoint x="94.72000000000006" y="3" as="targetPoint" />
          </mxGeometry>
        </mxCell>
        <mxCell id="YbWxmgszaFembR20GTfz-51" style="edgeStyle=orthogonalEdgeStyle;rounded=0;orthogonalLoop=1;jettySize=auto;html=1;exitX=0.25;exitY=0;exitDx=0;exitDy=0;entryX=0.25;entryY=1;entryDx=0;entryDy=0;endArrow=none;endFill=0;strokeWidth=1;strokeColor=#B5B5B5;" parent="qDtawQAKe1lcSOI-oKHI-362" edge="1">
          <mxGeometry relative="1" as="geometry">
            <mxPoint x="119.72000000000023" y="1" as="sourcePoint" />
            <mxPoint x="119.72000000000006" y="3" as="targetPoint" />
          </mxGeometry>
        </mxCell>
        <mxCell id="YbWxmgszaFembR20GTfz-52" style="edgeStyle=orthogonalEdgeStyle;rounded=0;orthogonalLoop=1;jettySize=auto;html=1;exitX=0.25;exitY=0;exitDx=0;exitDy=0;entryX=0.25;entryY=1;entryDx=0;entryDy=0;endArrow=none;endFill=0;strokeWidth=1;strokeColor=#B5B5B5;" parent="qDtawQAKe1lcSOI-oKHI-362" edge="1">
          <mxGeometry relative="1" as="geometry">
            <mxPoint x="169.72000000000023" y="1" as="sourcePoint" />
            <mxPoint x="169.72000000000006" y="3" as="targetPoint" />
          </mxGeometry>
        </mxCell>
        <mxCell id="YbWxmgszaFembR20GTfz-53" style="edgeStyle=orthogonalEdgeStyle;rounded=0;orthogonalLoop=1;jettySize=auto;html=1;exitX=0.25;exitY=0;exitDx=0;exitDy=0;entryX=0.25;entryY=1;entryDx=0;entryDy=0;endArrow=none;endFill=0;strokeWidth=1;strokeColor=#B5B5B5;" parent="qDtawQAKe1lcSOI-oKHI-362" edge="1">
          <mxGeometry relative="1" as="geometry">
            <mxPoint x="194.72000000000023" y="1" as="sourcePoint" />
            <mxPoint x="194.72000000000006" y="3" as="targetPoint" />
          </mxGeometry>
        </mxCell>
        <mxCell id="YbWxmgszaFembR20GTfz-54" style="edgeStyle=orthogonalEdgeStyle;rounded=0;orthogonalLoop=1;jettySize=auto;html=1;exitX=0.25;exitY=0;exitDx=0;exitDy=0;entryX=0.25;entryY=1;entryDx=0;entryDy=0;endArrow=none;endFill=0;strokeWidth=1;strokeColor=#B5B5B5;" parent="qDtawQAKe1lcSOI-oKHI-362" edge="1">
          <mxGeometry relative="1" as="geometry">
            <mxPoint x="244.72000000000023" y="1" as="sourcePoint" />
            <mxPoint x="244.72000000000006" y="3" as="targetPoint" />
          </mxGeometry>
        </mxCell>
        <mxCell id="YbWxmgszaFembR20GTfz-55" style="edgeStyle=orthogonalEdgeStyle;rounded=0;orthogonalLoop=1;jettySize=auto;html=1;exitX=0.25;exitY=0;exitDx=0;exitDy=0;entryX=0.25;entryY=1;entryDx=0;entryDy=0;endArrow=none;endFill=0;strokeWidth=1;strokeColor=#B5B5B5;" parent="qDtawQAKe1lcSOI-oKHI-362" edge="1">
          <mxGeometry relative="1" as="geometry">
            <mxPoint x="269.72000000000025" y="1" as="sourcePoint" />
            <mxPoint x="269.72" y="3" as="targetPoint" />
          </mxGeometry>
        </mxCell>
        <mxCell id="YbWxmgszaFembR20GTfz-56" style="edgeStyle=orthogonalEdgeStyle;rounded=0;orthogonalLoop=1;jettySize=auto;html=1;exitX=0.25;exitY=0;exitDx=0;exitDy=0;entryX=0.25;entryY=1;entryDx=0;entryDy=0;endArrow=none;endFill=0;strokeWidth=1;strokeColor=#B5B5B5;" parent="qDtawQAKe1lcSOI-oKHI-362" edge="1">
          <mxGeometry relative="1" as="geometry">
            <mxPoint x="319.72000000000025" y="1" as="sourcePoint" />
            <mxPoint x="319.72" y="3" as="targetPoint" />
          </mxGeometry>
        </mxCell>
        <mxCell id="YbWxmgszaFembR20GTfz-57" style="edgeStyle=orthogonalEdgeStyle;rounded=0;orthogonalLoop=1;jettySize=auto;html=1;exitX=0.25;exitY=0;exitDx=0;exitDy=0;entryX=0.25;entryY=1;entryDx=0;entryDy=0;endArrow=none;endFill=0;strokeWidth=1;strokeColor=#B5B5B5;" parent="qDtawQAKe1lcSOI-oKHI-362" edge="1">
          <mxGeometry relative="1" as="geometry">
            <mxPoint x="344.72000000000025" y="1" as="sourcePoint" />
            <mxPoint x="344.72" y="3" as="targetPoint" />
          </mxGeometry>
        </mxCell>
        <mxCell id="YbWxmgszaFembR20GTfz-58" style="edgeStyle=orthogonalEdgeStyle;rounded=0;orthogonalLoop=1;jettySize=auto;html=1;exitX=0.25;exitY=0;exitDx=0;exitDy=0;entryX=0.25;entryY=1;entryDx=0;entryDy=0;endArrow=none;endFill=0;strokeWidth=1;strokeColor=#B5B5B5;" parent="qDtawQAKe1lcSOI-oKHI-362" edge="1">
          <mxGeometry relative="1" as="geometry">
            <mxPoint x="394.72000000000025" y="1" as="sourcePoint" />
            <mxPoint x="394.72" y="3" as="targetPoint" />
          </mxGeometry>
        </mxCell>
        <mxCell id="YbWxmgszaFembR20GTfz-59" style="edgeStyle=orthogonalEdgeStyle;rounded=0;orthogonalLoop=1;jettySize=auto;html=1;exitX=0.25;exitY=0;exitDx=0;exitDy=0;entryX=0.25;entryY=1;entryDx=0;entryDy=0;endArrow=none;endFill=0;strokeWidth=1;strokeColor=#B5B5B5;" parent="qDtawQAKe1lcSOI-oKHI-362" edge="1">
          <mxGeometry relative="1" as="geometry">
            <mxPoint x="419.72000000000025" y="1" as="sourcePoint" />
            <mxPoint x="419.72" y="3" as="targetPoint" />
          </mxGeometry>
        </mxCell>
        <mxCell id="qDtawQAKe1lcSOI-oKHI-1" value="50" style="text;html=1;align=center;verticalAlign=middle;whiteSpace=wrap;rounded=0;fontSize=3;container=0;fontColor=#000000;" parent="qDtawQAKe1lcSOI-oKHI-362" vertex="1">
          <mxGeometry x="411.8" y="36.22999999999999" width="12" height="5" as="geometry" />
        </mxCell>
        <mxCell id="qDtawQAKe1lcSOI-oKHI-2" value="49" style="text;html=1;align=center;verticalAlign=middle;whiteSpace=wrap;rounded=0;fontSize=3;container=0;fontColor=#000000;" parent="qDtawQAKe1lcSOI-oKHI-362" vertex="1">
          <mxGeometry x="411.8" y="3.2299999999999898" width="12" height="5" as="geometry" />
        </mxCell>
        <mxCell id="qDtawQAKe1lcSOI-oKHI-3" value="" style="rounded=0;whiteSpace=wrap;html=1;strokeColor=#000000;fillColor=#BFBFBF;fontColor=#ffffff;strokeWidth=0.1;container=0;align=center;verticalAlign=middle;fontFamily=Teko Light;fontSize=3;" parent="qDtawQAKe1lcSOI-oKHI-362" vertex="1">
          <mxGeometry x="410.3" y="8.22999999999999" width="15" height="28" as="geometry" />
        </mxCell>
        <mxCell id="qDtawQAKe1lcSOI-oKHI-4" value="" style="rounded=0;whiteSpace=wrap;html=1;strokeColor=#AAAAAA;fillColor=#000000;fontColor=#ffffff;strokeWidth=0.1;container=0;" parent="qDtawQAKe1lcSOI-oKHI-362" vertex="1">
          <mxGeometry x="410.8" y="25.72999999999999" width="14" height="10" as="geometry" />
        </mxCell>
        <mxCell id="qDtawQAKe1lcSOI-oKHI-5" value="" style="rounded=0;whiteSpace=wrap;html=1;strokeColor=#AAAAAA;fillColor=#000000;fontColor=#ffffff;strokeWidth=0.1;container=0;" parent="qDtawQAKe1lcSOI-oKHI-362" vertex="1">
          <mxGeometry x="410.8" y="8.72999999999999" width="14" height="10" as="geometry" />
        </mxCell>
        <mxCell id="qDtawQAKe1lcSOI-oKHI-6" value="" style="rounded=0;whiteSpace=wrap;html=1;strokeColor=#111111;fillColor=#BFBFBF;fontColor=#ffffff;strokeWidth=0.1;container=0;" parent="qDtawQAKe1lcSOI-oKHI-362" vertex="1">
          <mxGeometry x="415.3" y="25.22999999999999" width="5" height="1.2" as="geometry" />
        </mxCell>
        <mxCell id="qDtawQAKe1lcSOI-oKHI-7" value="" style="rounded=0;whiteSpace=wrap;html=1;strokeColor=#111111;fillColor=#BFBFBF;fontColor=#ffffff;strokeWidth=0.1;container=0;" parent="qDtawQAKe1lcSOI-oKHI-362" vertex="1">
          <mxGeometry x="415.3" y="18.029999999999987" width="5" height="1.2" as="geometry" />
        </mxCell>
        <mxCell id="qDtawQAKe1lcSOI-oKHI-8" value="" style="triangle;whiteSpace=wrap;html=1;fillColor=#60a917;fontColor=#ffffff;strokeColor=none;rotation=90;container=0;" parent="qDtawQAKe1lcSOI-oKHI-362" vertex="1">
          <mxGeometry x="420.43" y="20.72999999999999" width="3" height="3.000000000000001" as="geometry" />
        </mxCell>
        <mxCell id="qDtawQAKe1lcSOI-oKHI-9" value="" style="triangle;whiteSpace=wrap;html=1;fillColor=#60a917;fontColor=#ffffff;strokeColor=none;rotation=-90;container=0;" parent="qDtawQAKe1lcSOI-oKHI-362" vertex="1">
          <mxGeometry x="411.8" y="20.72999999999999" width="3" height="3.000000000000001" as="geometry" />
        </mxCell>
        <mxCell id="qDtawQAKe1lcSOI-oKHI-10" value="26" style="text;html=1;align=center;verticalAlign=middle;whiteSpace=wrap;rounded=0;fontSize=3;container=0;fontColor=#000000;" parent="qDtawQAKe1lcSOI-oKHI-362" vertex="1">
          <mxGeometry x="236.3" y="36.22999999999999" width="12" height="5" as="geometry" />
        </mxCell>
        <mxCell id="qDtawQAKe1lcSOI-oKHI-11" value="28" style="text;html=1;align=center;verticalAlign=middle;whiteSpace=wrap;rounded=0;fontSize=3;container=0;fontColor=#000000;" parent="qDtawQAKe1lcSOI-oKHI-362" vertex="1">
          <mxGeometry x="249.3" y="36.22999999999999" width="12" height="5" as="geometry" />
        </mxCell>
        <mxCell id="qDtawQAKe1lcSOI-oKHI-12" value="30" style="text;html=1;align=center;verticalAlign=middle;whiteSpace=wrap;rounded=0;fontSize=3;container=0;fontColor=#000000;" parent="qDtawQAKe1lcSOI-oKHI-362" vertex="1">
          <mxGeometry x="262.3" y="36.22999999999999" width="12" height="5" as="geometry" />
        </mxCell>
        <mxCell id="qDtawQAKe1lcSOI-oKHI-13" value="32" style="text;html=1;align=center;verticalAlign=middle;whiteSpace=wrap;rounded=0;fontSize=3;container=0;fontColor=#000000;" parent="qDtawQAKe1lcSOI-oKHI-362" vertex="1">
          <mxGeometry x="275.3" y="36.22999999999999" width="12" height="5" as="geometry" />
        </mxCell>
        <mxCell id="qDtawQAKe1lcSOI-oKHI-14" value="34" style="text;html=1;align=center;verticalAlign=middle;whiteSpace=wrap;rounded=0;fontSize=3;container=0;fontColor=#000000;" parent="qDtawQAKe1lcSOI-oKHI-362" vertex="1">
          <mxGeometry x="288.3" y="36.22999999999999" width="12" height="5" as="geometry" />
        </mxCell>
        <mxCell id="qDtawQAKe1lcSOI-oKHI-15" value="36" style="text;html=1;align=center;verticalAlign=middle;whiteSpace=wrap;rounded=0;fontSize=3;container=0;fontColor=#000000;" parent="qDtawQAKe1lcSOI-oKHI-362" vertex="1">
          <mxGeometry x="301.3" y="36.22999999999999" width="12" height="5" as="geometry" />
        </mxCell>
        <mxCell id="qDtawQAKe1lcSOI-oKHI-16" value="25" style="text;html=1;align=center;verticalAlign=middle;whiteSpace=wrap;rounded=0;fontSize=3;container=0;fontColor=#000000;" parent="qDtawQAKe1lcSOI-oKHI-362" vertex="1">
          <mxGeometry x="236.3" y="3.230000000000004" width="12" height="5" as="geometry" />
        </mxCell>
        <mxCell id="qDtawQAKe1lcSOI-oKHI-17" value="27" style="text;html=1;align=center;verticalAlign=middle;whiteSpace=wrap;rounded=0;fontSize=3;container=0;fontColor=#000000;" parent="qDtawQAKe1lcSOI-oKHI-362" vertex="1">
          <mxGeometry x="249.3" y="3.230000000000004" width="12" height="5" as="geometry" />
        </mxCell>
        <mxCell id="qDtawQAKe1lcSOI-oKHI-18" value="29" style="text;html=1;align=center;verticalAlign=middle;whiteSpace=wrap;rounded=0;fontSize=3;container=0;fontColor=#000000;" parent="qDtawQAKe1lcSOI-oKHI-362" vertex="1">
          <mxGeometry x="262.3" y="3.230000000000004" width="12" height="5" as="geometry" />
        </mxCell>
        <mxCell id="qDtawQAKe1lcSOI-oKHI-19" value="31" style="text;html=1;align=center;verticalAlign=middle;whiteSpace=wrap;rounded=0;fontSize=3;container=0;fontColor=#000000;" parent="qDtawQAKe1lcSOI-oKHI-362" vertex="1">
          <mxGeometry x="275.3" y="3.230000000000004" width="12" height="5" as="geometry" />
        </mxCell>
        <mxCell id="qDtawQAKe1lcSOI-oKHI-20" value="33" style="text;html=1;align=center;verticalAlign=middle;whiteSpace=wrap;rounded=0;fontSize=3;container=0;fontColor=#000000;" parent="qDtawQAKe1lcSOI-oKHI-362" vertex="1">
          <mxGeometry x="288.3" y="3.230000000000004" width="12" height="5" as="geometry" />
        </mxCell>
        <mxCell id="qDtawQAKe1lcSOI-oKHI-21" value="35" style="text;html=1;align=center;verticalAlign=middle;whiteSpace=wrap;rounded=0;fontSize=3;container=0;fontColor=#000000;" parent="qDtawQAKe1lcSOI-oKHI-362" vertex="1">
          <mxGeometry x="301.3" y="3.230000000000004" width="12" height="5" as="geometry" />
        </mxCell>
        <mxCell id="qDtawQAKe1lcSOI-oKHI-22" value="" style="rounded=0;whiteSpace=wrap;html=1;strokeColor=#000000;fillColor=#BFBFBF;fontColor=#ffffff;strokeWidth=0.1;fontSize=3;fontFamily=Teko Light;align=center;verticalAlign=middle;container=0;" parent="qDtawQAKe1lcSOI-oKHI-362" vertex="1">
          <mxGeometry x="315.3" y="8.230000000000004" width="81" height="28" as="geometry" />
        </mxCell>
        <mxCell id="qDtawQAKe1lcSOI-oKHI-23" value="" style="rounded=0;whiteSpace=wrap;html=1;strokeColor=none;fillColor=#222222;fontColor=#ffffff;strokeWidth=0.1;fontSize=3;fontFamily=Teko Light;container=0;rotation=-180;" parent="qDtawQAKe1lcSOI-oKHI-362" vertex="1">
          <mxGeometry x="343.3" y="30.22999999999999" width="12" height="5" as="geometry" />
        </mxCell>
        <mxCell id="qDtawQAKe1lcSOI-oKHI-24" value="" style="rounded=0;whiteSpace=wrap;html=1;strokeColor=none;fillColor=#000000;fontColor=#ffffff;strokeWidth=0.1;fontSize=3;fontFamily=Teko Light;container=0;rotation=-180;" parent="qDtawQAKe1lcSOI-oKHI-362" vertex="1">
          <mxGeometry x="343.3" y="24.22999999999999" width="12" height="7" as="geometry" />
        </mxCell>
        <mxCell id="qDtawQAKe1lcSOI-oKHI-25" value="" style="rounded=0;whiteSpace=wrap;html=1;strokeColor=none;fillColor=#000000;fontColor=#ffffff;strokeWidth=0.1;fontSize=3;fontFamily=Teko Light;container=0;rotation=-180;" parent="qDtawQAKe1lcSOI-oKHI-362" vertex="1">
          <mxGeometry x="346.8" y="30.22999999999999" width="5" height="4" as="geometry" />
        </mxCell>
        <mxCell id="qDtawQAKe1lcSOI-oKHI-26" value="" style="rounded=0;whiteSpace=wrap;html=1;strokeColor=none;fillColor=#60a917;fontColor=#ffffff;strokeWidth=0.1;fontSize=3;fontFamily=Teko Light;container=0;rotation=-180;" parent="qDtawQAKe1lcSOI-oKHI-362" vertex="1">
          <mxGeometry x="352.3" y="32.22999999999999" width="3" height="2" as="geometry" />
        </mxCell>
        <mxCell id="qDtawQAKe1lcSOI-oKHI-27" value="" style="rounded=0;whiteSpace=wrap;html=1;strokeColor=none;fillColor=#e3c800;fontColor=#000000;strokeWidth=0.1;fontSize=3;fontFamily=Teko Light;container=0;rotation=-180;" parent="qDtawQAKe1lcSOI-oKHI-362" vertex="1">
          <mxGeometry x="343.3" y="32.22999999999999" width="3" height="2" as="geometry" />
        </mxCell>
        <mxCell id="qDtawQAKe1lcSOI-oKHI-28" value="" style="rounded=0;whiteSpace=wrap;html=1;strokeColor=none;fillColor=#222222;fontColor=#ffffff;strokeWidth=0.1;fontSize=3;fontFamily=Teko Light;container=0;" parent="qDtawQAKe1lcSOI-oKHI-362" vertex="1">
          <mxGeometry x="317.29857142857145" y="9.227576744186067" width="12" height="5" as="geometry" />
        </mxCell>
        <mxCell id="qDtawQAKe1lcSOI-oKHI-29" value="" style="rounded=0;whiteSpace=wrap;html=1;strokeColor=none;fillColor=#000000;fontColor=#ffffff;strokeWidth=0.1;fontSize=3;fontFamily=Teko Light;container=0;" parent="qDtawQAKe1lcSOI-oKHI-362" vertex="1">
          <mxGeometry x="317.2971428571429" y="13.231074995060638" width="12" height="7" as="geometry" />
        </mxCell>
        <mxCell id="qDtawQAKe1lcSOI-oKHI-30" value="" style="rounded=0;whiteSpace=wrap;html=1;strokeColor=none;fillColor=#000000;fontColor=#ffffff;strokeWidth=0.1;fontSize=3;fontFamily=Teko Light;container=0;" parent="qDtawQAKe1lcSOI-oKHI-362" vertex="1">
          <mxGeometry x="320.8" y="10.230000000000004" width="5" height="4" as="geometry" />
        </mxCell>
        <mxCell id="qDtawQAKe1lcSOI-oKHI-31" value="" style="rounded=0;whiteSpace=wrap;html=1;strokeColor=none;fillColor=#60a917;fontColor=#ffffff;strokeWidth=0.1;fontSize=3;fontFamily=Teko Light;container=0;" parent="qDtawQAKe1lcSOI-oKHI-362" vertex="1">
          <mxGeometry x="317.3" y="10.730000000000004" width="3" height="2" as="geometry" />
        </mxCell>
        <mxCell id="qDtawQAKe1lcSOI-oKHI-32" value="" style="rounded=0;whiteSpace=wrap;html=1;strokeColor=none;fillColor=#e3c800;fontColor=#000000;strokeWidth=0.1;fontSize=3;fontFamily=Teko Light;container=0;" parent="qDtawQAKe1lcSOI-oKHI-362" vertex="1">
          <mxGeometry x="326.3" y="10.730000000000004" width="3" height="2" as="geometry" />
        </mxCell>
        <mxCell id="qDtawQAKe1lcSOI-oKHI-33" value="" style="rounded=0;whiteSpace=wrap;html=1;strokeColor=none;fillColor=#222222;fontColor=#ffffff;strokeWidth=0.1;fontSize=3;fontFamily=Teko Light;container=0;" parent="qDtawQAKe1lcSOI-oKHI-362" vertex="1">
          <mxGeometry x="330.29857142857145" y="9.227576744186067" width="12" height="5" as="geometry" />
        </mxCell>
        <mxCell id="qDtawQAKe1lcSOI-oKHI-34" value="" style="rounded=0;whiteSpace=wrap;html=1;strokeColor=none;fillColor=#000000;fontColor=#ffffff;strokeWidth=0.1;fontSize=3;fontFamily=Teko Light;container=0;" parent="qDtawQAKe1lcSOI-oKHI-362" vertex="1">
          <mxGeometry x="330.2971428571429" y="13.231074995060638" width="12" height="7" as="geometry" />
        </mxCell>
        <mxCell id="qDtawQAKe1lcSOI-oKHI-35" value="" style="rounded=0;whiteSpace=wrap;html=1;strokeColor=none;fillColor=#000000;fontColor=#ffffff;strokeWidth=0.1;fontSize=3;fontFamily=Teko Light;container=0;" parent="qDtawQAKe1lcSOI-oKHI-362" vertex="1">
          <mxGeometry x="333.8" y="10.230000000000004" width="5" height="4" as="geometry" />
        </mxCell>
        <mxCell id="qDtawQAKe1lcSOI-oKHI-36" value="" style="rounded=0;whiteSpace=wrap;html=1;strokeColor=none;fillColor=#60a917;fontColor=#ffffff;strokeWidth=0.1;fontSize=3;fontFamily=Teko Light;container=0;" parent="qDtawQAKe1lcSOI-oKHI-362" vertex="1">
          <mxGeometry x="330.3" y="10.730000000000004" width="3" height="2" as="geometry" />
        </mxCell>
        <mxCell id="qDtawQAKe1lcSOI-oKHI-37" value="" style="rounded=0;whiteSpace=wrap;html=1;strokeColor=none;fillColor=#e3c800;fontColor=#000000;strokeWidth=0.1;fontSize=3;fontFamily=Teko Light;container=0;" parent="qDtawQAKe1lcSOI-oKHI-362" vertex="1">
          <mxGeometry x="339.3" y="10.730000000000004" width="3" height="2" as="geometry" />
        </mxCell>
        <mxCell id="qDtawQAKe1lcSOI-oKHI-38" value="" style="rounded=0;whiteSpace=wrap;html=1;strokeColor=none;fillColor=#222222;fontColor=#ffffff;strokeWidth=0.1;fontSize=3;fontFamily=Teko Light;container=0;" parent="qDtawQAKe1lcSOI-oKHI-362" vertex="1">
          <mxGeometry x="343.29857142857145" y="9.227576744186067" width="12" height="5" as="geometry" />
        </mxCell>
        <mxCell id="qDtawQAKe1lcSOI-oKHI-39" value="" style="rounded=0;whiteSpace=wrap;html=1;strokeColor=none;fillColor=#000000;fontColor=#ffffff;strokeWidth=0.1;fontSize=3;fontFamily=Teko Light;container=0;" parent="qDtawQAKe1lcSOI-oKHI-362" vertex="1">
          <mxGeometry x="343.2971428571429" y="13.231074995060638" width="12" height="7" as="geometry" />
        </mxCell>
        <mxCell id="qDtawQAKe1lcSOI-oKHI-40" value="" style="rounded=0;whiteSpace=wrap;html=1;strokeColor=none;fillColor=#000000;fontColor=#ffffff;strokeWidth=0.1;fontSize=3;fontFamily=Teko Light;container=0;" parent="qDtawQAKe1lcSOI-oKHI-362" vertex="1">
          <mxGeometry x="346.8" y="10.230000000000004" width="5" height="4" as="geometry" />
        </mxCell>
        <mxCell id="qDtawQAKe1lcSOI-oKHI-41" value="" style="rounded=0;whiteSpace=wrap;html=1;strokeColor=none;fillColor=#60a917;fontColor=#ffffff;strokeWidth=0.1;fontSize=3;fontFamily=Teko Light;container=0;" parent="qDtawQAKe1lcSOI-oKHI-362" vertex="1">
          <mxGeometry x="343.3" y="10.730000000000004" width="3" height="2" as="geometry" />
        </mxCell>
        <mxCell id="qDtawQAKe1lcSOI-oKHI-42" value="" style="rounded=0;whiteSpace=wrap;html=1;strokeColor=none;fillColor=#e3c800;fontColor=#000000;strokeWidth=0.1;fontSize=3;fontFamily=Teko Light;container=0;" parent="qDtawQAKe1lcSOI-oKHI-362" vertex="1">
          <mxGeometry x="352.3" y="10.730000000000004" width="3" height="2" as="geometry" />
        </mxCell>
        <mxCell id="qDtawQAKe1lcSOI-oKHI-43" value="" style="rounded=0;whiteSpace=wrap;html=1;strokeColor=none;fillColor=#222222;fontColor=#ffffff;strokeWidth=0.1;fontSize=3;fontFamily=Teko Light;container=0;" parent="qDtawQAKe1lcSOI-oKHI-362" vertex="1">
          <mxGeometry x="356.29857142857145" y="9.227576744186067" width="12" height="5" as="geometry" />
        </mxCell>
        <mxCell id="qDtawQAKe1lcSOI-oKHI-44" value="" style="rounded=0;whiteSpace=wrap;html=1;strokeColor=none;fillColor=#000000;fontColor=#ffffff;strokeWidth=0.1;fontSize=3;fontFamily=Teko Light;container=0;" parent="qDtawQAKe1lcSOI-oKHI-362" vertex="1">
          <mxGeometry x="356.2971428571429" y="13.231074995060638" width="12" height="7" as="geometry" />
        </mxCell>
        <mxCell id="qDtawQAKe1lcSOI-oKHI-45" value="" style="rounded=0;whiteSpace=wrap;html=1;strokeColor=none;fillColor=#000000;fontColor=#ffffff;strokeWidth=0.1;fontSize=3;fontFamily=Teko Light;container=0;" parent="qDtawQAKe1lcSOI-oKHI-362" vertex="1">
          <mxGeometry x="359.8" y="10.230000000000004" width="5" height="4" as="geometry" />
        </mxCell>
        <mxCell id="qDtawQAKe1lcSOI-oKHI-46" value="" style="rounded=0;whiteSpace=wrap;html=1;strokeColor=none;fillColor=#60a917;fontColor=#ffffff;strokeWidth=0.1;fontSize=3;fontFamily=Teko Light;container=0;" parent="qDtawQAKe1lcSOI-oKHI-362" vertex="1">
          <mxGeometry x="356.3" y="10.730000000000004" width="3" height="2" as="geometry" />
        </mxCell>
        <mxCell id="qDtawQAKe1lcSOI-oKHI-47" value="" style="rounded=0;whiteSpace=wrap;html=1;strokeColor=none;fillColor=#e3c800;fontColor=#000000;strokeWidth=0.1;fontSize=3;fontFamily=Teko Light;container=0;" parent="qDtawQAKe1lcSOI-oKHI-362" vertex="1">
          <mxGeometry x="365.3" y="10.730000000000004" width="3" height="2" as="geometry" />
        </mxCell>
        <mxCell id="qDtawQAKe1lcSOI-oKHI-48" value="" style="rounded=0;whiteSpace=wrap;html=1;strokeColor=none;fillColor=#222222;fontColor=#ffffff;strokeWidth=0.1;fontSize=3;fontFamily=Teko Light;container=0;" parent="qDtawQAKe1lcSOI-oKHI-362" vertex="1">
          <mxGeometry x="382.29857142857145" y="9.227576744186067" width="12" height="5" as="geometry" />
        </mxCell>
        <mxCell id="qDtawQAKe1lcSOI-oKHI-49" value="" style="rounded=0;whiteSpace=wrap;html=1;strokeColor=none;fillColor=#000000;fontColor=#ffffff;strokeWidth=0.1;fontSize=3;fontFamily=Teko Light;container=0;" parent="qDtawQAKe1lcSOI-oKHI-362" vertex="1">
          <mxGeometry x="382.2971428571429" y="13.231074995060638" width="12" height="7" as="geometry" />
        </mxCell>
        <mxCell id="qDtawQAKe1lcSOI-oKHI-50" value="" style="rounded=0;whiteSpace=wrap;html=1;strokeColor=none;fillColor=#000000;fontColor=#ffffff;strokeWidth=0.1;fontSize=3;fontFamily=Teko Light;container=0;" parent="qDtawQAKe1lcSOI-oKHI-362" vertex="1">
          <mxGeometry x="385.8" y="10.230000000000004" width="5" height="4" as="geometry" />
        </mxCell>
        <mxCell id="qDtawQAKe1lcSOI-oKHI-51" value="" style="rounded=0;whiteSpace=wrap;html=1;strokeColor=none;fillColor=#60a917;fontColor=#ffffff;strokeWidth=0.1;fontSize=3;fontFamily=Teko Light;container=0;" parent="qDtawQAKe1lcSOI-oKHI-362" vertex="1">
          <mxGeometry x="382.3" y="10.730000000000004" width="3" height="2" as="geometry" />
        </mxCell>
        <mxCell id="qDtawQAKe1lcSOI-oKHI-52" value="" style="rounded=0;whiteSpace=wrap;html=1;strokeColor=none;fillColor=#e3c800;fontColor=#000000;strokeWidth=0.1;fontSize=3;fontFamily=Teko Light;container=0;" parent="qDtawQAKe1lcSOI-oKHI-362" vertex="1">
          <mxGeometry x="391.3" y="10.730000000000004" width="3" height="2" as="geometry" />
        </mxCell>
        <mxCell id="qDtawQAKe1lcSOI-oKHI-53" value="" style="rounded=0;whiteSpace=wrap;html=1;strokeColor=none;fillColor=#222222;fontColor=#ffffff;strokeWidth=0.1;fontSize=3;fontFamily=Teko Light;container=0;" parent="qDtawQAKe1lcSOI-oKHI-362" vertex="1">
          <mxGeometry x="369.29857142857145" y="9.227576744186067" width="12" height="5" as="geometry" />
        </mxCell>
        <mxCell id="qDtawQAKe1lcSOI-oKHI-54" value="" style="rounded=0;whiteSpace=wrap;html=1;strokeColor=none;fillColor=#000000;fontColor=#ffffff;strokeWidth=0.1;fontSize=3;fontFamily=Teko Light;container=0;" parent="qDtawQAKe1lcSOI-oKHI-362" vertex="1">
          <mxGeometry x="369.2971428571429" y="13.231074995060638" width="12" height="7" as="geometry" />
        </mxCell>
        <mxCell id="qDtawQAKe1lcSOI-oKHI-55" value="" style="rounded=0;whiteSpace=wrap;html=1;strokeColor=none;fillColor=#000000;fontColor=#ffffff;strokeWidth=0.1;fontSize=3;fontFamily=Teko Light;container=0;" parent="qDtawQAKe1lcSOI-oKHI-362" vertex="1">
          <mxGeometry x="372.8" y="10.230000000000004" width="5" height="4" as="geometry" />
        </mxCell>
        <mxCell id="qDtawQAKe1lcSOI-oKHI-56" value="" style="rounded=0;whiteSpace=wrap;html=1;strokeColor=none;fillColor=#60a917;fontColor=#ffffff;strokeWidth=0.1;fontSize=3;fontFamily=Teko Light;container=0;" parent="qDtawQAKe1lcSOI-oKHI-362" vertex="1">
          <mxGeometry x="369.3" y="10.730000000000004" width="3" height="2" as="geometry" />
        </mxCell>
        <mxCell id="qDtawQAKe1lcSOI-oKHI-57" value="" style="rounded=0;whiteSpace=wrap;html=1;strokeColor=none;fillColor=#e3c800;fontColor=#000000;strokeWidth=0.1;fontSize=3;fontFamily=Teko Light;container=0;" parent="qDtawQAKe1lcSOI-oKHI-362" vertex="1">
          <mxGeometry x="378.3" y="10.730000000000004" width="3" height="2" as="geometry" />
        </mxCell>
        <mxCell id="qDtawQAKe1lcSOI-oKHI-58" value="" style="rounded=0;whiteSpace=wrap;html=1;strokeColor=none;fillColor=#222222;fontColor=#ffffff;strokeWidth=0.1;fontSize=3;fontFamily=Teko Light;container=0;rotation=-180;" parent="qDtawQAKe1lcSOI-oKHI-362" vertex="1">
          <mxGeometry x="317.2971428571429" y="30.227576744186052" width="12" height="5" as="geometry" />
        </mxCell>
        <mxCell id="qDtawQAKe1lcSOI-oKHI-59" value="" style="rounded=0;whiteSpace=wrap;html=1;strokeColor=none;fillColor=#000000;fontColor=#ffffff;strokeWidth=0.1;fontSize=3;fontFamily=Teko Light;container=0;rotation=-180;" parent="qDtawQAKe1lcSOI-oKHI-362" vertex="1">
          <mxGeometry x="317.2971428571429" y="24.227576744186052" width="12" height="7" as="geometry" />
        </mxCell>
        <mxCell id="qDtawQAKe1lcSOI-oKHI-60" value="" style="rounded=0;whiteSpace=wrap;html=1;strokeColor=none;fillColor=#000000;fontColor=#ffffff;strokeWidth=0.1;fontSize=3;fontFamily=Teko Light;container=0;rotation=-180;" parent="qDtawQAKe1lcSOI-oKHI-362" vertex="1">
          <mxGeometry x="320.7971428571429" y="30.227576744186052" width="5" height="4" as="geometry" />
        </mxCell>
        <mxCell id="qDtawQAKe1lcSOI-oKHI-61" value="" style="rounded=0;whiteSpace=wrap;html=1;strokeColor=none;fillColor=#60a917;fontColor=#ffffff;strokeWidth=0.1;fontSize=3;fontFamily=Teko Light;container=0;rotation=-180;" parent="qDtawQAKe1lcSOI-oKHI-362" vertex="1">
          <mxGeometry x="326.2971428571429" y="32.22757674418605" width="3" height="2" as="geometry" />
        </mxCell>
        <mxCell id="qDtawQAKe1lcSOI-oKHI-62" value="" style="rounded=0;whiteSpace=wrap;html=1;strokeColor=none;fillColor=#e3c800;fontColor=#000000;strokeWidth=0.1;fontSize=3;fontFamily=Teko Light;container=0;rotation=-180;" parent="qDtawQAKe1lcSOI-oKHI-362" vertex="1">
          <mxGeometry x="317.2971428571429" y="32.22757674418605" width="3" height="2" as="geometry" />
        </mxCell>
        <mxCell id="qDtawQAKe1lcSOI-oKHI-63" value="" style="rounded=0;whiteSpace=wrap;html=1;strokeColor=none;fillColor=#222222;fontColor=#ffffff;strokeWidth=0.1;fontSize=3;fontFamily=Teko Light;container=0;rotation=-180;" parent="qDtawQAKe1lcSOI-oKHI-362" vertex="1">
          <mxGeometry x="330.3" y="30.22999999999999" width="12" height="5" as="geometry" />
        </mxCell>
        <mxCell id="qDtawQAKe1lcSOI-oKHI-64" value="" style="rounded=0;whiteSpace=wrap;html=1;strokeColor=none;fillColor=#000000;fontColor=#ffffff;strokeWidth=0.1;fontSize=3;fontFamily=Teko Light;container=0;rotation=-180;" parent="qDtawQAKe1lcSOI-oKHI-362" vertex="1">
          <mxGeometry x="330.3" y="24.22999999999999" width="12" height="7" as="geometry" />
        </mxCell>
        <mxCell id="qDtawQAKe1lcSOI-oKHI-65" value="" style="rounded=0;whiteSpace=wrap;html=1;strokeColor=none;fillColor=#000000;fontColor=#ffffff;strokeWidth=0.1;fontSize=3;fontFamily=Teko Light;container=0;rotation=-180;" parent="qDtawQAKe1lcSOI-oKHI-362" vertex="1">
          <mxGeometry x="333.8" y="30.22999999999999" width="5" height="4" as="geometry" />
        </mxCell>
        <mxCell id="qDtawQAKe1lcSOI-oKHI-66" value="" style="rounded=0;whiteSpace=wrap;html=1;strokeColor=none;fillColor=#60a917;fontColor=#ffffff;strokeWidth=0.1;fontSize=3;fontFamily=Teko Light;container=0;rotation=-180;" parent="qDtawQAKe1lcSOI-oKHI-362" vertex="1">
          <mxGeometry x="339.3" y="32.22999999999999" width="3" height="2" as="geometry" />
        </mxCell>
        <mxCell id="qDtawQAKe1lcSOI-oKHI-67" value="" style="rounded=0;whiteSpace=wrap;html=1;strokeColor=none;fillColor=#e3c800;fontColor=#000000;strokeWidth=0.1;fontSize=3;fontFamily=Teko Light;container=0;rotation=-180;" parent="qDtawQAKe1lcSOI-oKHI-362" vertex="1">
          <mxGeometry x="330.3" y="32.22999999999999" width="3" height="2" as="geometry" />
        </mxCell>
        <mxCell id="qDtawQAKe1lcSOI-oKHI-68" value="" style="rounded=0;whiteSpace=wrap;html=1;strokeColor=none;fillColor=#222222;fontColor=#ffffff;strokeWidth=0.1;fontSize=3;fontFamily=Teko Light;container=0;rotation=-180;" parent="qDtawQAKe1lcSOI-oKHI-362" vertex="1">
          <mxGeometry x="356.3" y="30.22999999999999" width="12" height="5" as="geometry" />
        </mxCell>
        <mxCell id="qDtawQAKe1lcSOI-oKHI-69" value="" style="rounded=0;whiteSpace=wrap;html=1;strokeColor=none;fillColor=#000000;fontColor=#ffffff;strokeWidth=0.1;fontSize=3;fontFamily=Teko Light;container=0;rotation=-180;" parent="qDtawQAKe1lcSOI-oKHI-362" vertex="1">
          <mxGeometry x="356.3" y="24.22999999999999" width="12" height="7" as="geometry" />
        </mxCell>
        <mxCell id="qDtawQAKe1lcSOI-oKHI-70" value="" style="rounded=0;whiteSpace=wrap;html=1;strokeColor=none;fillColor=#000000;fontColor=#ffffff;strokeWidth=0.1;fontSize=3;fontFamily=Teko Light;container=0;rotation=-180;" parent="qDtawQAKe1lcSOI-oKHI-362" vertex="1">
          <mxGeometry x="359.8" y="30.22999999999999" width="5" height="4" as="geometry" />
        </mxCell>
        <mxCell id="qDtawQAKe1lcSOI-oKHI-71" value="" style="rounded=0;whiteSpace=wrap;html=1;strokeColor=none;fillColor=#60a917;fontColor=#ffffff;strokeWidth=0.1;fontSize=3;fontFamily=Teko Light;container=0;rotation=-180;" parent="qDtawQAKe1lcSOI-oKHI-362" vertex="1">
          <mxGeometry x="365.3" y="32.22999999999999" width="3" height="2" as="geometry" />
        </mxCell>
        <mxCell id="qDtawQAKe1lcSOI-oKHI-72" value="" style="rounded=0;whiteSpace=wrap;html=1;strokeColor=none;fillColor=#e3c800;fontColor=#000000;strokeWidth=0.1;fontSize=3;fontFamily=Teko Light;container=0;rotation=-180;" parent="qDtawQAKe1lcSOI-oKHI-362" vertex="1">
          <mxGeometry x="356.3" y="32.22999999999999" width="3" height="2" as="geometry" />
        </mxCell>
        <mxCell id="qDtawQAKe1lcSOI-oKHI-73" value="" style="rounded=0;whiteSpace=wrap;html=1;strokeColor=none;fillColor=#222222;fontColor=#ffffff;strokeWidth=0.1;fontSize=3;fontFamily=Teko Light;container=0;rotation=-180;" parent="qDtawQAKe1lcSOI-oKHI-362" vertex="1">
          <mxGeometry x="382.2971428571429" y="30.22999999999999" width="12" height="5" as="geometry" />
        </mxCell>
        <mxCell id="qDtawQAKe1lcSOI-oKHI-74" value="" style="rounded=0;whiteSpace=wrap;html=1;strokeColor=none;fillColor=#000000;fontColor=#ffffff;strokeWidth=0.1;fontSize=3;fontFamily=Teko Light;container=0;rotation=-180;" parent="qDtawQAKe1lcSOI-oKHI-362" vertex="1">
          <mxGeometry x="382.2971428571429" y="24.22999999999999" width="12" height="7" as="geometry" />
        </mxCell>
        <mxCell id="qDtawQAKe1lcSOI-oKHI-75" value="" style="rounded=0;whiteSpace=wrap;html=1;strokeColor=none;fillColor=#000000;fontColor=#ffffff;strokeWidth=0.1;fontSize=3;fontFamily=Teko Light;container=0;rotation=-180;" parent="qDtawQAKe1lcSOI-oKHI-362" vertex="1">
          <mxGeometry x="385.7971428571429" y="30.22999999999999" width="5" height="4" as="geometry" />
        </mxCell>
        <mxCell id="qDtawQAKe1lcSOI-oKHI-76" value="" style="rounded=0;whiteSpace=wrap;html=1;strokeColor=none;fillColor=#60a917;fontColor=#ffffff;strokeWidth=0.1;fontSize=3;fontFamily=Teko Light;container=0;rotation=-180;" parent="qDtawQAKe1lcSOI-oKHI-362" vertex="1">
          <mxGeometry x="391.2971428571429" y="32.22999999999999" width="3" height="2" as="geometry" />
        </mxCell>
        <mxCell id="qDtawQAKe1lcSOI-oKHI-77" value="" style="rounded=0;whiteSpace=wrap;html=1;strokeColor=none;fillColor=#e3c800;fontColor=#000000;strokeWidth=0.1;fontSize=3;fontFamily=Teko Light;container=0;rotation=-180;" parent="qDtawQAKe1lcSOI-oKHI-362" vertex="1">
          <mxGeometry x="382.2971428571429" y="32.22999999999999" width="3" height="2" as="geometry" />
        </mxCell>
        <mxCell id="qDtawQAKe1lcSOI-oKHI-78" value="" style="rounded=0;whiteSpace=wrap;html=1;strokeColor=none;fillColor=#222222;fontColor=#ffffff;strokeWidth=0.1;fontSize=3;fontFamily=Teko Light;container=0;rotation=-180;" parent="qDtawQAKe1lcSOI-oKHI-362" vertex="1">
          <mxGeometry x="369.3" y="30.22999999999999" width="12" height="5" as="geometry" />
        </mxCell>
        <mxCell id="qDtawQAKe1lcSOI-oKHI-79" value="" style="rounded=0;whiteSpace=wrap;html=1;strokeColor=none;fillColor=#000000;fontColor=#ffffff;strokeWidth=0.1;fontSize=3;fontFamily=Teko Light;container=0;rotation=-180;" parent="qDtawQAKe1lcSOI-oKHI-362" vertex="1">
          <mxGeometry x="369.3" y="24.22999999999999" width="12" height="7" as="geometry" />
        </mxCell>
        <mxCell id="qDtawQAKe1lcSOI-oKHI-80" value="" style="rounded=0;whiteSpace=wrap;html=1;strokeColor=none;fillColor=#000000;fontColor=#ffffff;strokeWidth=0.1;fontSize=3;fontFamily=Teko Light;container=0;rotation=-180;" parent="qDtawQAKe1lcSOI-oKHI-362" vertex="1">
          <mxGeometry x="372.8" y="30.22999999999999" width="5" height="4" as="geometry" />
        </mxCell>
        <mxCell id="qDtawQAKe1lcSOI-oKHI-81" value="" style="rounded=0;whiteSpace=wrap;html=1;strokeColor=none;fillColor=#60a917;fontColor=#ffffff;strokeWidth=0.1;fontSize=3;fontFamily=Teko Light;container=0;rotation=-180;" parent="qDtawQAKe1lcSOI-oKHI-362" vertex="1">
          <mxGeometry x="378.3" y="32.22999999999999" width="3" height="2" as="geometry" />
        </mxCell>
        <mxCell id="qDtawQAKe1lcSOI-oKHI-82" value="" style="rounded=0;whiteSpace=wrap;html=1;strokeColor=none;fillColor=#e3c800;fontColor=#000000;strokeWidth=0.1;fontSize=3;fontFamily=Teko Light;container=0;rotation=-180;" parent="qDtawQAKe1lcSOI-oKHI-362" vertex="1">
          <mxGeometry x="369.3" y="32.22999999999999" width="3" height="2" as="geometry" />
        </mxCell>
        <mxCell id="qDtawQAKe1lcSOI-oKHI-83" value="38" style="text;html=1;align=center;verticalAlign=middle;whiteSpace=wrap;rounded=0;fontSize=3;container=0;fontColor=#000000;" parent="qDtawQAKe1lcSOI-oKHI-362" vertex="1">
          <mxGeometry x="317.3" y="36.22999999999999" width="12" height="5" as="geometry" />
        </mxCell>
        <mxCell id="qDtawQAKe1lcSOI-oKHI-84" value="40" style="text;html=1;align=center;verticalAlign=middle;whiteSpace=wrap;rounded=0;fontSize=3;container=0;fontColor=#000000;" parent="qDtawQAKe1lcSOI-oKHI-362" vertex="1">
          <mxGeometry x="330.3" y="36.22999999999999" width="12" height="5" as="geometry" />
        </mxCell>
        <mxCell id="qDtawQAKe1lcSOI-oKHI-85" value="42" style="text;html=1;align=center;verticalAlign=middle;whiteSpace=wrap;rounded=0;fontSize=3;container=0;fontColor=#000000;" parent="qDtawQAKe1lcSOI-oKHI-362" vertex="1">
          <mxGeometry x="343.3" y="36.22999999999999" width="12" height="5" as="geometry" />
        </mxCell>
        <mxCell id="qDtawQAKe1lcSOI-oKHI-86" value="44" style="text;html=1;align=center;verticalAlign=middle;whiteSpace=wrap;rounded=0;fontSize=3;container=0;fontColor=#000000;" parent="qDtawQAKe1lcSOI-oKHI-362" vertex="1">
          <mxGeometry x="356.3" y="36.22999999999999" width="12" height="5" as="geometry" />
        </mxCell>
        <mxCell id="qDtawQAKe1lcSOI-oKHI-87" value="46" style="text;html=1;align=center;verticalAlign=middle;whiteSpace=wrap;rounded=0;fontSize=3;container=0;fontColor=#000000;" parent="qDtawQAKe1lcSOI-oKHI-362" vertex="1">
          <mxGeometry x="369.3" y="36.22999999999999" width="12" height="5" as="geometry" />
        </mxCell>
        <mxCell id="qDtawQAKe1lcSOI-oKHI-88" value="48" style="text;html=1;align=center;verticalAlign=middle;whiteSpace=wrap;rounded=0;fontSize=3;container=0;fontColor=#000000;" parent="qDtawQAKe1lcSOI-oKHI-362" vertex="1">
          <mxGeometry x="382.3" y="36.22999999999999" width="12" height="5" as="geometry" />
        </mxCell>
        <mxCell id="qDtawQAKe1lcSOI-oKHI-89" value="37" style="text;html=1;align=center;verticalAlign=middle;whiteSpace=wrap;rounded=0;fontSize=3;container=0;fontColor=#000000;" parent="qDtawQAKe1lcSOI-oKHI-362" vertex="1">
          <mxGeometry x="317.3" y="3.2299999999999898" width="12" height="5" as="geometry" />
        </mxCell>
        <mxCell id="qDtawQAKe1lcSOI-oKHI-90" value="39" style="text;html=1;align=center;verticalAlign=middle;whiteSpace=wrap;rounded=0;fontSize=3;container=0;fontColor=#000000;" parent="qDtawQAKe1lcSOI-oKHI-362" vertex="1">
          <mxGeometry x="330.3" y="3.2299999999999898" width="12" height="5" as="geometry" />
        </mxCell>
        <mxCell id="qDtawQAKe1lcSOI-oKHI-91" value="41" style="text;html=1;align=center;verticalAlign=middle;whiteSpace=wrap;rounded=0;fontSize=3;container=0;fontColor=#000000;" parent="qDtawQAKe1lcSOI-oKHI-362" vertex="1">
          <mxGeometry x="343.3" y="3.2299999999999898" width="12" height="5" as="geometry" />
        </mxCell>
        <mxCell id="qDtawQAKe1lcSOI-oKHI-92" value="43" style="text;html=1;align=center;verticalAlign=middle;whiteSpace=wrap;rounded=0;fontSize=3;container=0;fontColor=#000000;" parent="qDtawQAKe1lcSOI-oKHI-362" vertex="1">
          <mxGeometry x="356.3" y="3.2299999999999898" width="12" height="5" as="geometry" />
        </mxCell>
        <mxCell id="qDtawQAKe1lcSOI-oKHI-93" value="45" style="text;html=1;align=center;verticalAlign=middle;whiteSpace=wrap;rounded=0;fontSize=3;container=0;fontColor=#000000;" parent="qDtawQAKe1lcSOI-oKHI-362" vertex="1">
          <mxGeometry x="369.3" y="3.2299999999999898" width="12" height="5" as="geometry" />
        </mxCell>
        <mxCell id="qDtawQAKe1lcSOI-oKHI-94" value="47" style="text;html=1;align=center;verticalAlign=middle;whiteSpace=wrap;rounded=0;fontSize=3;container=0;fontColor=#000000;" parent="qDtawQAKe1lcSOI-oKHI-362" vertex="1">
          <mxGeometry x="382.3" y="3.2299999999999898" width="12" height="5" as="geometry" />
        </mxCell>
        <mxCell id="qDtawQAKe1lcSOI-oKHI-95" value="14" style="text;html=1;align=center;verticalAlign=middle;whiteSpace=wrap;rounded=0;fontSize=3;container=0;fontColor=#000000;" parent="qDtawQAKe1lcSOI-oKHI-362" vertex="1">
          <mxGeometry x="155.3" y="36.22999999999999" width="12" height="5" as="geometry" />
        </mxCell>
        <mxCell id="qDtawQAKe1lcSOI-oKHI-96" value="16" style="text;html=1;align=center;verticalAlign=middle;whiteSpace=wrap;rounded=0;fontSize=3;container=0;fontColor=#000000;" parent="qDtawQAKe1lcSOI-oKHI-362" vertex="1">
          <mxGeometry x="168.3" y="36.22999999999999" width="12" height="5" as="geometry" />
        </mxCell>
        <mxCell id="qDtawQAKe1lcSOI-oKHI-97" value="18" style="text;html=1;align=center;verticalAlign=middle;whiteSpace=wrap;rounded=0;fontSize=3;container=0;fontColor=#000000;" parent="qDtawQAKe1lcSOI-oKHI-362" vertex="1">
          <mxGeometry x="181.3" y="36.22999999999999" width="12" height="5" as="geometry" />
        </mxCell>
        <mxCell id="qDtawQAKe1lcSOI-oKHI-98" value="20" style="text;html=1;align=center;verticalAlign=middle;whiteSpace=wrap;rounded=0;fontSize=3;container=0;fontColor=#000000;" parent="qDtawQAKe1lcSOI-oKHI-362" vertex="1">
          <mxGeometry x="194.3" y="36.22999999999999" width="12" height="5" as="geometry" />
        </mxCell>
        <mxCell id="qDtawQAKe1lcSOI-oKHI-99" value="22" style="text;html=1;align=center;verticalAlign=middle;whiteSpace=wrap;rounded=0;fontSize=3;container=0;fontColor=#000000;" parent="qDtawQAKe1lcSOI-oKHI-362" vertex="1">
          <mxGeometry x="207.3" y="36.22999999999999" width="12" height="5" as="geometry" />
        </mxCell>
        <mxCell id="qDtawQAKe1lcSOI-oKHI-100" value="24" style="text;html=1;align=center;verticalAlign=middle;whiteSpace=wrap;rounded=0;fontSize=3;container=0;fontColor=#000000;" parent="qDtawQAKe1lcSOI-oKHI-362" vertex="1">
          <mxGeometry x="220.3" y="36.22999999999999" width="12" height="5" as="geometry" />
        </mxCell>
        <mxCell id="qDtawQAKe1lcSOI-oKHI-101" value="13" style="text;html=1;align=center;verticalAlign=middle;whiteSpace=wrap;rounded=0;fontSize=3;container=0;fontColor=#000000;" parent="qDtawQAKe1lcSOI-oKHI-362" vertex="1">
          <mxGeometry x="155.3" y="3.230000000000004" width="12" height="5" as="geometry" />
        </mxCell>
        <mxCell id="qDtawQAKe1lcSOI-oKHI-102" value="15" style="text;html=1;align=center;verticalAlign=middle;whiteSpace=wrap;rounded=0;fontSize=3;container=0;fontColor=#000000;" parent="qDtawQAKe1lcSOI-oKHI-362" vertex="1">
          <mxGeometry x="168.3" y="3.230000000000004" width="12" height="5" as="geometry" />
        </mxCell>
        <mxCell id="qDtawQAKe1lcSOI-oKHI-103" value="17" style="text;html=1;align=center;verticalAlign=middle;whiteSpace=wrap;rounded=0;fontSize=3;container=0;fontColor=#000000;" parent="qDtawQAKe1lcSOI-oKHI-362" vertex="1">
          <mxGeometry x="181.3" y="3.230000000000004" width="12" height="5" as="geometry" />
        </mxCell>
        <mxCell id="qDtawQAKe1lcSOI-oKHI-104" value="19" style="text;html=1;align=center;verticalAlign=middle;whiteSpace=wrap;rounded=0;fontSize=3;container=0;fontColor=#000000;" parent="qDtawQAKe1lcSOI-oKHI-362" vertex="1">
          <mxGeometry x="194.3" y="3.230000000000004" width="12" height="5" as="geometry" />
        </mxCell>
        <mxCell id="qDtawQAKe1lcSOI-oKHI-105" value="21" style="text;html=1;align=center;verticalAlign=middle;whiteSpace=wrap;rounded=0;fontSize=3;container=0;fontColor=#000000;" parent="qDtawQAKe1lcSOI-oKHI-362" vertex="1">
          <mxGeometry x="207.3" y="3.230000000000004" width="12" height="5" as="geometry" />
        </mxCell>
        <mxCell id="qDtawQAKe1lcSOI-oKHI-106" value="23" style="text;html=1;align=center;verticalAlign=middle;whiteSpace=wrap;rounded=0;fontSize=3;container=0;fontColor=#000000;" parent="qDtawQAKe1lcSOI-oKHI-362" vertex="1">
          <mxGeometry x="220.3" y="3.230000000000004" width="12" height="5" as="geometry" />
        </mxCell>
        <mxCell id="qDtawQAKe1lcSOI-oKHI-107" value="2" style="text;html=1;align=center;verticalAlign=middle;whiteSpace=wrap;rounded=0;fontSize=3;container=0;fontColor=#000000;" parent="qDtawQAKe1lcSOI-oKHI-362" vertex="1">
          <mxGeometry x="74.3" y="36.22999999999999" width="12" height="5" as="geometry" />
        </mxCell>
        <mxCell id="qDtawQAKe1lcSOI-oKHI-108" value="4" style="text;html=1;align=center;verticalAlign=middle;whiteSpace=wrap;rounded=0;fontSize=3;container=0;fontColor=#000000;" parent="qDtawQAKe1lcSOI-oKHI-362" vertex="1">
          <mxGeometry x="87.3" y="36.22999999999999" width="12" height="5" as="geometry" />
        </mxCell>
        <mxCell id="qDtawQAKe1lcSOI-oKHI-109" value="6" style="text;html=1;align=center;verticalAlign=middle;whiteSpace=wrap;rounded=0;fontSize=3;container=0;fontColor=#000000;" parent="qDtawQAKe1lcSOI-oKHI-362" vertex="1">
          <mxGeometry x="100.3" y="36.22999999999999" width="12" height="5" as="geometry" />
        </mxCell>
        <mxCell id="qDtawQAKe1lcSOI-oKHI-110" value="8" style="text;html=1;align=center;verticalAlign=middle;whiteSpace=wrap;rounded=0;fontSize=3;container=0;fontColor=#000000;" parent="qDtawQAKe1lcSOI-oKHI-362" vertex="1">
          <mxGeometry x="113.30000000000001" y="36.22999999999999" width="12" height="5" as="geometry" />
        </mxCell>
        <mxCell id="qDtawQAKe1lcSOI-oKHI-111" value="10" style="text;html=1;align=center;verticalAlign=middle;whiteSpace=wrap;rounded=0;fontSize=3;container=0;fontColor=#000000;" parent="qDtawQAKe1lcSOI-oKHI-362" vertex="1">
          <mxGeometry x="126.30000000000001" y="36.22999999999999" width="12" height="5" as="geometry" />
        </mxCell>
        <mxCell id="qDtawQAKe1lcSOI-oKHI-112" value="12" style="text;html=1;align=center;verticalAlign=middle;whiteSpace=wrap;rounded=0;fontSize=3;container=0;fontColor=#000000;" parent="qDtawQAKe1lcSOI-oKHI-362" vertex="1">
          <mxGeometry x="139.3" y="36.22999999999999" width="12" height="5" as="geometry" />
        </mxCell>
        <mxCell id="qDtawQAKe1lcSOI-oKHI-113" value="1" style="text;html=1;align=center;verticalAlign=middle;whiteSpace=wrap;rounded=0;fontSize=3;container=0;fontColor=#000000;" parent="qDtawQAKe1lcSOI-oKHI-362" vertex="1">
          <mxGeometry x="74.3" y="3.230000000000004" width="12" height="5" as="geometry" />
        </mxCell>
        <mxCell id="qDtawQAKe1lcSOI-oKHI-114" value="3" style="text;html=1;align=center;verticalAlign=middle;whiteSpace=wrap;rounded=0;fontSize=3;container=0;fontColor=#000000;" parent="qDtawQAKe1lcSOI-oKHI-362" vertex="1">
          <mxGeometry x="87.3" y="3.230000000000004" width="12" height="5" as="geometry" />
        </mxCell>
        <mxCell id="qDtawQAKe1lcSOI-oKHI-115" value="5" style="text;html=1;align=center;verticalAlign=middle;whiteSpace=wrap;rounded=0;fontSize=3;container=0;fontColor=#000000;" parent="qDtawQAKe1lcSOI-oKHI-362" vertex="1">
          <mxGeometry x="100.3" y="3.230000000000004" width="12" height="5" as="geometry" />
        </mxCell>
        <mxCell id="qDtawQAKe1lcSOI-oKHI-116" value="7" style="text;html=1;align=center;verticalAlign=middle;whiteSpace=wrap;rounded=0;fontSize=3;container=0;fontColor=#000000;" parent="qDtawQAKe1lcSOI-oKHI-362" vertex="1">
          <mxGeometry x="113.30000000000001" y="3.230000000000004" width="12" height="5" as="geometry" />
        </mxCell>
        <mxCell id="qDtawQAKe1lcSOI-oKHI-117" value="9" style="text;html=1;align=center;verticalAlign=middle;whiteSpace=wrap;rounded=0;fontSize=3;container=0;fontColor=#000000;" parent="qDtawQAKe1lcSOI-oKHI-362" vertex="1">
          <mxGeometry x="126.30000000000001" y="3.230000000000004" width="12" height="5" as="geometry" />
        </mxCell>
        <mxCell id="qDtawQAKe1lcSOI-oKHI-118" value="11" style="text;html=1;align=center;verticalAlign=middle;whiteSpace=wrap;rounded=0;fontSize=3;container=0;fontColor=#000000;" parent="qDtawQAKe1lcSOI-oKHI-362" vertex="1">
          <mxGeometry x="139.3" y="3.230000000000004" width="12" height="5" as="geometry" />
        </mxCell>
        <mxCell id="qDtawQAKe1lcSOI-oKHI-119" value="" style="rounded=0;whiteSpace=wrap;html=1;strokeColor=#000000;fillColor=#BFBFBF;fontColor=#ffffff;strokeWidth=0.1;fontSize=3;fontFamily=Teko Light;align=center;verticalAlign=middle;container=0;" parent="qDtawQAKe1lcSOI-oKHI-362" vertex="1">
          <mxGeometry x="234.3" y="8.230000000000004" width="81" height="28" as="geometry" />
        </mxCell>
        <mxCell id="qDtawQAKe1lcSOI-oKHI-120" value="" style="rounded=0;whiteSpace=wrap;html=1;strokeColor=none;fillColor=#222222;fontColor=#ffffff;strokeWidth=0.1;fontSize=3;fontFamily=Teko Light;container=0;rotation=-180;" parent="qDtawQAKe1lcSOI-oKHI-362" vertex="1">
          <mxGeometry x="262.3" y="30.230000000000004" width="12" height="5" as="geometry" />
        </mxCell>
        <mxCell id="qDtawQAKe1lcSOI-oKHI-121" value="" style="rounded=0;whiteSpace=wrap;html=1;strokeColor=none;fillColor=#000000;fontColor=#ffffff;strokeWidth=0.1;fontSize=3;fontFamily=Teko Light;container=0;rotation=-180;" parent="qDtawQAKe1lcSOI-oKHI-362" vertex="1">
          <mxGeometry x="262.3" y="24.230000000000004" width="12" height="7" as="geometry" />
        </mxCell>
        <mxCell id="qDtawQAKe1lcSOI-oKHI-122" value="" style="rounded=0;whiteSpace=wrap;html=1;strokeColor=none;fillColor=#000000;fontColor=#ffffff;strokeWidth=0.1;fontSize=3;fontFamily=Teko Light;container=0;rotation=-180;" parent="qDtawQAKe1lcSOI-oKHI-362" vertex="1">
          <mxGeometry x="265.8" y="30.230000000000004" width="5" height="4" as="geometry" />
        </mxCell>
        <mxCell id="qDtawQAKe1lcSOI-oKHI-123" value="" style="rounded=0;whiteSpace=wrap;html=1;strokeColor=none;fillColor=#60a917;fontColor=#ffffff;strokeWidth=0.1;fontSize=3;fontFamily=Teko Light;container=0;rotation=-180;" parent="qDtawQAKe1lcSOI-oKHI-362" vertex="1">
          <mxGeometry x="271.3" y="32.230000000000004" width="3" height="2" as="geometry" />
        </mxCell>
        <mxCell id="qDtawQAKe1lcSOI-oKHI-124" value="" style="rounded=0;whiteSpace=wrap;html=1;strokeColor=none;fillColor=#e3c800;fontColor=#000000;strokeWidth=0.1;fontSize=3;fontFamily=Teko Light;container=0;rotation=-180;" parent="qDtawQAKe1lcSOI-oKHI-362" vertex="1">
          <mxGeometry x="262.3" y="32.230000000000004" width="3" height="2" as="geometry" />
        </mxCell>
        <mxCell id="qDtawQAKe1lcSOI-oKHI-125" value="" style="rounded=0;whiteSpace=wrap;html=1;strokeColor=none;fillColor=#222222;fontColor=#ffffff;strokeWidth=0.1;fontSize=3;fontFamily=Teko Light;container=0;" parent="qDtawQAKe1lcSOI-oKHI-362" vertex="1">
          <mxGeometry x="236.29857142857145" y="9.227576744186067" width="12" height="5" as="geometry" />
        </mxCell>
        <mxCell id="qDtawQAKe1lcSOI-oKHI-126" value="" style="rounded=0;whiteSpace=wrap;html=1;strokeColor=none;fillColor=#000000;fontColor=#ffffff;strokeWidth=0.1;fontSize=3;fontFamily=Teko Light;container=0;" parent="qDtawQAKe1lcSOI-oKHI-362" vertex="1">
          <mxGeometry x="236.2971428571429" y="13.231074995060638" width="12" height="7" as="geometry" />
        </mxCell>
        <mxCell id="qDtawQAKe1lcSOI-oKHI-127" value="" style="rounded=0;whiteSpace=wrap;html=1;strokeColor=none;fillColor=#000000;fontColor=#ffffff;strokeWidth=0.1;fontSize=3;fontFamily=Teko Light;container=0;" parent="qDtawQAKe1lcSOI-oKHI-362" vertex="1">
          <mxGeometry x="239.8" y="10.230000000000004" width="5" height="4" as="geometry" />
        </mxCell>
        <mxCell id="qDtawQAKe1lcSOI-oKHI-128" value="" style="rounded=0;whiteSpace=wrap;html=1;strokeColor=none;fillColor=#60a917;fontColor=#ffffff;strokeWidth=0.1;fontSize=3;fontFamily=Teko Light;container=0;" parent="qDtawQAKe1lcSOI-oKHI-362" vertex="1">
          <mxGeometry x="236.3" y="10.730000000000004" width="3" height="2" as="geometry" />
        </mxCell>
        <mxCell id="qDtawQAKe1lcSOI-oKHI-129" value="" style="rounded=0;whiteSpace=wrap;html=1;strokeColor=none;fillColor=#e3c800;fontColor=#000000;strokeWidth=0.1;fontSize=3;fontFamily=Teko Light;container=0;" parent="qDtawQAKe1lcSOI-oKHI-362" vertex="1">
          <mxGeometry x="245.3" y="10.730000000000004" width="3" height="2" as="geometry" />
        </mxCell>
        <mxCell id="qDtawQAKe1lcSOI-oKHI-130" value="" style="rounded=0;whiteSpace=wrap;html=1;strokeColor=none;fillColor=#222222;fontColor=#ffffff;strokeWidth=0.1;fontSize=3;fontFamily=Teko Light;container=0;" parent="qDtawQAKe1lcSOI-oKHI-362" vertex="1">
          <mxGeometry x="249.29857142857145" y="9.227576744186067" width="12" height="5" as="geometry" />
        </mxCell>
        <mxCell id="qDtawQAKe1lcSOI-oKHI-131" value="" style="rounded=0;whiteSpace=wrap;html=1;strokeColor=none;fillColor=#000000;fontColor=#ffffff;strokeWidth=0.1;fontSize=3;fontFamily=Teko Light;container=0;" parent="qDtawQAKe1lcSOI-oKHI-362" vertex="1">
          <mxGeometry x="249.2971428571429" y="13.231074995060638" width="12" height="7" as="geometry" />
        </mxCell>
        <mxCell id="qDtawQAKe1lcSOI-oKHI-132" value="" style="rounded=0;whiteSpace=wrap;html=1;strokeColor=none;fillColor=#000000;fontColor=#ffffff;strokeWidth=0.1;fontSize=3;fontFamily=Teko Light;container=0;" parent="qDtawQAKe1lcSOI-oKHI-362" vertex="1">
          <mxGeometry x="252.8" y="10.230000000000004" width="5" height="4" as="geometry" />
        </mxCell>
        <mxCell id="qDtawQAKe1lcSOI-oKHI-133" value="" style="rounded=0;whiteSpace=wrap;html=1;strokeColor=none;fillColor=#60a917;fontColor=#ffffff;strokeWidth=0.1;fontSize=3;fontFamily=Teko Light;container=0;" parent="qDtawQAKe1lcSOI-oKHI-362" vertex="1">
          <mxGeometry x="249.3" y="10.730000000000004" width="3" height="2" as="geometry" />
        </mxCell>
        <mxCell id="qDtawQAKe1lcSOI-oKHI-134" value="" style="rounded=0;whiteSpace=wrap;html=1;strokeColor=none;fillColor=#e3c800;fontColor=#000000;strokeWidth=0.1;fontSize=3;fontFamily=Teko Light;container=0;" parent="qDtawQAKe1lcSOI-oKHI-362" vertex="1">
          <mxGeometry x="258.3" y="10.730000000000004" width="3" height="2" as="geometry" />
        </mxCell>
        <mxCell id="qDtawQAKe1lcSOI-oKHI-135" value="" style="rounded=0;whiteSpace=wrap;html=1;strokeColor=none;fillColor=#222222;fontColor=#ffffff;strokeWidth=0.1;fontSize=3;fontFamily=Teko Light;container=0;" parent="qDtawQAKe1lcSOI-oKHI-362" vertex="1">
          <mxGeometry x="262.29857142857145" y="9.227576744186067" width="12" height="5" as="geometry" />
        </mxCell>
        <mxCell id="qDtawQAKe1lcSOI-oKHI-136" value="" style="rounded=0;whiteSpace=wrap;html=1;strokeColor=none;fillColor=#000000;fontColor=#ffffff;strokeWidth=0.1;fontSize=3;fontFamily=Teko Light;container=0;" parent="qDtawQAKe1lcSOI-oKHI-362" vertex="1">
          <mxGeometry x="262.2971428571429" y="13.231074995060638" width="12" height="7" as="geometry" />
        </mxCell>
        <mxCell id="qDtawQAKe1lcSOI-oKHI-137" value="" style="rounded=0;whiteSpace=wrap;html=1;strokeColor=none;fillColor=#000000;fontColor=#ffffff;strokeWidth=0.1;fontSize=3;fontFamily=Teko Light;container=0;" parent="qDtawQAKe1lcSOI-oKHI-362" vertex="1">
          <mxGeometry x="265.8" y="10.230000000000004" width="5" height="4" as="geometry" />
        </mxCell>
        <mxCell id="qDtawQAKe1lcSOI-oKHI-138" value="" style="rounded=0;whiteSpace=wrap;html=1;strokeColor=none;fillColor=#60a917;fontColor=#ffffff;strokeWidth=0.1;fontSize=3;fontFamily=Teko Light;container=0;" parent="qDtawQAKe1lcSOI-oKHI-362" vertex="1">
          <mxGeometry x="262.3" y="10.730000000000004" width="3" height="2" as="geometry" />
        </mxCell>
        <mxCell id="qDtawQAKe1lcSOI-oKHI-139" value="" style="rounded=0;whiteSpace=wrap;html=1;strokeColor=none;fillColor=#e3c800;fontColor=#000000;strokeWidth=0.1;fontSize=3;fontFamily=Teko Light;container=0;" parent="qDtawQAKe1lcSOI-oKHI-362" vertex="1">
          <mxGeometry x="271.3" y="10.730000000000004" width="3" height="2" as="geometry" />
        </mxCell>
        <mxCell id="qDtawQAKe1lcSOI-oKHI-140" value="" style="rounded=0;whiteSpace=wrap;html=1;strokeColor=none;fillColor=#222222;fontColor=#ffffff;strokeWidth=0.1;fontSize=3;fontFamily=Teko Light;container=0;" parent="qDtawQAKe1lcSOI-oKHI-362" vertex="1">
          <mxGeometry x="275.29857142857145" y="9.227576744186067" width="12" height="5" as="geometry" />
        </mxCell>
        <mxCell id="qDtawQAKe1lcSOI-oKHI-141" value="" style="rounded=0;whiteSpace=wrap;html=1;strokeColor=none;fillColor=#000000;fontColor=#ffffff;strokeWidth=0.1;fontSize=3;fontFamily=Teko Light;container=0;" parent="qDtawQAKe1lcSOI-oKHI-362" vertex="1">
          <mxGeometry x="275.2971428571429" y="13.231074995060638" width="12" height="7" as="geometry" />
        </mxCell>
        <mxCell id="qDtawQAKe1lcSOI-oKHI-142" value="" style="rounded=0;whiteSpace=wrap;html=1;strokeColor=none;fillColor=#000000;fontColor=#ffffff;strokeWidth=0.1;fontSize=3;fontFamily=Teko Light;container=0;" parent="qDtawQAKe1lcSOI-oKHI-362" vertex="1">
          <mxGeometry x="278.8" y="10.230000000000004" width="5" height="4" as="geometry" />
        </mxCell>
        <mxCell id="qDtawQAKe1lcSOI-oKHI-143" value="" style="rounded=0;whiteSpace=wrap;html=1;strokeColor=none;fillColor=#60a917;fontColor=#ffffff;strokeWidth=0.1;fontSize=3;fontFamily=Teko Light;container=0;" parent="qDtawQAKe1lcSOI-oKHI-362" vertex="1">
          <mxGeometry x="275.3" y="10.730000000000004" width="3" height="2" as="geometry" />
        </mxCell>
        <mxCell id="qDtawQAKe1lcSOI-oKHI-144" value="" style="rounded=0;whiteSpace=wrap;html=1;strokeColor=none;fillColor=#e3c800;fontColor=#000000;strokeWidth=0.1;fontSize=3;fontFamily=Teko Light;container=0;" parent="qDtawQAKe1lcSOI-oKHI-362" vertex="1">
          <mxGeometry x="284.3" y="10.730000000000004" width="3" height="2" as="geometry" />
        </mxCell>
        <mxCell id="qDtawQAKe1lcSOI-oKHI-145" value="" style="rounded=0;whiteSpace=wrap;html=1;strokeColor=none;fillColor=#222222;fontColor=#ffffff;strokeWidth=0.1;fontSize=3;fontFamily=Teko Light;container=0;" parent="qDtawQAKe1lcSOI-oKHI-362" vertex="1">
          <mxGeometry x="301.29857142857145" y="9.227576744186067" width="12" height="5" as="geometry" />
        </mxCell>
        <mxCell id="qDtawQAKe1lcSOI-oKHI-146" value="" style="rounded=0;whiteSpace=wrap;html=1;strokeColor=none;fillColor=#000000;fontColor=#ffffff;strokeWidth=0.1;fontSize=3;fontFamily=Teko Light;container=0;" parent="qDtawQAKe1lcSOI-oKHI-362" vertex="1">
          <mxGeometry x="301.2971428571429" y="13.231074995060638" width="12" height="7" as="geometry" />
        </mxCell>
        <mxCell id="qDtawQAKe1lcSOI-oKHI-147" value="" style="rounded=0;whiteSpace=wrap;html=1;strokeColor=none;fillColor=#000000;fontColor=#ffffff;strokeWidth=0.1;fontSize=3;fontFamily=Teko Light;container=0;" parent="qDtawQAKe1lcSOI-oKHI-362" vertex="1">
          <mxGeometry x="304.8" y="10.230000000000004" width="5" height="4" as="geometry" />
        </mxCell>
        <mxCell id="qDtawQAKe1lcSOI-oKHI-148" value="" style="rounded=0;whiteSpace=wrap;html=1;strokeColor=none;fillColor=#60a917;fontColor=#ffffff;strokeWidth=0.1;fontSize=3;fontFamily=Teko Light;container=0;" parent="qDtawQAKe1lcSOI-oKHI-362" vertex="1">
          <mxGeometry x="301.3" y="10.730000000000004" width="3" height="2" as="geometry" />
        </mxCell>
        <mxCell id="qDtawQAKe1lcSOI-oKHI-149" value="" style="rounded=0;whiteSpace=wrap;html=1;strokeColor=none;fillColor=#e3c800;fontColor=#000000;strokeWidth=0.1;fontSize=3;fontFamily=Teko Light;container=0;" parent="qDtawQAKe1lcSOI-oKHI-362" vertex="1">
          <mxGeometry x="310.3" y="10.730000000000004" width="3" height="2" as="geometry" />
        </mxCell>
        <mxCell id="qDtawQAKe1lcSOI-oKHI-150" value="" style="rounded=0;whiteSpace=wrap;html=1;strokeColor=none;fillColor=#222222;fontColor=#ffffff;strokeWidth=0.1;fontSize=3;fontFamily=Teko Light;container=0;" parent="qDtawQAKe1lcSOI-oKHI-362" vertex="1">
          <mxGeometry x="288.29857142857145" y="9.227576744186067" width="12" height="5" as="geometry" />
        </mxCell>
        <mxCell id="qDtawQAKe1lcSOI-oKHI-151" value="" style="rounded=0;whiteSpace=wrap;html=1;strokeColor=none;fillColor=#000000;fontColor=#ffffff;strokeWidth=0.1;fontSize=3;fontFamily=Teko Light;container=0;" parent="qDtawQAKe1lcSOI-oKHI-362" vertex="1">
          <mxGeometry x="288.2971428571429" y="13.231074995060638" width="12" height="7" as="geometry" />
        </mxCell>
        <mxCell id="qDtawQAKe1lcSOI-oKHI-152" value="" style="rounded=0;whiteSpace=wrap;html=1;strokeColor=none;fillColor=#000000;fontColor=#ffffff;strokeWidth=0.1;fontSize=3;fontFamily=Teko Light;container=0;" parent="qDtawQAKe1lcSOI-oKHI-362" vertex="1">
          <mxGeometry x="291.8" y="10.230000000000004" width="5" height="4" as="geometry" />
        </mxCell>
        <mxCell id="qDtawQAKe1lcSOI-oKHI-153" value="" style="rounded=0;whiteSpace=wrap;html=1;strokeColor=none;fillColor=#60a917;fontColor=#ffffff;strokeWidth=0.1;fontSize=3;fontFamily=Teko Light;container=0;" parent="qDtawQAKe1lcSOI-oKHI-362" vertex="1">
          <mxGeometry x="288.3" y="10.730000000000004" width="3" height="2" as="geometry" />
        </mxCell>
        <mxCell id="qDtawQAKe1lcSOI-oKHI-154" value="" style="rounded=0;whiteSpace=wrap;html=1;strokeColor=none;fillColor=#e3c800;fontColor=#000000;strokeWidth=0.1;fontSize=3;fontFamily=Teko Light;container=0;" parent="qDtawQAKe1lcSOI-oKHI-362" vertex="1">
          <mxGeometry x="297.3" y="10.730000000000004" width="3" height="2" as="geometry" />
        </mxCell>
        <mxCell id="qDtawQAKe1lcSOI-oKHI-155" value="" style="rounded=0;whiteSpace=wrap;html=1;strokeColor=none;fillColor=#222222;fontColor=#ffffff;strokeWidth=0.1;fontSize=3;fontFamily=Teko Light;container=0;rotation=-180;" parent="qDtawQAKe1lcSOI-oKHI-362" vertex="1">
          <mxGeometry x="236.2971428571429" y="30.227576744186067" width="12" height="5" as="geometry" />
        </mxCell>
        <mxCell id="qDtawQAKe1lcSOI-oKHI-156" value="" style="rounded=0;whiteSpace=wrap;html=1;strokeColor=none;fillColor=#000000;fontColor=#ffffff;strokeWidth=0.1;fontSize=3;fontFamily=Teko Light;container=0;rotation=-180;" parent="qDtawQAKe1lcSOI-oKHI-362" vertex="1">
          <mxGeometry x="236.2971428571429" y="24.227576744186067" width="12" height="7" as="geometry" />
        </mxCell>
        <mxCell id="qDtawQAKe1lcSOI-oKHI-157" value="" style="rounded=0;whiteSpace=wrap;html=1;strokeColor=none;fillColor=#000000;fontColor=#ffffff;strokeWidth=0.1;fontSize=3;fontFamily=Teko Light;container=0;rotation=-180;" parent="qDtawQAKe1lcSOI-oKHI-362" vertex="1">
          <mxGeometry x="239.7971428571429" y="30.227576744186067" width="5" height="4" as="geometry" />
        </mxCell>
        <mxCell id="qDtawQAKe1lcSOI-oKHI-158" value="" style="rounded=0;whiteSpace=wrap;html=1;strokeColor=none;fillColor=#60a917;fontColor=#ffffff;strokeWidth=0.1;fontSize=3;fontFamily=Teko Light;container=0;rotation=-180;" parent="qDtawQAKe1lcSOI-oKHI-362" vertex="1">
          <mxGeometry x="245.2971428571429" y="32.22757674418607" width="3" height="2" as="geometry" />
        </mxCell>
        <mxCell id="qDtawQAKe1lcSOI-oKHI-159" value="" style="rounded=0;whiteSpace=wrap;html=1;strokeColor=none;fillColor=#e3c800;fontColor=#000000;strokeWidth=0.1;fontSize=3;fontFamily=Teko Light;container=0;rotation=-180;" parent="qDtawQAKe1lcSOI-oKHI-362" vertex="1">
          <mxGeometry x="236.2971428571429" y="32.22757674418607" width="3" height="2" as="geometry" />
        </mxCell>
        <mxCell id="qDtawQAKe1lcSOI-oKHI-160" value="" style="rounded=0;whiteSpace=wrap;html=1;strokeColor=none;fillColor=#222222;fontColor=#ffffff;strokeWidth=0.1;fontSize=3;fontFamily=Teko Light;container=0;rotation=-180;" parent="qDtawQAKe1lcSOI-oKHI-362" vertex="1">
          <mxGeometry x="249.3" y="30.230000000000004" width="12" height="5" as="geometry" />
        </mxCell>
        <mxCell id="qDtawQAKe1lcSOI-oKHI-161" value="" style="rounded=0;whiteSpace=wrap;html=1;strokeColor=none;fillColor=#000000;fontColor=#ffffff;strokeWidth=0.1;fontSize=3;fontFamily=Teko Light;container=0;rotation=-180;" parent="qDtawQAKe1lcSOI-oKHI-362" vertex="1">
          <mxGeometry x="249.3" y="24.230000000000004" width="12" height="7" as="geometry" />
        </mxCell>
        <mxCell id="qDtawQAKe1lcSOI-oKHI-162" value="" style="rounded=0;whiteSpace=wrap;html=1;strokeColor=none;fillColor=#000000;fontColor=#ffffff;strokeWidth=0.1;fontSize=3;fontFamily=Teko Light;container=0;rotation=-180;" parent="qDtawQAKe1lcSOI-oKHI-362" vertex="1">
          <mxGeometry x="252.8" y="30.230000000000004" width="5" height="4" as="geometry" />
        </mxCell>
        <mxCell id="qDtawQAKe1lcSOI-oKHI-163" value="" style="rounded=0;whiteSpace=wrap;html=1;strokeColor=none;fillColor=#60a917;fontColor=#ffffff;strokeWidth=0.1;fontSize=3;fontFamily=Teko Light;container=0;rotation=-180;" parent="qDtawQAKe1lcSOI-oKHI-362" vertex="1">
          <mxGeometry x="258.3" y="32.230000000000004" width="3" height="2" as="geometry" />
        </mxCell>
        <mxCell id="qDtawQAKe1lcSOI-oKHI-164" value="" style="rounded=0;whiteSpace=wrap;html=1;strokeColor=none;fillColor=#e3c800;fontColor=#000000;strokeWidth=0.1;fontSize=3;fontFamily=Teko Light;container=0;rotation=-180;" parent="qDtawQAKe1lcSOI-oKHI-362" vertex="1">
          <mxGeometry x="249.3" y="32.230000000000004" width="3" height="2" as="geometry" />
        </mxCell>
        <mxCell id="qDtawQAKe1lcSOI-oKHI-165" value="" style="rounded=0;whiteSpace=wrap;html=1;strokeColor=none;fillColor=#222222;fontColor=#ffffff;strokeWidth=0.1;fontSize=3;fontFamily=Teko Light;container=0;rotation=-180;" parent="qDtawQAKe1lcSOI-oKHI-362" vertex="1">
          <mxGeometry x="275.3" y="30.230000000000004" width="12" height="5" as="geometry" />
        </mxCell>
        <mxCell id="qDtawQAKe1lcSOI-oKHI-166" value="" style="rounded=0;whiteSpace=wrap;html=1;strokeColor=none;fillColor=#000000;fontColor=#ffffff;strokeWidth=0.1;fontSize=3;fontFamily=Teko Light;container=0;rotation=-180;" parent="qDtawQAKe1lcSOI-oKHI-362" vertex="1">
          <mxGeometry x="275.3" y="24.230000000000004" width="12" height="7" as="geometry" />
        </mxCell>
        <mxCell id="qDtawQAKe1lcSOI-oKHI-167" value="" style="rounded=0;whiteSpace=wrap;html=1;strokeColor=none;fillColor=#000000;fontColor=#ffffff;strokeWidth=0.1;fontSize=3;fontFamily=Teko Light;container=0;rotation=-180;" parent="qDtawQAKe1lcSOI-oKHI-362" vertex="1">
          <mxGeometry x="278.8" y="30.230000000000004" width="5" height="4" as="geometry" />
        </mxCell>
        <mxCell id="qDtawQAKe1lcSOI-oKHI-168" value="" style="rounded=0;whiteSpace=wrap;html=1;strokeColor=none;fillColor=#60a917;fontColor=#ffffff;strokeWidth=0.1;fontSize=3;fontFamily=Teko Light;container=0;rotation=-180;" parent="qDtawQAKe1lcSOI-oKHI-362" vertex="1">
          <mxGeometry x="284.3" y="32.230000000000004" width="3" height="2" as="geometry" />
        </mxCell>
        <mxCell id="qDtawQAKe1lcSOI-oKHI-169" value="" style="rounded=0;whiteSpace=wrap;html=1;strokeColor=none;fillColor=#e3c800;fontColor=#000000;strokeWidth=0.1;fontSize=3;fontFamily=Teko Light;container=0;rotation=-180;" parent="qDtawQAKe1lcSOI-oKHI-362" vertex="1">
          <mxGeometry x="275.3" y="32.230000000000004" width="3" height="2" as="geometry" />
        </mxCell>
        <mxCell id="qDtawQAKe1lcSOI-oKHI-170" value="" style="rounded=0;whiteSpace=wrap;html=1;strokeColor=none;fillColor=#222222;fontColor=#ffffff;strokeWidth=0.1;fontSize=3;fontFamily=Teko Light;container=0;rotation=-180;" parent="qDtawQAKe1lcSOI-oKHI-362" vertex="1">
          <mxGeometry x="301.2971428571429" y="30.230000000000004" width="12" height="5" as="geometry" />
        </mxCell>
        <mxCell id="qDtawQAKe1lcSOI-oKHI-171" value="" style="rounded=0;whiteSpace=wrap;html=1;strokeColor=none;fillColor=#000000;fontColor=#ffffff;strokeWidth=0.1;fontSize=3;fontFamily=Teko Light;container=0;rotation=-180;" parent="qDtawQAKe1lcSOI-oKHI-362" vertex="1">
          <mxGeometry x="301.2971428571429" y="24.230000000000004" width="12" height="7" as="geometry" />
        </mxCell>
        <mxCell id="qDtawQAKe1lcSOI-oKHI-172" value="" style="rounded=0;whiteSpace=wrap;html=1;strokeColor=none;fillColor=#000000;fontColor=#ffffff;strokeWidth=0.1;fontSize=3;fontFamily=Teko Light;container=0;rotation=-180;" parent="qDtawQAKe1lcSOI-oKHI-362" vertex="1">
          <mxGeometry x="304.7971428571429" y="30.230000000000004" width="5" height="4" as="geometry" />
        </mxCell>
        <mxCell id="qDtawQAKe1lcSOI-oKHI-173" value="" style="rounded=0;whiteSpace=wrap;html=1;strokeColor=none;fillColor=#60a917;fontColor=#ffffff;strokeWidth=0.1;fontSize=3;fontFamily=Teko Light;container=0;rotation=-180;" parent="qDtawQAKe1lcSOI-oKHI-362" vertex="1">
          <mxGeometry x="310.2971428571429" y="32.230000000000004" width="3" height="2" as="geometry" />
        </mxCell>
        <mxCell id="qDtawQAKe1lcSOI-oKHI-174" value="" style="rounded=0;whiteSpace=wrap;html=1;strokeColor=none;fillColor=#e3c800;fontColor=#000000;strokeWidth=0.1;fontSize=3;fontFamily=Teko Light;container=0;rotation=-180;" parent="qDtawQAKe1lcSOI-oKHI-362" vertex="1">
          <mxGeometry x="301.2971428571429" y="32.230000000000004" width="3" height="2" as="geometry" />
        </mxCell>
        <mxCell id="qDtawQAKe1lcSOI-oKHI-175" value="" style="rounded=0;whiteSpace=wrap;html=1;strokeColor=none;fillColor=#222222;fontColor=#ffffff;strokeWidth=0.1;fontSize=3;fontFamily=Teko Light;container=0;rotation=-180;" parent="qDtawQAKe1lcSOI-oKHI-362" vertex="1">
          <mxGeometry x="288.3" y="30.230000000000004" width="12" height="5" as="geometry" />
        </mxCell>
        <mxCell id="qDtawQAKe1lcSOI-oKHI-176" value="" style="rounded=0;whiteSpace=wrap;html=1;strokeColor=none;fillColor=#000000;fontColor=#ffffff;strokeWidth=0.1;fontSize=3;fontFamily=Teko Light;container=0;rotation=-180;" parent="qDtawQAKe1lcSOI-oKHI-362" vertex="1">
          <mxGeometry x="288.3" y="24.230000000000004" width="12" height="7" as="geometry" />
        </mxCell>
        <mxCell id="qDtawQAKe1lcSOI-oKHI-177" value="" style="rounded=0;whiteSpace=wrap;html=1;strokeColor=none;fillColor=#000000;fontColor=#ffffff;strokeWidth=0.1;fontSize=3;fontFamily=Teko Light;container=0;rotation=-180;" parent="qDtawQAKe1lcSOI-oKHI-362" vertex="1">
          <mxGeometry x="291.8" y="30.230000000000004" width="5" height="4" as="geometry" />
        </mxCell>
        <mxCell id="qDtawQAKe1lcSOI-oKHI-178" value="" style="rounded=0;whiteSpace=wrap;html=1;strokeColor=none;fillColor=#60a917;fontColor=#ffffff;strokeWidth=0.1;fontSize=3;fontFamily=Teko Light;container=0;rotation=-180;" parent="qDtawQAKe1lcSOI-oKHI-362" vertex="1">
          <mxGeometry x="297.3" y="32.230000000000004" width="3" height="2" as="geometry" />
        </mxCell>
        <mxCell id="qDtawQAKe1lcSOI-oKHI-179" value="" style="rounded=0;whiteSpace=wrap;html=1;strokeColor=none;fillColor=#e3c800;fontColor=#000000;strokeWidth=0.1;fontSize=3;fontFamily=Teko Light;container=0;rotation=-180;" parent="qDtawQAKe1lcSOI-oKHI-362" vertex="1">
          <mxGeometry x="288.3" y="32.230000000000004" width="3" height="2" as="geometry" />
        </mxCell>
        <mxCell id="qDtawQAKe1lcSOI-oKHI-180" value="" style="rounded=0;whiteSpace=wrap;html=1;strokeColor=none;fillColor=#222222;fontColor=#ffffff;strokeWidth=0.1;fontSize=3;fontFamily=Teko Light;container=0;rotation=-180;" parent="qDtawQAKe1lcSOI-oKHI-362" vertex="1">
          <mxGeometry x="343.3" y="30.22999999999999" width="12" height="5" as="geometry" />
        </mxCell>
        <mxCell id="qDtawQAKe1lcSOI-oKHI-181" value="" style="rounded=0;whiteSpace=wrap;html=1;strokeColor=none;fillColor=#000000;fontColor=#ffffff;strokeWidth=0.1;fontSize=3;fontFamily=Teko Light;container=0;rotation=-180;" parent="qDtawQAKe1lcSOI-oKHI-362" vertex="1">
          <mxGeometry x="343.3" y="24.22999999999999" width="12" height="7" as="geometry" />
        </mxCell>
        <mxCell id="qDtawQAKe1lcSOI-oKHI-182" value="" style="rounded=0;whiteSpace=wrap;html=1;strokeColor=none;fillColor=#000000;fontColor=#ffffff;strokeWidth=0.1;fontSize=3;fontFamily=Teko Light;container=0;rotation=-180;" parent="qDtawQAKe1lcSOI-oKHI-362" vertex="1">
          <mxGeometry x="346.8" y="30.22999999999999" width="5" height="4" as="geometry" />
        </mxCell>
        <mxCell id="qDtawQAKe1lcSOI-oKHI-183" value="" style="rounded=0;whiteSpace=wrap;html=1;strokeColor=none;fillColor=#60a917;fontColor=#ffffff;strokeWidth=0.1;fontSize=3;fontFamily=Teko Light;container=0;rotation=-180;" parent="qDtawQAKe1lcSOI-oKHI-362" vertex="1">
          <mxGeometry x="352.3" y="32.22999999999999" width="3" height="2" as="geometry" />
        </mxCell>
        <mxCell id="qDtawQAKe1lcSOI-oKHI-184" value="" style="rounded=0;whiteSpace=wrap;html=1;strokeColor=none;fillColor=#e3c800;fontColor=#000000;strokeWidth=0.1;fontSize=3;fontFamily=Teko Light;container=0;rotation=-180;" parent="qDtawQAKe1lcSOI-oKHI-362" vertex="1">
          <mxGeometry x="343.3" y="32.22999999999999" width="3" height="2" as="geometry" />
        </mxCell>
        <mxCell id="qDtawQAKe1lcSOI-oKHI-185" value="" style="rounded=0;whiteSpace=wrap;html=1;strokeColor=none;fillColor=#222222;fontColor=#ffffff;strokeWidth=0.1;fontSize=3;fontFamily=Teko Light;container=0;" parent="qDtawQAKe1lcSOI-oKHI-362" vertex="1">
          <mxGeometry x="317.29857142857145" y="9.227576744186052" width="12" height="5" as="geometry" />
        </mxCell>
        <mxCell id="qDtawQAKe1lcSOI-oKHI-186" value="" style="rounded=0;whiteSpace=wrap;html=1;strokeColor=none;fillColor=#000000;fontColor=#ffffff;strokeWidth=0.1;fontSize=3;fontFamily=Teko Light;container=0;" parent="qDtawQAKe1lcSOI-oKHI-362" vertex="1">
          <mxGeometry x="317.2971428571429" y="13.231074995060624" width="12" height="7" as="geometry" />
        </mxCell>
        <mxCell id="qDtawQAKe1lcSOI-oKHI-187" value="" style="rounded=0;whiteSpace=wrap;html=1;strokeColor=none;fillColor=#000000;fontColor=#ffffff;strokeWidth=0.1;fontSize=3;fontFamily=Teko Light;container=0;" parent="qDtawQAKe1lcSOI-oKHI-362" vertex="1">
          <mxGeometry x="320.8" y="10.22999999999999" width="5" height="4" as="geometry" />
        </mxCell>
        <mxCell id="qDtawQAKe1lcSOI-oKHI-188" value="" style="rounded=0;whiteSpace=wrap;html=1;strokeColor=none;fillColor=#60a917;fontColor=#ffffff;strokeWidth=0.1;fontSize=3;fontFamily=Teko Light;container=0;" parent="qDtawQAKe1lcSOI-oKHI-362" vertex="1">
          <mxGeometry x="317.3" y="10.72999999999999" width="3" height="2" as="geometry" />
        </mxCell>
        <mxCell id="qDtawQAKe1lcSOI-oKHI-189" value="" style="rounded=0;whiteSpace=wrap;html=1;strokeColor=none;fillColor=#e3c800;fontColor=#000000;strokeWidth=0.1;fontSize=3;fontFamily=Teko Light;container=0;" parent="qDtawQAKe1lcSOI-oKHI-362" vertex="1">
          <mxGeometry x="326.3" y="10.72999999999999" width="3" height="2" as="geometry" />
        </mxCell>
        <mxCell id="qDtawQAKe1lcSOI-oKHI-190" value="" style="rounded=0;whiteSpace=wrap;html=1;strokeColor=none;fillColor=#222222;fontColor=#ffffff;strokeWidth=0.1;fontSize=3;fontFamily=Teko Light;container=0;" parent="qDtawQAKe1lcSOI-oKHI-362" vertex="1">
          <mxGeometry x="330.29857142857145" y="9.227576744186052" width="12" height="5" as="geometry" />
        </mxCell>
        <mxCell id="qDtawQAKe1lcSOI-oKHI-191" value="" style="rounded=0;whiteSpace=wrap;html=1;strokeColor=none;fillColor=#000000;fontColor=#ffffff;strokeWidth=0.1;fontSize=3;fontFamily=Teko Light;container=0;" parent="qDtawQAKe1lcSOI-oKHI-362" vertex="1">
          <mxGeometry x="330.2971428571429" y="13.231074995060624" width="12" height="7" as="geometry" />
        </mxCell>
        <mxCell id="qDtawQAKe1lcSOI-oKHI-192" value="" style="rounded=0;whiteSpace=wrap;html=1;strokeColor=none;fillColor=#000000;fontColor=#ffffff;strokeWidth=0.1;fontSize=3;fontFamily=Teko Light;container=0;" parent="qDtawQAKe1lcSOI-oKHI-362" vertex="1">
          <mxGeometry x="333.8" y="10.22999999999999" width="5" height="4" as="geometry" />
        </mxCell>
        <mxCell id="qDtawQAKe1lcSOI-oKHI-193" value="" style="rounded=0;whiteSpace=wrap;html=1;strokeColor=none;fillColor=#60a917;fontColor=#ffffff;strokeWidth=0.1;fontSize=3;fontFamily=Teko Light;container=0;" parent="qDtawQAKe1lcSOI-oKHI-362" vertex="1">
          <mxGeometry x="330.3" y="10.72999999999999" width="3" height="2" as="geometry" />
        </mxCell>
        <mxCell id="qDtawQAKe1lcSOI-oKHI-194" value="" style="rounded=0;whiteSpace=wrap;html=1;strokeColor=none;fillColor=#e3c800;fontColor=#000000;strokeWidth=0.1;fontSize=3;fontFamily=Teko Light;container=0;" parent="qDtawQAKe1lcSOI-oKHI-362" vertex="1">
          <mxGeometry x="339.3" y="10.72999999999999" width="3" height="2" as="geometry" />
        </mxCell>
        <mxCell id="qDtawQAKe1lcSOI-oKHI-195" value="" style="rounded=0;whiteSpace=wrap;html=1;strokeColor=none;fillColor=#222222;fontColor=#ffffff;strokeWidth=0.1;fontSize=3;fontFamily=Teko Light;container=0;" parent="qDtawQAKe1lcSOI-oKHI-362" vertex="1">
          <mxGeometry x="343.29857142857145" y="9.227576744186052" width="12" height="5" as="geometry" />
        </mxCell>
        <mxCell id="qDtawQAKe1lcSOI-oKHI-196" value="" style="rounded=0;whiteSpace=wrap;html=1;strokeColor=none;fillColor=#000000;fontColor=#ffffff;strokeWidth=0.1;fontSize=3;fontFamily=Teko Light;container=0;" parent="qDtawQAKe1lcSOI-oKHI-362" vertex="1">
          <mxGeometry x="343.2971428571429" y="13.231074995060624" width="12" height="7" as="geometry" />
        </mxCell>
        <mxCell id="qDtawQAKe1lcSOI-oKHI-197" value="" style="rounded=0;whiteSpace=wrap;html=1;strokeColor=none;fillColor=#000000;fontColor=#ffffff;strokeWidth=0.1;fontSize=3;fontFamily=Teko Light;container=0;" parent="qDtawQAKe1lcSOI-oKHI-362" vertex="1">
          <mxGeometry x="346.8" y="10.22999999999999" width="5" height="4" as="geometry" />
        </mxCell>
        <mxCell id="qDtawQAKe1lcSOI-oKHI-198" value="" style="rounded=0;whiteSpace=wrap;html=1;strokeColor=none;fillColor=#60a917;fontColor=#ffffff;strokeWidth=0.1;fontSize=3;fontFamily=Teko Light;container=0;" parent="qDtawQAKe1lcSOI-oKHI-362" vertex="1">
          <mxGeometry x="343.3" y="10.72999999999999" width="3" height="2" as="geometry" />
        </mxCell>
        <mxCell id="qDtawQAKe1lcSOI-oKHI-199" value="" style="rounded=0;whiteSpace=wrap;html=1;strokeColor=none;fillColor=#e3c800;fontColor=#000000;strokeWidth=0.1;fontSize=3;fontFamily=Teko Light;container=0;" parent="qDtawQAKe1lcSOI-oKHI-362" vertex="1">
          <mxGeometry x="352.3" y="10.72999999999999" width="3" height="2" as="geometry" />
        </mxCell>
        <mxCell id="qDtawQAKe1lcSOI-oKHI-200" value="" style="rounded=0;whiteSpace=wrap;html=1;strokeColor=none;fillColor=#222222;fontColor=#ffffff;strokeWidth=0.1;fontSize=3;fontFamily=Teko Light;container=0;" parent="qDtawQAKe1lcSOI-oKHI-362" vertex="1">
          <mxGeometry x="356.29857142857145" y="9.227576744186052" width="12" height="5" as="geometry" />
        </mxCell>
        <mxCell id="qDtawQAKe1lcSOI-oKHI-201" value="" style="rounded=0;whiteSpace=wrap;html=1;strokeColor=none;fillColor=#000000;fontColor=#ffffff;strokeWidth=0.1;fontSize=3;fontFamily=Teko Light;container=0;" parent="qDtawQAKe1lcSOI-oKHI-362" vertex="1">
          <mxGeometry x="356.2971428571429" y="13.231074995060624" width="12" height="7" as="geometry" />
        </mxCell>
        <mxCell id="qDtawQAKe1lcSOI-oKHI-202" value="" style="rounded=0;whiteSpace=wrap;html=1;strokeColor=none;fillColor=#000000;fontColor=#ffffff;strokeWidth=0.1;fontSize=3;fontFamily=Teko Light;container=0;" parent="qDtawQAKe1lcSOI-oKHI-362" vertex="1">
          <mxGeometry x="359.8" y="10.22999999999999" width="5" height="4" as="geometry" />
        </mxCell>
        <mxCell id="qDtawQAKe1lcSOI-oKHI-203" value="" style="rounded=0;whiteSpace=wrap;html=1;strokeColor=none;fillColor=#60a917;fontColor=#ffffff;strokeWidth=0.1;fontSize=3;fontFamily=Teko Light;container=0;" parent="qDtawQAKe1lcSOI-oKHI-362" vertex="1">
          <mxGeometry x="356.3" y="10.72999999999999" width="3" height="2" as="geometry" />
        </mxCell>
        <mxCell id="qDtawQAKe1lcSOI-oKHI-204" value="" style="rounded=0;whiteSpace=wrap;html=1;strokeColor=none;fillColor=#e3c800;fontColor=#000000;strokeWidth=0.1;fontSize=3;fontFamily=Teko Light;container=0;" parent="qDtawQAKe1lcSOI-oKHI-362" vertex="1">
          <mxGeometry x="365.3" y="10.72999999999999" width="3" height="2" as="geometry" />
        </mxCell>
        <mxCell id="qDtawQAKe1lcSOI-oKHI-205" value="" style="rounded=0;whiteSpace=wrap;html=1;strokeColor=none;fillColor=#222222;fontColor=#ffffff;strokeWidth=0.1;fontSize=3;fontFamily=Teko Light;container=0;" parent="qDtawQAKe1lcSOI-oKHI-362" vertex="1">
          <mxGeometry x="382.29857142857145" y="9.227576744186052" width="12" height="5" as="geometry" />
        </mxCell>
        <mxCell id="qDtawQAKe1lcSOI-oKHI-206" value="" style="rounded=0;whiteSpace=wrap;html=1;strokeColor=none;fillColor=#000000;fontColor=#ffffff;strokeWidth=0.1;fontSize=3;fontFamily=Teko Light;container=0;" parent="qDtawQAKe1lcSOI-oKHI-362" vertex="1">
          <mxGeometry x="382.2971428571429" y="13.231074995060624" width="12" height="7" as="geometry" />
        </mxCell>
        <mxCell id="qDtawQAKe1lcSOI-oKHI-207" value="" style="rounded=0;whiteSpace=wrap;html=1;strokeColor=none;fillColor=#000000;fontColor=#ffffff;strokeWidth=0.1;fontSize=3;fontFamily=Teko Light;container=0;" parent="qDtawQAKe1lcSOI-oKHI-362" vertex="1">
          <mxGeometry x="385.8" y="10.22999999999999" width="5" height="4" as="geometry" />
        </mxCell>
        <mxCell id="qDtawQAKe1lcSOI-oKHI-208" value="" style="rounded=0;whiteSpace=wrap;html=1;strokeColor=none;fillColor=#60a917;fontColor=#ffffff;strokeWidth=0.1;fontSize=3;fontFamily=Teko Light;container=0;" parent="qDtawQAKe1lcSOI-oKHI-362" vertex="1">
          <mxGeometry x="382.3" y="10.72999999999999" width="3" height="2" as="geometry" />
        </mxCell>
        <mxCell id="qDtawQAKe1lcSOI-oKHI-209" value="" style="rounded=0;whiteSpace=wrap;html=1;strokeColor=none;fillColor=#e3c800;fontColor=#000000;strokeWidth=0.1;fontSize=3;fontFamily=Teko Light;container=0;" parent="qDtawQAKe1lcSOI-oKHI-362" vertex="1">
          <mxGeometry x="391.3" y="10.72999999999999" width="3" height="2" as="geometry" />
        </mxCell>
        <mxCell id="qDtawQAKe1lcSOI-oKHI-210" value="" style="rounded=0;whiteSpace=wrap;html=1;strokeColor=none;fillColor=#222222;fontColor=#ffffff;strokeWidth=0.1;fontSize=3;fontFamily=Teko Light;container=0;" parent="qDtawQAKe1lcSOI-oKHI-362" vertex="1">
          <mxGeometry x="369.29857142857145" y="9.227576744186052" width="12" height="5" as="geometry" />
        </mxCell>
        <mxCell id="qDtawQAKe1lcSOI-oKHI-211" value="" style="rounded=0;whiteSpace=wrap;html=1;strokeColor=none;fillColor=#000000;fontColor=#ffffff;strokeWidth=0.1;fontSize=3;fontFamily=Teko Light;container=0;" parent="qDtawQAKe1lcSOI-oKHI-362" vertex="1">
          <mxGeometry x="369.2971428571429" y="13.231074995060624" width="12" height="7" as="geometry" />
        </mxCell>
        <mxCell id="qDtawQAKe1lcSOI-oKHI-212" value="" style="rounded=0;whiteSpace=wrap;html=1;strokeColor=none;fillColor=#000000;fontColor=#ffffff;strokeWidth=0.1;fontSize=3;fontFamily=Teko Light;container=0;" parent="qDtawQAKe1lcSOI-oKHI-362" vertex="1">
          <mxGeometry x="372.8" y="10.22999999999999" width="5" height="4" as="geometry" />
        </mxCell>
        <mxCell id="qDtawQAKe1lcSOI-oKHI-213" value="" style="rounded=0;whiteSpace=wrap;html=1;strokeColor=none;fillColor=#60a917;fontColor=#ffffff;strokeWidth=0.1;fontSize=3;fontFamily=Teko Light;container=0;" parent="qDtawQAKe1lcSOI-oKHI-362" vertex="1">
          <mxGeometry x="369.3" y="10.72999999999999" width="3" height="2" as="geometry" />
        </mxCell>
        <mxCell id="qDtawQAKe1lcSOI-oKHI-214" value="" style="rounded=0;whiteSpace=wrap;html=1;strokeColor=none;fillColor=#e3c800;fontColor=#000000;strokeWidth=0.1;fontSize=3;fontFamily=Teko Light;container=0;" parent="qDtawQAKe1lcSOI-oKHI-362" vertex="1">
          <mxGeometry x="378.3" y="10.72999999999999" width="3" height="2" as="geometry" />
        </mxCell>
        <mxCell id="qDtawQAKe1lcSOI-oKHI-215" value="" style="rounded=0;whiteSpace=wrap;html=1;strokeColor=none;fillColor=#222222;fontColor=#ffffff;strokeWidth=0.1;fontSize=3;fontFamily=Teko Light;container=0;rotation=-180;" parent="qDtawQAKe1lcSOI-oKHI-362" vertex="1">
          <mxGeometry x="317.2971428571429" y="30.227576744186052" width="12" height="5" as="geometry" />
        </mxCell>
        <mxCell id="qDtawQAKe1lcSOI-oKHI-216" value="" style="rounded=0;whiteSpace=wrap;html=1;strokeColor=none;fillColor=#000000;fontColor=#ffffff;strokeWidth=0.1;fontSize=3;fontFamily=Teko Light;container=0;rotation=-180;" parent="qDtawQAKe1lcSOI-oKHI-362" vertex="1">
          <mxGeometry x="317.2971428571429" y="24.227576744186052" width="12" height="7" as="geometry" />
        </mxCell>
        <mxCell id="qDtawQAKe1lcSOI-oKHI-217" value="" style="rounded=0;whiteSpace=wrap;html=1;strokeColor=none;fillColor=#000000;fontColor=#ffffff;strokeWidth=0.1;fontSize=3;fontFamily=Teko Light;container=0;rotation=-180;" parent="qDtawQAKe1lcSOI-oKHI-362" vertex="1">
          <mxGeometry x="320.7971428571429" y="30.227576744186052" width="5" height="4" as="geometry" />
        </mxCell>
        <mxCell id="qDtawQAKe1lcSOI-oKHI-218" value="" style="rounded=0;whiteSpace=wrap;html=1;strokeColor=none;fillColor=#60a917;fontColor=#ffffff;strokeWidth=0.1;fontSize=3;fontFamily=Teko Light;container=0;rotation=-180;" parent="qDtawQAKe1lcSOI-oKHI-362" vertex="1">
          <mxGeometry x="326.2971428571429" y="32.22757674418605" width="3" height="2" as="geometry" />
        </mxCell>
        <mxCell id="qDtawQAKe1lcSOI-oKHI-219" value="" style="rounded=0;whiteSpace=wrap;html=1;strokeColor=none;fillColor=#e3c800;fontColor=#000000;strokeWidth=0.1;fontSize=3;fontFamily=Teko Light;container=0;rotation=-180;" parent="qDtawQAKe1lcSOI-oKHI-362" vertex="1">
          <mxGeometry x="317.2971428571429" y="32.22757674418605" width="3" height="2" as="geometry" />
        </mxCell>
        <mxCell id="qDtawQAKe1lcSOI-oKHI-220" value="" style="rounded=0;whiteSpace=wrap;html=1;strokeColor=none;fillColor=#222222;fontColor=#ffffff;strokeWidth=0.1;fontSize=3;fontFamily=Teko Light;container=0;rotation=-180;" parent="qDtawQAKe1lcSOI-oKHI-362" vertex="1">
          <mxGeometry x="330.3" y="30.22999999999999" width="12" height="5" as="geometry" />
        </mxCell>
        <mxCell id="qDtawQAKe1lcSOI-oKHI-221" value="" style="rounded=0;whiteSpace=wrap;html=1;strokeColor=none;fillColor=#000000;fontColor=#ffffff;strokeWidth=0.1;fontSize=3;fontFamily=Teko Light;container=0;rotation=-180;" parent="qDtawQAKe1lcSOI-oKHI-362" vertex="1">
          <mxGeometry x="330.3" y="24.22999999999999" width="12" height="7" as="geometry" />
        </mxCell>
        <mxCell id="qDtawQAKe1lcSOI-oKHI-222" value="" style="rounded=0;whiteSpace=wrap;html=1;strokeColor=none;fillColor=#000000;fontColor=#ffffff;strokeWidth=0.1;fontSize=3;fontFamily=Teko Light;container=0;rotation=-180;" parent="qDtawQAKe1lcSOI-oKHI-362" vertex="1">
          <mxGeometry x="333.8" y="30.22999999999999" width="5" height="4" as="geometry" />
        </mxCell>
        <mxCell id="qDtawQAKe1lcSOI-oKHI-223" value="" style="rounded=0;whiteSpace=wrap;html=1;strokeColor=none;fillColor=#60a917;fontColor=#ffffff;strokeWidth=0.1;fontSize=3;fontFamily=Teko Light;container=0;rotation=-180;" parent="qDtawQAKe1lcSOI-oKHI-362" vertex="1">
          <mxGeometry x="339.3" y="32.22999999999999" width="3" height="2" as="geometry" />
        </mxCell>
        <mxCell id="qDtawQAKe1lcSOI-oKHI-224" value="" style="rounded=0;whiteSpace=wrap;html=1;strokeColor=none;fillColor=#e3c800;fontColor=#000000;strokeWidth=0.1;fontSize=3;fontFamily=Teko Light;container=0;rotation=-180;" parent="qDtawQAKe1lcSOI-oKHI-362" vertex="1">
          <mxGeometry x="330.3" y="32.22999999999999" width="3" height="2" as="geometry" />
        </mxCell>
        <mxCell id="qDtawQAKe1lcSOI-oKHI-225" value="" style="rounded=0;whiteSpace=wrap;html=1;strokeColor=none;fillColor=#222222;fontColor=#ffffff;strokeWidth=0.1;fontSize=3;fontFamily=Teko Light;container=0;rotation=-180;" parent="qDtawQAKe1lcSOI-oKHI-362" vertex="1">
          <mxGeometry x="356.3" y="30.22999999999999" width="12" height="5" as="geometry" />
        </mxCell>
        <mxCell id="qDtawQAKe1lcSOI-oKHI-226" value="" style="rounded=0;whiteSpace=wrap;html=1;strokeColor=none;fillColor=#000000;fontColor=#ffffff;strokeWidth=0.1;fontSize=3;fontFamily=Teko Light;container=0;rotation=-180;" parent="qDtawQAKe1lcSOI-oKHI-362" vertex="1">
          <mxGeometry x="356.3" y="24.22999999999999" width="12" height="7" as="geometry" />
        </mxCell>
        <mxCell id="qDtawQAKe1lcSOI-oKHI-227" value="" style="rounded=0;whiteSpace=wrap;html=1;strokeColor=none;fillColor=#000000;fontColor=#ffffff;strokeWidth=0.1;fontSize=3;fontFamily=Teko Light;container=0;rotation=-180;" parent="qDtawQAKe1lcSOI-oKHI-362" vertex="1">
          <mxGeometry x="359.8" y="30.22999999999999" width="5" height="4" as="geometry" />
        </mxCell>
        <mxCell id="qDtawQAKe1lcSOI-oKHI-228" value="" style="rounded=0;whiteSpace=wrap;html=1;strokeColor=none;fillColor=#60a917;fontColor=#ffffff;strokeWidth=0.1;fontSize=3;fontFamily=Teko Light;container=0;rotation=-180;" parent="qDtawQAKe1lcSOI-oKHI-362" vertex="1">
          <mxGeometry x="365.3" y="32.22999999999999" width="3" height="2" as="geometry" />
        </mxCell>
        <mxCell id="qDtawQAKe1lcSOI-oKHI-229" value="" style="rounded=0;whiteSpace=wrap;html=1;strokeColor=none;fillColor=#e3c800;fontColor=#000000;strokeWidth=0.1;fontSize=3;fontFamily=Teko Light;container=0;rotation=-180;" parent="qDtawQAKe1lcSOI-oKHI-362" vertex="1">
          <mxGeometry x="356.3" y="32.22999999999999" width="3" height="2" as="geometry" />
        </mxCell>
        <mxCell id="qDtawQAKe1lcSOI-oKHI-230" value="" style="rounded=0;whiteSpace=wrap;html=1;strokeColor=none;fillColor=#222222;fontColor=#ffffff;strokeWidth=0.1;fontSize=3;fontFamily=Teko Light;container=0;rotation=-180;" parent="qDtawQAKe1lcSOI-oKHI-362" vertex="1">
          <mxGeometry x="382.2971428571429" y="30.22999999999999" width="12" height="5" as="geometry" />
        </mxCell>
        <mxCell id="qDtawQAKe1lcSOI-oKHI-231" value="" style="rounded=0;whiteSpace=wrap;html=1;strokeColor=none;fillColor=#000000;fontColor=#ffffff;strokeWidth=0.1;fontSize=3;fontFamily=Teko Light;container=0;rotation=-180;" parent="qDtawQAKe1lcSOI-oKHI-362" vertex="1">
          <mxGeometry x="382.2971428571429" y="24.22999999999999" width="12" height="7" as="geometry" />
        </mxCell>
        <mxCell id="qDtawQAKe1lcSOI-oKHI-232" value="" style="rounded=0;whiteSpace=wrap;html=1;strokeColor=none;fillColor=#000000;fontColor=#ffffff;strokeWidth=0.1;fontSize=3;fontFamily=Teko Light;container=0;rotation=-180;" parent="qDtawQAKe1lcSOI-oKHI-362" vertex="1">
          <mxGeometry x="385.7971428571429" y="30.22999999999999" width="5" height="4" as="geometry" />
        </mxCell>
        <mxCell id="qDtawQAKe1lcSOI-oKHI-233" value="" style="rounded=0;whiteSpace=wrap;html=1;strokeColor=none;fillColor=#60a917;fontColor=#ffffff;strokeWidth=0.1;fontSize=3;fontFamily=Teko Light;container=0;rotation=-180;" parent="qDtawQAKe1lcSOI-oKHI-362" vertex="1">
          <mxGeometry x="391.2971428571429" y="32.22999999999999" width="3" height="2" as="geometry" />
        </mxCell>
        <mxCell id="qDtawQAKe1lcSOI-oKHI-234" value="" style="rounded=0;whiteSpace=wrap;html=1;strokeColor=none;fillColor=#e3c800;fontColor=#000000;strokeWidth=0.1;fontSize=3;fontFamily=Teko Light;container=0;rotation=-180;" parent="qDtawQAKe1lcSOI-oKHI-362" vertex="1">
          <mxGeometry x="382.2971428571429" y="32.22999999999999" width="3" height="2" as="geometry" />
        </mxCell>
        <mxCell id="qDtawQAKe1lcSOI-oKHI-235" value="" style="rounded=0;whiteSpace=wrap;html=1;strokeColor=none;fillColor=#222222;fontColor=#ffffff;strokeWidth=0.1;fontSize=3;fontFamily=Teko Light;container=0;rotation=-180;" parent="qDtawQAKe1lcSOI-oKHI-362" vertex="1">
          <mxGeometry x="369.3" y="30.22999999999999" width="12" height="5" as="geometry" />
        </mxCell>
        <mxCell id="qDtawQAKe1lcSOI-oKHI-236" value="" style="rounded=0;whiteSpace=wrap;html=1;strokeColor=none;fillColor=#000000;fontColor=#ffffff;strokeWidth=0.1;fontSize=3;fontFamily=Teko Light;container=0;rotation=-180;" parent="qDtawQAKe1lcSOI-oKHI-362" vertex="1">
          <mxGeometry x="369.3" y="24.22999999999999" width="12" height="7" as="geometry" />
        </mxCell>
        <mxCell id="qDtawQAKe1lcSOI-oKHI-237" value="" style="rounded=0;whiteSpace=wrap;html=1;strokeColor=none;fillColor=#000000;fontColor=#ffffff;strokeWidth=0.1;fontSize=3;fontFamily=Teko Light;container=0;rotation=-180;" parent="qDtawQAKe1lcSOI-oKHI-362" vertex="1">
          <mxGeometry x="372.8" y="30.22999999999999" width="5" height="4" as="geometry" />
        </mxCell>
        <mxCell id="qDtawQAKe1lcSOI-oKHI-238" value="" style="rounded=0;whiteSpace=wrap;html=1;strokeColor=none;fillColor=#60a917;fontColor=#ffffff;strokeWidth=0.1;fontSize=3;fontFamily=Teko Light;container=0;rotation=-180;" parent="qDtawQAKe1lcSOI-oKHI-362" vertex="1">
          <mxGeometry x="378.3" y="32.22999999999999" width="3" height="2" as="geometry" />
        </mxCell>
        <mxCell id="qDtawQAKe1lcSOI-oKHI-239" value="" style="rounded=0;whiteSpace=wrap;html=1;strokeColor=none;fillColor=#e3c800;fontColor=#000000;strokeWidth=0.1;fontSize=3;fontFamily=Teko Light;container=0;rotation=-180;" parent="qDtawQAKe1lcSOI-oKHI-362" vertex="1">
          <mxGeometry x="369.3" y="32.22999999999999" width="3" height="2" as="geometry" />
        </mxCell>
        <mxCell id="qDtawQAKe1lcSOI-oKHI-240" value="" style="rounded=0;whiteSpace=wrap;html=1;strokeColor=#000000;fillColor=#BFBFBF;fontColor=#ffffff;strokeWidth=0.1;fontSize=3;fontFamily=Teko Light;align=center;verticalAlign=middle;container=0;" parent="qDtawQAKe1lcSOI-oKHI-362" vertex="1">
          <mxGeometry x="153.3" y="8.22999999999999" width="81" height="28" as="geometry" />
        </mxCell>
        <mxCell id="qDtawQAKe1lcSOI-oKHI-241" value="" style="rounded=0;whiteSpace=wrap;html=1;strokeColor=none;fillColor=#222222;fontColor=#ffffff;strokeWidth=0.1;fontSize=3;fontFamily=Teko Light;container=0;rotation=-180;" parent="qDtawQAKe1lcSOI-oKHI-362" vertex="1">
          <mxGeometry x="181.3" y="30.22999999999999" width="12" height="5" as="geometry" />
        </mxCell>
        <mxCell id="qDtawQAKe1lcSOI-oKHI-242" value="" style="rounded=0;whiteSpace=wrap;html=1;strokeColor=none;fillColor=#000000;fontColor=#ffffff;strokeWidth=0.1;fontSize=3;fontFamily=Teko Light;container=0;rotation=-180;" parent="qDtawQAKe1lcSOI-oKHI-362" vertex="1">
          <mxGeometry x="181.3" y="24.22999999999999" width="12" height="7" as="geometry" />
        </mxCell>
        <mxCell id="qDtawQAKe1lcSOI-oKHI-243" value="" style="rounded=0;whiteSpace=wrap;html=1;strokeColor=none;fillColor=#000000;fontColor=#ffffff;strokeWidth=0.1;fontSize=3;fontFamily=Teko Light;container=0;rotation=-180;" parent="qDtawQAKe1lcSOI-oKHI-362" vertex="1">
          <mxGeometry x="184.8" y="30.22999999999999" width="5" height="4" as="geometry" />
        </mxCell>
        <mxCell id="qDtawQAKe1lcSOI-oKHI-244" value="" style="rounded=0;whiteSpace=wrap;html=1;strokeColor=none;fillColor=#60a917;fontColor=#ffffff;strokeWidth=0.1;fontSize=3;fontFamily=Teko Light;container=0;rotation=-180;" parent="qDtawQAKe1lcSOI-oKHI-362" vertex="1">
          <mxGeometry x="190.3" y="32.22999999999999" width="3" height="2" as="geometry" />
        </mxCell>
        <mxCell id="qDtawQAKe1lcSOI-oKHI-245" value="" style="rounded=0;whiteSpace=wrap;html=1;strokeColor=none;fillColor=#e3c800;fontColor=#000000;strokeWidth=0.1;fontSize=3;fontFamily=Teko Light;container=0;rotation=-180;" parent="qDtawQAKe1lcSOI-oKHI-362" vertex="1">
          <mxGeometry x="181.3" y="32.22999999999999" width="3" height="2" as="geometry" />
        </mxCell>
        <mxCell id="qDtawQAKe1lcSOI-oKHI-246" value="" style="rounded=0;whiteSpace=wrap;html=1;strokeColor=none;fillColor=#222222;fontColor=#ffffff;strokeWidth=0.1;fontSize=3;fontFamily=Teko Light;container=0;" parent="qDtawQAKe1lcSOI-oKHI-362" vertex="1">
          <mxGeometry x="155.29857142857145" y="9.227576744186052" width="12" height="5" as="geometry" />
        </mxCell>
        <mxCell id="qDtawQAKe1lcSOI-oKHI-247" value="" style="rounded=0;whiteSpace=wrap;html=1;strokeColor=none;fillColor=#000000;fontColor=#ffffff;strokeWidth=0.1;fontSize=3;fontFamily=Teko Light;container=0;" parent="qDtawQAKe1lcSOI-oKHI-362" vertex="1">
          <mxGeometry x="155.2971428571429" y="13.231074995060624" width="12" height="7" as="geometry" />
        </mxCell>
        <mxCell id="qDtawQAKe1lcSOI-oKHI-248" value="" style="rounded=0;whiteSpace=wrap;html=1;strokeColor=none;fillColor=#000000;fontColor=#ffffff;strokeWidth=0.1;fontSize=3;fontFamily=Teko Light;container=0;" parent="qDtawQAKe1lcSOI-oKHI-362" vertex="1">
          <mxGeometry x="158.8" y="10.22999999999999" width="5" height="4" as="geometry" />
        </mxCell>
        <mxCell id="qDtawQAKe1lcSOI-oKHI-249" value="" style="rounded=0;whiteSpace=wrap;html=1;strokeColor=none;fillColor=#60a917;fontColor=#ffffff;strokeWidth=0.1;fontSize=3;fontFamily=Teko Light;container=0;" parent="qDtawQAKe1lcSOI-oKHI-362" vertex="1">
          <mxGeometry x="155.3" y="10.72999999999999" width="3" height="2" as="geometry" />
        </mxCell>
        <mxCell id="qDtawQAKe1lcSOI-oKHI-250" value="" style="rounded=0;whiteSpace=wrap;html=1;strokeColor=none;fillColor=#e3c800;fontColor=#000000;strokeWidth=0.1;fontSize=3;fontFamily=Teko Light;container=0;" parent="qDtawQAKe1lcSOI-oKHI-362" vertex="1">
          <mxGeometry x="164.3" y="10.72999999999999" width="3" height="2" as="geometry" />
        </mxCell>
        <mxCell id="qDtawQAKe1lcSOI-oKHI-251" value="" style="rounded=0;whiteSpace=wrap;html=1;strokeColor=none;fillColor=#222222;fontColor=#ffffff;strokeWidth=0.1;fontSize=3;fontFamily=Teko Light;container=0;" parent="qDtawQAKe1lcSOI-oKHI-362" vertex="1">
          <mxGeometry x="168.29857142857145" y="9.227576744186052" width="12" height="5" as="geometry" />
        </mxCell>
        <mxCell id="qDtawQAKe1lcSOI-oKHI-252" value="" style="rounded=0;whiteSpace=wrap;html=1;strokeColor=none;fillColor=#000000;fontColor=#ffffff;strokeWidth=0.1;fontSize=3;fontFamily=Teko Light;container=0;" parent="qDtawQAKe1lcSOI-oKHI-362" vertex="1">
          <mxGeometry x="168.2971428571429" y="13.231074995060624" width="12" height="7" as="geometry" />
        </mxCell>
        <mxCell id="qDtawQAKe1lcSOI-oKHI-253" value="" style="rounded=0;whiteSpace=wrap;html=1;strokeColor=none;fillColor=#000000;fontColor=#ffffff;strokeWidth=0.1;fontSize=3;fontFamily=Teko Light;container=0;" parent="qDtawQAKe1lcSOI-oKHI-362" vertex="1">
          <mxGeometry x="171.8" y="10.22999999999999" width="5" height="4" as="geometry" />
        </mxCell>
        <mxCell id="qDtawQAKe1lcSOI-oKHI-254" value="" style="rounded=0;whiteSpace=wrap;html=1;strokeColor=none;fillColor=#60a917;fontColor=#ffffff;strokeWidth=0.1;fontSize=3;fontFamily=Teko Light;container=0;" parent="qDtawQAKe1lcSOI-oKHI-362" vertex="1">
          <mxGeometry x="168.3" y="10.72999999999999" width="3" height="2" as="geometry" />
        </mxCell>
        <mxCell id="qDtawQAKe1lcSOI-oKHI-255" value="" style="rounded=0;whiteSpace=wrap;html=1;strokeColor=none;fillColor=#e3c800;fontColor=#000000;strokeWidth=0.1;fontSize=3;fontFamily=Teko Light;container=0;" parent="qDtawQAKe1lcSOI-oKHI-362" vertex="1">
          <mxGeometry x="177.3" y="10.72999999999999" width="3" height="2" as="geometry" />
        </mxCell>
        <mxCell id="qDtawQAKe1lcSOI-oKHI-256" value="" style="rounded=0;whiteSpace=wrap;html=1;strokeColor=none;fillColor=#222222;fontColor=#ffffff;strokeWidth=0.1;fontSize=3;fontFamily=Teko Light;container=0;" parent="qDtawQAKe1lcSOI-oKHI-362" vertex="1">
          <mxGeometry x="181.29857142857145" y="9.227576744186052" width="12" height="5" as="geometry" />
        </mxCell>
        <mxCell id="qDtawQAKe1lcSOI-oKHI-257" value="" style="rounded=0;whiteSpace=wrap;html=1;strokeColor=none;fillColor=#000000;fontColor=#ffffff;strokeWidth=0.1;fontSize=3;fontFamily=Teko Light;container=0;" parent="qDtawQAKe1lcSOI-oKHI-362" vertex="1">
          <mxGeometry x="181.2971428571429" y="13.231074995060624" width="12" height="7" as="geometry" />
        </mxCell>
        <mxCell id="qDtawQAKe1lcSOI-oKHI-258" value="" style="rounded=0;whiteSpace=wrap;html=1;strokeColor=none;fillColor=#000000;fontColor=#ffffff;strokeWidth=0.1;fontSize=3;fontFamily=Teko Light;container=0;" parent="qDtawQAKe1lcSOI-oKHI-362" vertex="1">
          <mxGeometry x="184.8" y="10.22999999999999" width="5" height="4" as="geometry" />
        </mxCell>
        <mxCell id="qDtawQAKe1lcSOI-oKHI-259" value="" style="rounded=0;whiteSpace=wrap;html=1;strokeColor=none;fillColor=#60a917;fontColor=#ffffff;strokeWidth=0.1;fontSize=3;fontFamily=Teko Light;container=0;" parent="qDtawQAKe1lcSOI-oKHI-362" vertex="1">
          <mxGeometry x="181.3" y="10.72999999999999" width="3" height="2" as="geometry" />
        </mxCell>
        <mxCell id="qDtawQAKe1lcSOI-oKHI-260" value="" style="rounded=0;whiteSpace=wrap;html=1;strokeColor=none;fillColor=#e3c800;fontColor=#000000;strokeWidth=0.1;fontSize=3;fontFamily=Teko Light;container=0;" parent="qDtawQAKe1lcSOI-oKHI-362" vertex="1">
          <mxGeometry x="190.3" y="10.72999999999999" width="3" height="2" as="geometry" />
        </mxCell>
        <mxCell id="qDtawQAKe1lcSOI-oKHI-261" value="" style="rounded=0;whiteSpace=wrap;html=1;strokeColor=none;fillColor=#222222;fontColor=#ffffff;strokeWidth=0.1;fontSize=3;fontFamily=Teko Light;container=0;" parent="qDtawQAKe1lcSOI-oKHI-362" vertex="1">
          <mxGeometry x="194.29857142857145" y="9.227576744186052" width="12" height="5" as="geometry" />
        </mxCell>
        <mxCell id="qDtawQAKe1lcSOI-oKHI-262" value="" style="rounded=0;whiteSpace=wrap;html=1;strokeColor=none;fillColor=#000000;fontColor=#ffffff;strokeWidth=0.1;fontSize=3;fontFamily=Teko Light;container=0;" parent="qDtawQAKe1lcSOI-oKHI-362" vertex="1">
          <mxGeometry x="194.2971428571429" y="13.231074995060624" width="12" height="7" as="geometry" />
        </mxCell>
        <mxCell id="qDtawQAKe1lcSOI-oKHI-263" value="" style="rounded=0;whiteSpace=wrap;html=1;strokeColor=none;fillColor=#000000;fontColor=#ffffff;strokeWidth=0.1;fontSize=3;fontFamily=Teko Light;container=0;" parent="qDtawQAKe1lcSOI-oKHI-362" vertex="1">
          <mxGeometry x="197.8" y="10.22999999999999" width="5" height="4" as="geometry" />
        </mxCell>
        <mxCell id="qDtawQAKe1lcSOI-oKHI-264" value="" style="rounded=0;whiteSpace=wrap;html=1;strokeColor=none;fillColor=#60a917;fontColor=#ffffff;strokeWidth=0.1;fontSize=3;fontFamily=Teko Light;container=0;" parent="qDtawQAKe1lcSOI-oKHI-362" vertex="1">
          <mxGeometry x="194.3" y="10.72999999999999" width="3" height="2" as="geometry" />
        </mxCell>
        <mxCell id="qDtawQAKe1lcSOI-oKHI-265" value="" style="rounded=0;whiteSpace=wrap;html=1;strokeColor=none;fillColor=#e3c800;fontColor=#000000;strokeWidth=0.1;fontSize=3;fontFamily=Teko Light;container=0;" parent="qDtawQAKe1lcSOI-oKHI-362" vertex="1">
          <mxGeometry x="203.3" y="10.72999999999999" width="3" height="2" as="geometry" />
        </mxCell>
        <mxCell id="qDtawQAKe1lcSOI-oKHI-266" value="" style="rounded=0;whiteSpace=wrap;html=1;strokeColor=none;fillColor=#222222;fontColor=#ffffff;strokeWidth=0.1;fontSize=3;fontFamily=Teko Light;container=0;" parent="qDtawQAKe1lcSOI-oKHI-362" vertex="1">
          <mxGeometry x="220.29857142857145" y="9.227576744186052" width="12" height="5" as="geometry" />
        </mxCell>
        <mxCell id="qDtawQAKe1lcSOI-oKHI-267" value="" style="rounded=0;whiteSpace=wrap;html=1;strokeColor=none;fillColor=#000000;fontColor=#ffffff;strokeWidth=0.1;fontSize=3;fontFamily=Teko Light;container=0;" parent="qDtawQAKe1lcSOI-oKHI-362" vertex="1">
          <mxGeometry x="220.2971428571429" y="13.231074995060624" width="12" height="7" as="geometry" />
        </mxCell>
        <mxCell id="qDtawQAKe1lcSOI-oKHI-268" value="" style="rounded=0;whiteSpace=wrap;html=1;strokeColor=none;fillColor=#000000;fontColor=#ffffff;strokeWidth=0.1;fontSize=3;fontFamily=Teko Light;container=0;" parent="qDtawQAKe1lcSOI-oKHI-362" vertex="1">
          <mxGeometry x="223.8" y="10.22999999999999" width="5" height="4" as="geometry" />
        </mxCell>
        <mxCell id="qDtawQAKe1lcSOI-oKHI-269" value="" style="rounded=0;whiteSpace=wrap;html=1;strokeColor=none;fillColor=#60a917;fontColor=#ffffff;strokeWidth=0.1;fontSize=3;fontFamily=Teko Light;container=0;" parent="qDtawQAKe1lcSOI-oKHI-362" vertex="1">
          <mxGeometry x="220.3" y="10.72999999999999" width="3" height="2" as="geometry" />
        </mxCell>
        <mxCell id="qDtawQAKe1lcSOI-oKHI-270" value="" style="rounded=0;whiteSpace=wrap;html=1;strokeColor=none;fillColor=#e3c800;fontColor=#000000;strokeWidth=0.1;fontSize=3;fontFamily=Teko Light;container=0;" parent="qDtawQAKe1lcSOI-oKHI-362" vertex="1">
          <mxGeometry x="229.3" y="10.72999999999999" width="3" height="2" as="geometry" />
        </mxCell>
        <mxCell id="qDtawQAKe1lcSOI-oKHI-271" value="" style="rounded=0;whiteSpace=wrap;html=1;strokeColor=none;fillColor=#222222;fontColor=#ffffff;strokeWidth=0.1;fontSize=3;fontFamily=Teko Light;container=0;" parent="qDtawQAKe1lcSOI-oKHI-362" vertex="1">
          <mxGeometry x="207.29857142857145" y="9.227576744186052" width="12" height="5" as="geometry" />
        </mxCell>
        <mxCell id="qDtawQAKe1lcSOI-oKHI-272" value="" style="rounded=0;whiteSpace=wrap;html=1;strokeColor=none;fillColor=#000000;fontColor=#ffffff;strokeWidth=0.1;fontSize=3;fontFamily=Teko Light;container=0;" parent="qDtawQAKe1lcSOI-oKHI-362" vertex="1">
          <mxGeometry x="207.2971428571429" y="13.231074995060624" width="12" height="7" as="geometry" />
        </mxCell>
        <mxCell id="qDtawQAKe1lcSOI-oKHI-273" value="" style="rounded=0;whiteSpace=wrap;html=1;strokeColor=none;fillColor=#000000;fontColor=#ffffff;strokeWidth=0.1;fontSize=3;fontFamily=Teko Light;container=0;" parent="qDtawQAKe1lcSOI-oKHI-362" vertex="1">
          <mxGeometry x="210.8" y="10.22999999999999" width="5" height="4" as="geometry" />
        </mxCell>
        <mxCell id="qDtawQAKe1lcSOI-oKHI-274" value="" style="rounded=0;whiteSpace=wrap;html=1;strokeColor=none;fillColor=#60a917;fontColor=#ffffff;strokeWidth=0.1;fontSize=3;fontFamily=Teko Light;container=0;" parent="qDtawQAKe1lcSOI-oKHI-362" vertex="1">
          <mxGeometry x="207.3" y="10.72999999999999" width="3" height="2" as="geometry" />
        </mxCell>
        <mxCell id="qDtawQAKe1lcSOI-oKHI-275" value="" style="rounded=0;whiteSpace=wrap;html=1;strokeColor=none;fillColor=#e3c800;fontColor=#000000;strokeWidth=0.1;fontSize=3;fontFamily=Teko Light;container=0;" parent="qDtawQAKe1lcSOI-oKHI-362" vertex="1">
          <mxGeometry x="216.3" y="10.72999999999999" width="3" height="2" as="geometry" />
        </mxCell>
        <mxCell id="qDtawQAKe1lcSOI-oKHI-276" value="" style="rounded=0;whiteSpace=wrap;html=1;strokeColor=none;fillColor=#222222;fontColor=#ffffff;strokeWidth=0.1;fontSize=3;fontFamily=Teko Light;container=0;rotation=-180;" parent="qDtawQAKe1lcSOI-oKHI-362" vertex="1">
          <mxGeometry x="155.2971428571429" y="30.227576744186052" width="12" height="5" as="geometry" />
        </mxCell>
        <mxCell id="qDtawQAKe1lcSOI-oKHI-277" value="" style="rounded=0;whiteSpace=wrap;html=1;strokeColor=none;fillColor=#000000;fontColor=#ffffff;strokeWidth=0.1;fontSize=3;fontFamily=Teko Light;container=0;rotation=-180;" parent="qDtawQAKe1lcSOI-oKHI-362" vertex="1">
          <mxGeometry x="155.2971428571429" y="24.227576744186052" width="12" height="7" as="geometry" />
        </mxCell>
        <mxCell id="qDtawQAKe1lcSOI-oKHI-278" value="" style="rounded=0;whiteSpace=wrap;html=1;strokeColor=none;fillColor=#000000;fontColor=#ffffff;strokeWidth=0.1;fontSize=3;fontFamily=Teko Light;container=0;rotation=-180;" parent="qDtawQAKe1lcSOI-oKHI-362" vertex="1">
          <mxGeometry x="158.7971428571429" y="30.227576744186052" width="5" height="4" as="geometry" />
        </mxCell>
        <mxCell id="qDtawQAKe1lcSOI-oKHI-279" value="" style="rounded=0;whiteSpace=wrap;html=1;strokeColor=none;fillColor=#60a917;fontColor=#ffffff;strokeWidth=0.1;fontSize=3;fontFamily=Teko Light;container=0;rotation=-180;" parent="qDtawQAKe1lcSOI-oKHI-362" vertex="1">
          <mxGeometry x="164.2971428571429" y="32.22757674418605" width="3" height="2" as="geometry" />
        </mxCell>
        <mxCell id="qDtawQAKe1lcSOI-oKHI-280" value="" style="rounded=0;whiteSpace=wrap;html=1;strokeColor=none;fillColor=#e3c800;fontColor=#000000;strokeWidth=0.1;fontSize=3;fontFamily=Teko Light;container=0;rotation=-180;" parent="qDtawQAKe1lcSOI-oKHI-362" vertex="1">
          <mxGeometry x="155.2971428571429" y="32.22757674418605" width="3" height="2" as="geometry" />
        </mxCell>
        <mxCell id="qDtawQAKe1lcSOI-oKHI-281" value="" style="rounded=0;whiteSpace=wrap;html=1;strokeColor=none;fillColor=#222222;fontColor=#ffffff;strokeWidth=0.1;fontSize=3;fontFamily=Teko Light;container=0;rotation=-180;" parent="qDtawQAKe1lcSOI-oKHI-362" vertex="1">
          <mxGeometry x="168.3" y="30.22999999999999" width="12" height="5" as="geometry" />
        </mxCell>
        <mxCell id="qDtawQAKe1lcSOI-oKHI-282" value="" style="rounded=0;whiteSpace=wrap;html=1;strokeColor=none;fillColor=#000000;fontColor=#ffffff;strokeWidth=0.1;fontSize=3;fontFamily=Teko Light;container=0;rotation=-180;" parent="qDtawQAKe1lcSOI-oKHI-362" vertex="1">
          <mxGeometry x="168.3" y="24.22999999999999" width="12" height="7" as="geometry" />
        </mxCell>
        <mxCell id="qDtawQAKe1lcSOI-oKHI-283" value="" style="rounded=0;whiteSpace=wrap;html=1;strokeColor=none;fillColor=#000000;fontColor=#ffffff;strokeWidth=0.1;fontSize=3;fontFamily=Teko Light;container=0;rotation=-180;" parent="qDtawQAKe1lcSOI-oKHI-362" vertex="1">
          <mxGeometry x="171.8" y="30.22999999999999" width="5" height="4" as="geometry" />
        </mxCell>
        <mxCell id="qDtawQAKe1lcSOI-oKHI-284" value="" style="rounded=0;whiteSpace=wrap;html=1;strokeColor=none;fillColor=#60a917;fontColor=#ffffff;strokeWidth=0.1;fontSize=3;fontFamily=Teko Light;container=0;rotation=-180;" parent="qDtawQAKe1lcSOI-oKHI-362" vertex="1">
          <mxGeometry x="177.3" y="32.22999999999999" width="3" height="2" as="geometry" />
        </mxCell>
        <mxCell id="qDtawQAKe1lcSOI-oKHI-285" value="" style="rounded=0;whiteSpace=wrap;html=1;strokeColor=none;fillColor=#e3c800;fontColor=#000000;strokeWidth=0.1;fontSize=3;fontFamily=Teko Light;container=0;rotation=-180;" parent="qDtawQAKe1lcSOI-oKHI-362" vertex="1">
          <mxGeometry x="168.3" y="32.22999999999999" width="3" height="2" as="geometry" />
        </mxCell>
        <mxCell id="qDtawQAKe1lcSOI-oKHI-286" value="" style="rounded=0;whiteSpace=wrap;html=1;strokeColor=none;fillColor=#222222;fontColor=#ffffff;strokeWidth=0.1;fontSize=3;fontFamily=Teko Light;container=0;rotation=-180;" parent="qDtawQAKe1lcSOI-oKHI-362" vertex="1">
          <mxGeometry x="194.3" y="30.22999999999999" width="12" height="5" as="geometry" />
        </mxCell>
        <mxCell id="qDtawQAKe1lcSOI-oKHI-287" value="" style="rounded=0;whiteSpace=wrap;html=1;strokeColor=none;fillColor=#000000;fontColor=#ffffff;strokeWidth=0.1;fontSize=3;fontFamily=Teko Light;container=0;rotation=-180;" parent="qDtawQAKe1lcSOI-oKHI-362" vertex="1">
          <mxGeometry x="194.3" y="24.22999999999999" width="12" height="7" as="geometry" />
        </mxCell>
        <mxCell id="qDtawQAKe1lcSOI-oKHI-288" value="" style="rounded=0;whiteSpace=wrap;html=1;strokeColor=none;fillColor=#000000;fontColor=#ffffff;strokeWidth=0.1;fontSize=3;fontFamily=Teko Light;container=0;rotation=-180;" parent="qDtawQAKe1lcSOI-oKHI-362" vertex="1">
          <mxGeometry x="197.8" y="30.22999999999999" width="5" height="4" as="geometry" />
        </mxCell>
        <mxCell id="qDtawQAKe1lcSOI-oKHI-289" value="" style="rounded=0;whiteSpace=wrap;html=1;strokeColor=none;fillColor=#60a917;fontColor=#ffffff;strokeWidth=0.1;fontSize=3;fontFamily=Teko Light;container=0;rotation=-180;" parent="qDtawQAKe1lcSOI-oKHI-362" vertex="1">
          <mxGeometry x="203.3" y="32.22999999999999" width="3" height="2" as="geometry" />
        </mxCell>
        <mxCell id="qDtawQAKe1lcSOI-oKHI-290" value="" style="rounded=0;whiteSpace=wrap;html=1;strokeColor=none;fillColor=#e3c800;fontColor=#000000;strokeWidth=0.1;fontSize=3;fontFamily=Teko Light;container=0;rotation=-180;" parent="qDtawQAKe1lcSOI-oKHI-362" vertex="1">
          <mxGeometry x="194.3" y="32.22999999999999" width="3" height="2" as="geometry" />
        </mxCell>
        <mxCell id="qDtawQAKe1lcSOI-oKHI-291" value="" style="rounded=0;whiteSpace=wrap;html=1;strokeColor=none;fillColor=#222222;fontColor=#ffffff;strokeWidth=0.1;fontSize=3;fontFamily=Teko Light;container=0;rotation=-180;" parent="qDtawQAKe1lcSOI-oKHI-362" vertex="1">
          <mxGeometry x="220.2971428571429" y="30.22999999999999" width="12" height="5" as="geometry" />
        </mxCell>
        <mxCell id="qDtawQAKe1lcSOI-oKHI-292" value="" style="rounded=0;whiteSpace=wrap;html=1;strokeColor=none;fillColor=#000000;fontColor=#ffffff;strokeWidth=0.1;fontSize=3;fontFamily=Teko Light;container=0;rotation=-180;" parent="qDtawQAKe1lcSOI-oKHI-362" vertex="1">
          <mxGeometry x="220.2971428571429" y="24.22999999999999" width="12" height="7" as="geometry" />
        </mxCell>
        <mxCell id="qDtawQAKe1lcSOI-oKHI-293" value="" style="rounded=0;whiteSpace=wrap;html=1;strokeColor=none;fillColor=#000000;fontColor=#ffffff;strokeWidth=0.1;fontSize=3;fontFamily=Teko Light;container=0;rotation=-180;" parent="qDtawQAKe1lcSOI-oKHI-362" vertex="1">
          <mxGeometry x="223.7971428571429" y="30.22999999999999" width="5" height="4" as="geometry" />
        </mxCell>
        <mxCell id="qDtawQAKe1lcSOI-oKHI-294" value="" style="rounded=0;whiteSpace=wrap;html=1;strokeColor=none;fillColor=#60a917;fontColor=#ffffff;strokeWidth=0.1;fontSize=3;fontFamily=Teko Light;container=0;rotation=-180;" parent="qDtawQAKe1lcSOI-oKHI-362" vertex="1">
          <mxGeometry x="229.2971428571429" y="32.22999999999999" width="3" height="2" as="geometry" />
        </mxCell>
        <mxCell id="qDtawQAKe1lcSOI-oKHI-295" value="" style="rounded=0;whiteSpace=wrap;html=1;strokeColor=none;fillColor=#e3c800;fontColor=#000000;strokeWidth=0.1;fontSize=3;fontFamily=Teko Light;container=0;rotation=-180;" parent="qDtawQAKe1lcSOI-oKHI-362" vertex="1">
          <mxGeometry x="220.2971428571429" y="32.22999999999999" width="3" height="2" as="geometry" />
        </mxCell>
        <mxCell id="qDtawQAKe1lcSOI-oKHI-296" value="" style="rounded=0;whiteSpace=wrap;html=1;strokeColor=none;fillColor=#222222;fontColor=#ffffff;strokeWidth=0.1;fontSize=3;fontFamily=Teko Light;container=0;rotation=-180;" parent="qDtawQAKe1lcSOI-oKHI-362" vertex="1">
          <mxGeometry x="207.3" y="30.22999999999999" width="12" height="5" as="geometry" />
        </mxCell>
        <mxCell id="qDtawQAKe1lcSOI-oKHI-297" value="" style="rounded=0;whiteSpace=wrap;html=1;strokeColor=none;fillColor=#000000;fontColor=#ffffff;strokeWidth=0.1;fontSize=3;fontFamily=Teko Light;container=0;rotation=-180;" parent="qDtawQAKe1lcSOI-oKHI-362" vertex="1">
          <mxGeometry x="207.3" y="24.22999999999999" width="12" height="7" as="geometry" />
        </mxCell>
        <mxCell id="qDtawQAKe1lcSOI-oKHI-298" value="" style="rounded=0;whiteSpace=wrap;html=1;strokeColor=none;fillColor=#000000;fontColor=#ffffff;strokeWidth=0.1;fontSize=3;fontFamily=Teko Light;container=0;rotation=-180;" parent="qDtawQAKe1lcSOI-oKHI-362" vertex="1">
          <mxGeometry x="210.8" y="30.22999999999999" width="5" height="4" as="geometry" />
        </mxCell>
        <mxCell id="qDtawQAKe1lcSOI-oKHI-299" value="" style="rounded=0;whiteSpace=wrap;html=1;strokeColor=none;fillColor=#60a917;fontColor=#ffffff;strokeWidth=0.1;fontSize=3;fontFamily=Teko Light;container=0;rotation=-180;" parent="qDtawQAKe1lcSOI-oKHI-362" vertex="1">
          <mxGeometry x="216.3" y="32.22999999999999" width="3" height="2" as="geometry" />
        </mxCell>
        <mxCell id="qDtawQAKe1lcSOI-oKHI-300" value="" style="rounded=0;whiteSpace=wrap;html=1;strokeColor=none;fillColor=#e3c800;fontColor=#000000;strokeWidth=0.1;fontSize=3;fontFamily=Teko Light;container=0;rotation=-180;" parent="qDtawQAKe1lcSOI-oKHI-362" vertex="1">
          <mxGeometry x="207.3" y="32.22999999999999" width="3" height="2" as="geometry" />
        </mxCell>
        <mxCell id="qDtawQAKe1lcSOI-oKHI-301" value="" style="rounded=0;whiteSpace=wrap;html=1;strokeColor=#000000;fillColor=#BFBFBF;fontColor=#ffffff;strokeWidth=0.1;fontSize=3;fontFamily=Teko Light;align=center;verticalAlign=middle;container=0;" parent="qDtawQAKe1lcSOI-oKHI-362" vertex="1">
          <mxGeometry x="72.3" y="8.22999999999999" width="81" height="28" as="geometry" />
        </mxCell>
        <mxCell id="qDtawQAKe1lcSOI-oKHI-302" value="" style="rounded=0;whiteSpace=wrap;html=1;strokeColor=none;fillColor=#222222;fontColor=#ffffff;strokeWidth=0.1;fontSize=3;fontFamily=Teko Light;container=0;rotation=-180;" parent="qDtawQAKe1lcSOI-oKHI-362" vertex="1">
          <mxGeometry x="100.3" y="30.22999999999999" width="12" height="5" as="geometry" />
        </mxCell>
        <mxCell id="qDtawQAKe1lcSOI-oKHI-303" value="" style="rounded=0;whiteSpace=wrap;html=1;strokeColor=none;fillColor=#000000;fontColor=#ffffff;strokeWidth=0.1;fontSize=3;fontFamily=Teko Light;container=0;rotation=-180;" parent="qDtawQAKe1lcSOI-oKHI-362" vertex="1">
          <mxGeometry x="100.3" y="24.22999999999999" width="12" height="7" as="geometry" />
        </mxCell>
        <mxCell id="qDtawQAKe1lcSOI-oKHI-304" value="" style="rounded=0;whiteSpace=wrap;html=1;strokeColor=none;fillColor=#000000;fontColor=#ffffff;strokeWidth=0.1;fontSize=3;fontFamily=Teko Light;container=0;rotation=-180;" parent="qDtawQAKe1lcSOI-oKHI-362" vertex="1">
          <mxGeometry x="103.8" y="30.22999999999999" width="5" height="4" as="geometry" />
        </mxCell>
        <mxCell id="qDtawQAKe1lcSOI-oKHI-305" value="" style="rounded=0;whiteSpace=wrap;html=1;strokeColor=none;fillColor=#60a917;fontColor=#ffffff;strokeWidth=0.1;fontSize=3;fontFamily=Teko Light;container=0;rotation=-180;" parent="qDtawQAKe1lcSOI-oKHI-362" vertex="1">
          <mxGeometry x="109.3" y="32.22999999999999" width="3" height="2" as="geometry" />
        </mxCell>
        <mxCell id="qDtawQAKe1lcSOI-oKHI-306" value="" style="rounded=0;whiteSpace=wrap;html=1;strokeColor=none;fillColor=#e3c800;fontColor=#000000;strokeWidth=0.1;fontSize=3;fontFamily=Teko Light;container=0;rotation=-180;" parent="qDtawQAKe1lcSOI-oKHI-362" vertex="1">
          <mxGeometry x="100.3" y="32.22999999999999" width="3" height="2" as="geometry" />
        </mxCell>
        <mxCell id="qDtawQAKe1lcSOI-oKHI-307" value="" style="rounded=0;whiteSpace=wrap;html=1;strokeColor=none;fillColor=#222222;fontColor=#ffffff;strokeWidth=0.1;fontSize=3;fontFamily=Teko Light;container=0;" parent="qDtawQAKe1lcSOI-oKHI-362" vertex="1">
          <mxGeometry x="74.29857142857144" y="9.227576744186052" width="12" height="5" as="geometry" />
        </mxCell>
        <mxCell id="qDtawQAKe1lcSOI-oKHI-308" value="" style="rounded=0;whiteSpace=wrap;html=1;strokeColor=none;fillColor=#000000;fontColor=#ffffff;strokeWidth=0.1;fontSize=3;fontFamily=Teko Light;container=0;" parent="qDtawQAKe1lcSOI-oKHI-362" vertex="1">
          <mxGeometry x="74.29714285714287" y="13.231074995060624" width="12" height="7" as="geometry" />
        </mxCell>
        <mxCell id="qDtawQAKe1lcSOI-oKHI-309" value="" style="rounded=0;whiteSpace=wrap;html=1;strokeColor=none;fillColor=#000000;fontColor=#ffffff;strokeWidth=0.1;fontSize=3;fontFamily=Teko Light;container=0;" parent="qDtawQAKe1lcSOI-oKHI-362" vertex="1">
          <mxGeometry x="77.8" y="10.22999999999999" width="5" height="4" as="geometry" />
        </mxCell>
        <mxCell id="qDtawQAKe1lcSOI-oKHI-310" value="" style="rounded=0;whiteSpace=wrap;html=1;strokeColor=none;fillColor=#60a917;fontColor=#ffffff;strokeWidth=0.1;fontSize=3;fontFamily=Teko Light;container=0;" parent="qDtawQAKe1lcSOI-oKHI-362" vertex="1">
          <mxGeometry x="74.3" y="10.72999999999999" width="3" height="2" as="geometry" />
        </mxCell>
        <mxCell id="qDtawQAKe1lcSOI-oKHI-311" value="" style="rounded=0;whiteSpace=wrap;html=1;strokeColor=none;fillColor=#e3c800;fontColor=#000000;strokeWidth=0.1;fontSize=3;fontFamily=Teko Light;container=0;" parent="qDtawQAKe1lcSOI-oKHI-362" vertex="1">
          <mxGeometry x="83.3" y="10.72999999999999" width="3" height="2" as="geometry" />
        </mxCell>
        <mxCell id="qDtawQAKe1lcSOI-oKHI-312" value="" style="rounded=0;whiteSpace=wrap;html=1;strokeColor=none;fillColor=#222222;fontColor=#ffffff;strokeWidth=0.1;fontSize=3;fontFamily=Teko Light;container=0;" parent="qDtawQAKe1lcSOI-oKHI-362" vertex="1">
          <mxGeometry x="87.29857142857144" y="9.227576744186052" width="12" height="5" as="geometry" />
        </mxCell>
        <mxCell id="qDtawQAKe1lcSOI-oKHI-313" value="" style="rounded=0;whiteSpace=wrap;html=1;strokeColor=none;fillColor=#000000;fontColor=#ffffff;strokeWidth=0.1;fontSize=3;fontFamily=Teko Light;container=0;" parent="qDtawQAKe1lcSOI-oKHI-362" vertex="1">
          <mxGeometry x="87.29714285714287" y="13.231074995060624" width="12" height="7" as="geometry" />
        </mxCell>
        <mxCell id="qDtawQAKe1lcSOI-oKHI-314" value="" style="rounded=0;whiteSpace=wrap;html=1;strokeColor=none;fillColor=#000000;fontColor=#ffffff;strokeWidth=0.1;fontSize=3;fontFamily=Teko Light;container=0;" parent="qDtawQAKe1lcSOI-oKHI-362" vertex="1">
          <mxGeometry x="90.8" y="10.22999999999999" width="5" height="4" as="geometry" />
        </mxCell>
        <mxCell id="qDtawQAKe1lcSOI-oKHI-315" value="" style="rounded=0;whiteSpace=wrap;html=1;strokeColor=none;fillColor=#60a917;fontColor=#ffffff;strokeWidth=0.1;fontSize=3;fontFamily=Teko Light;container=0;" parent="qDtawQAKe1lcSOI-oKHI-362" vertex="1">
          <mxGeometry x="87.3" y="10.72999999999999" width="3" height="2" as="geometry" />
        </mxCell>
        <mxCell id="qDtawQAKe1lcSOI-oKHI-316" value="" style="rounded=0;whiteSpace=wrap;html=1;strokeColor=none;fillColor=#e3c800;fontColor=#000000;strokeWidth=0.1;fontSize=3;fontFamily=Teko Light;container=0;" parent="qDtawQAKe1lcSOI-oKHI-362" vertex="1">
          <mxGeometry x="96.3" y="10.72999999999999" width="3" height="2" as="geometry" />
        </mxCell>
        <mxCell id="qDtawQAKe1lcSOI-oKHI-317" value="" style="rounded=0;whiteSpace=wrap;html=1;strokeColor=none;fillColor=#222222;fontColor=#ffffff;strokeWidth=0.1;fontSize=3;fontFamily=Teko Light;container=0;" parent="qDtawQAKe1lcSOI-oKHI-362" vertex="1">
          <mxGeometry x="100.29857142857144" y="9.227576744186052" width="12" height="5" as="geometry" />
        </mxCell>
        <mxCell id="qDtawQAKe1lcSOI-oKHI-318" value="" style="rounded=0;whiteSpace=wrap;html=1;strokeColor=none;fillColor=#000000;fontColor=#ffffff;strokeWidth=0.1;fontSize=3;fontFamily=Teko Light;container=0;" parent="qDtawQAKe1lcSOI-oKHI-362" vertex="1">
          <mxGeometry x="100.29714285714287" y="13.231074995060624" width="12" height="7" as="geometry" />
        </mxCell>
        <mxCell id="qDtawQAKe1lcSOI-oKHI-319" value="" style="rounded=0;whiteSpace=wrap;html=1;strokeColor=none;fillColor=#000000;fontColor=#ffffff;strokeWidth=0.1;fontSize=3;fontFamily=Teko Light;container=0;" parent="qDtawQAKe1lcSOI-oKHI-362" vertex="1">
          <mxGeometry x="103.8" y="10.22999999999999" width="5" height="4" as="geometry" />
        </mxCell>
        <mxCell id="qDtawQAKe1lcSOI-oKHI-320" value="" style="rounded=0;whiteSpace=wrap;html=1;strokeColor=none;fillColor=#60a917;fontColor=#ffffff;strokeWidth=0.1;fontSize=3;fontFamily=Teko Light;container=0;" parent="qDtawQAKe1lcSOI-oKHI-362" vertex="1">
          <mxGeometry x="100.3" y="10.72999999999999" width="3" height="2" as="geometry" />
        </mxCell>
        <mxCell id="qDtawQAKe1lcSOI-oKHI-321" value="" style="rounded=0;whiteSpace=wrap;html=1;strokeColor=none;fillColor=#e3c800;fontColor=#000000;strokeWidth=0.1;fontSize=3;fontFamily=Teko Light;container=0;" parent="qDtawQAKe1lcSOI-oKHI-362" vertex="1">
          <mxGeometry x="109.3" y="10.72999999999999" width="3" height="2" as="geometry" />
        </mxCell>
        <mxCell id="qDtawQAKe1lcSOI-oKHI-322" value="" style="rounded=0;whiteSpace=wrap;html=1;strokeColor=none;fillColor=#222222;fontColor=#ffffff;strokeWidth=0.1;fontSize=3;fontFamily=Teko Light;container=0;" parent="qDtawQAKe1lcSOI-oKHI-362" vertex="1">
          <mxGeometry x="113.29857142857145" y="9.227576744186052" width="12" height="5" as="geometry" />
        </mxCell>
        <mxCell id="qDtawQAKe1lcSOI-oKHI-323" value="" style="rounded=0;whiteSpace=wrap;html=1;strokeColor=none;fillColor=#000000;fontColor=#ffffff;strokeWidth=0.1;fontSize=3;fontFamily=Teko Light;container=0;" parent="qDtawQAKe1lcSOI-oKHI-362" vertex="1">
          <mxGeometry x="113.29714285714289" y="13.231074995060624" width="12" height="7" as="geometry" />
        </mxCell>
        <mxCell id="qDtawQAKe1lcSOI-oKHI-324" value="" style="rounded=0;whiteSpace=wrap;html=1;strokeColor=none;fillColor=#000000;fontColor=#ffffff;strokeWidth=0.1;fontSize=3;fontFamily=Teko Light;container=0;" parent="qDtawQAKe1lcSOI-oKHI-362" vertex="1">
          <mxGeometry x="116.80000000000001" y="10.22999999999999" width="5" height="4" as="geometry" />
        </mxCell>
        <mxCell id="qDtawQAKe1lcSOI-oKHI-325" value="" style="rounded=0;whiteSpace=wrap;html=1;strokeColor=none;fillColor=#60a917;fontColor=#ffffff;strokeWidth=0.1;fontSize=3;fontFamily=Teko Light;container=0;" parent="qDtawQAKe1lcSOI-oKHI-362" vertex="1">
          <mxGeometry x="113.30000000000001" y="10.72999999999999" width="3" height="2" as="geometry" />
        </mxCell>
        <mxCell id="qDtawQAKe1lcSOI-oKHI-326" value="" style="rounded=0;whiteSpace=wrap;html=1;strokeColor=none;fillColor=#e3c800;fontColor=#000000;strokeWidth=0.1;fontSize=3;fontFamily=Teko Light;container=0;" parent="qDtawQAKe1lcSOI-oKHI-362" vertex="1">
          <mxGeometry x="122.30000000000001" y="10.72999999999999" width="3" height="2" as="geometry" />
        </mxCell>
        <mxCell id="qDtawQAKe1lcSOI-oKHI-327" value="" style="rounded=0;whiteSpace=wrap;html=1;strokeColor=none;fillColor=#222222;fontColor=#ffffff;strokeWidth=0.1;fontSize=3;fontFamily=Teko Light;container=0;" parent="qDtawQAKe1lcSOI-oKHI-362" vertex="1">
          <mxGeometry x="139.29857142857145" y="9.227576744186052" width="12" height="5" as="geometry" />
        </mxCell>
        <mxCell id="qDtawQAKe1lcSOI-oKHI-328" value="" style="rounded=0;whiteSpace=wrap;html=1;strokeColor=none;fillColor=#000000;fontColor=#ffffff;strokeWidth=0.1;fontSize=3;fontFamily=Teko Light;container=0;" parent="qDtawQAKe1lcSOI-oKHI-362" vertex="1">
          <mxGeometry x="139.2971428571429" y="13.231074995060624" width="12" height="7" as="geometry" />
        </mxCell>
        <mxCell id="qDtawQAKe1lcSOI-oKHI-329" value="" style="rounded=0;whiteSpace=wrap;html=1;strokeColor=none;fillColor=#000000;fontColor=#ffffff;strokeWidth=0.1;fontSize=3;fontFamily=Teko Light;container=0;" parent="qDtawQAKe1lcSOI-oKHI-362" vertex="1">
          <mxGeometry x="142.8" y="10.22999999999999" width="5" height="4" as="geometry" />
        </mxCell>
        <mxCell id="qDtawQAKe1lcSOI-oKHI-330" value="" style="rounded=0;whiteSpace=wrap;html=1;strokeColor=none;fillColor=#60a917;fontColor=#ffffff;strokeWidth=0.1;fontSize=3;fontFamily=Teko Light;container=0;" parent="qDtawQAKe1lcSOI-oKHI-362" vertex="1">
          <mxGeometry x="139.3" y="10.72999999999999" width="3" height="2" as="geometry" />
        </mxCell>
        <mxCell id="qDtawQAKe1lcSOI-oKHI-331" value="" style="rounded=0;whiteSpace=wrap;html=1;strokeColor=none;fillColor=#e3c800;fontColor=#000000;strokeWidth=0.1;fontSize=3;fontFamily=Teko Light;container=0;" parent="qDtawQAKe1lcSOI-oKHI-362" vertex="1">
          <mxGeometry x="148.3" y="10.72999999999999" width="3" height="2" as="geometry" />
        </mxCell>
        <mxCell id="qDtawQAKe1lcSOI-oKHI-332" value="" style="rounded=0;whiteSpace=wrap;html=1;strokeColor=none;fillColor=#222222;fontColor=#ffffff;strokeWidth=0.1;fontSize=3;fontFamily=Teko Light;container=0;" parent="qDtawQAKe1lcSOI-oKHI-362" vertex="1">
          <mxGeometry x="126.29857142857145" y="9.227576744186052" width="12" height="5" as="geometry" />
        </mxCell>
        <mxCell id="qDtawQAKe1lcSOI-oKHI-333" value="" style="rounded=0;whiteSpace=wrap;html=1;strokeColor=none;fillColor=#000000;fontColor=#ffffff;strokeWidth=0.1;fontSize=3;fontFamily=Teko Light;container=0;" parent="qDtawQAKe1lcSOI-oKHI-362" vertex="1">
          <mxGeometry x="126.29714285714289" y="13.231074995060624" width="12" height="7" as="geometry" />
        </mxCell>
        <mxCell id="qDtawQAKe1lcSOI-oKHI-334" value="" style="rounded=0;whiteSpace=wrap;html=1;strokeColor=none;fillColor=#000000;fontColor=#ffffff;strokeWidth=0.1;fontSize=3;fontFamily=Teko Light;container=0;" parent="qDtawQAKe1lcSOI-oKHI-362" vertex="1">
          <mxGeometry x="129.8" y="10.22999999999999" width="5" height="4" as="geometry" />
        </mxCell>
        <mxCell id="qDtawQAKe1lcSOI-oKHI-335" value="" style="rounded=0;whiteSpace=wrap;html=1;strokeColor=none;fillColor=#60a917;fontColor=#ffffff;strokeWidth=0.1;fontSize=3;fontFamily=Teko Light;container=0;" parent="qDtawQAKe1lcSOI-oKHI-362" vertex="1">
          <mxGeometry x="126.30000000000001" y="10.72999999999999" width="3" height="2" as="geometry" />
        </mxCell>
        <mxCell id="qDtawQAKe1lcSOI-oKHI-336" value="" style="rounded=0;whiteSpace=wrap;html=1;strokeColor=none;fillColor=#e3c800;fontColor=#000000;strokeWidth=0.1;fontSize=3;fontFamily=Teko Light;container=0;" parent="qDtawQAKe1lcSOI-oKHI-362" vertex="1">
          <mxGeometry x="135.3" y="10.72999999999999" width="3" height="2" as="geometry" />
        </mxCell>
        <mxCell id="qDtawQAKe1lcSOI-oKHI-337" value="" style="rounded=0;whiteSpace=wrap;html=1;strokeColor=none;fillColor=#222222;fontColor=#ffffff;strokeWidth=0.1;fontSize=3;fontFamily=Teko Light;container=0;rotation=-180;" parent="qDtawQAKe1lcSOI-oKHI-362" vertex="1">
          <mxGeometry x="74.29714285714287" y="30.227576744186052" width="12" height="5" as="geometry" />
        </mxCell>
        <mxCell id="qDtawQAKe1lcSOI-oKHI-338" value="" style="rounded=0;whiteSpace=wrap;html=1;strokeColor=none;fillColor=#000000;fontColor=#ffffff;strokeWidth=0.1;fontSize=3;fontFamily=Teko Light;container=0;rotation=-180;" parent="qDtawQAKe1lcSOI-oKHI-362" vertex="1">
          <mxGeometry x="74.29714285714287" y="24.227576744186052" width="12" height="7" as="geometry" />
        </mxCell>
        <mxCell id="qDtawQAKe1lcSOI-oKHI-339" value="" style="rounded=0;whiteSpace=wrap;html=1;strokeColor=none;fillColor=#000000;fontColor=#ffffff;strokeWidth=0.1;fontSize=3;fontFamily=Teko Light;container=0;rotation=-180;" parent="qDtawQAKe1lcSOI-oKHI-362" vertex="1">
          <mxGeometry x="77.79714285714287" y="30.227576744186052" width="5" height="4" as="geometry" />
        </mxCell>
        <mxCell id="qDtawQAKe1lcSOI-oKHI-340" value="" style="rounded=0;whiteSpace=wrap;html=1;strokeColor=none;fillColor=#60a917;fontColor=#ffffff;strokeWidth=0.1;fontSize=3;fontFamily=Teko Light;container=0;rotation=-180;" parent="qDtawQAKe1lcSOI-oKHI-362" vertex="1">
          <mxGeometry x="83.29714285714287" y="32.22757674418605" width="3" height="2" as="geometry" />
        </mxCell>
        <mxCell id="qDtawQAKe1lcSOI-oKHI-341" value="" style="rounded=0;whiteSpace=wrap;html=1;strokeColor=none;fillColor=#e3c800;fontColor=#000000;strokeWidth=0.1;fontSize=3;fontFamily=Teko Light;container=0;rotation=-180;" parent="qDtawQAKe1lcSOI-oKHI-362" vertex="1">
          <mxGeometry x="74.29714285714287" y="32.22757674418605" width="3" height="2" as="geometry" />
        </mxCell>
        <mxCell id="qDtawQAKe1lcSOI-oKHI-342" value="" style="rounded=0;whiteSpace=wrap;html=1;strokeColor=none;fillColor=#222222;fontColor=#ffffff;strokeWidth=0.1;fontSize=3;fontFamily=Teko Light;container=0;rotation=-180;" parent="qDtawQAKe1lcSOI-oKHI-362" vertex="1">
          <mxGeometry x="87.3" y="30.22999999999999" width="12" height="5" as="geometry" />
        </mxCell>
        <mxCell id="qDtawQAKe1lcSOI-oKHI-343" value="" style="rounded=0;whiteSpace=wrap;html=1;strokeColor=none;fillColor=#000000;fontColor=#ffffff;strokeWidth=0.1;fontSize=3;fontFamily=Teko Light;container=0;rotation=-180;" parent="qDtawQAKe1lcSOI-oKHI-362" vertex="1">
          <mxGeometry x="87.3" y="24.22999999999999" width="12" height="7" as="geometry" />
        </mxCell>
        <mxCell id="qDtawQAKe1lcSOI-oKHI-344" value="" style="rounded=0;whiteSpace=wrap;html=1;strokeColor=none;fillColor=#000000;fontColor=#ffffff;strokeWidth=0.1;fontSize=3;fontFamily=Teko Light;container=0;rotation=-180;" parent="qDtawQAKe1lcSOI-oKHI-362" vertex="1">
          <mxGeometry x="90.8" y="30.22999999999999" width="5" height="4" as="geometry" />
        </mxCell>
        <mxCell id="qDtawQAKe1lcSOI-oKHI-345" value="" style="rounded=0;whiteSpace=wrap;html=1;strokeColor=none;fillColor=#60a917;fontColor=#ffffff;strokeWidth=0.1;fontSize=3;fontFamily=Teko Light;container=0;rotation=-180;" parent="qDtawQAKe1lcSOI-oKHI-362" vertex="1">
          <mxGeometry x="96.3" y="32.22999999999999" width="3" height="2" as="geometry" />
        </mxCell>
        <mxCell id="qDtawQAKe1lcSOI-oKHI-346" value="" style="rounded=0;whiteSpace=wrap;html=1;strokeColor=none;fillColor=#e3c800;fontColor=#000000;strokeWidth=0.1;fontSize=3;fontFamily=Teko Light;container=0;rotation=-180;" parent="qDtawQAKe1lcSOI-oKHI-362" vertex="1">
          <mxGeometry x="87.3" y="32.22999999999999" width="3" height="2" as="geometry" />
        </mxCell>
        <mxCell id="qDtawQAKe1lcSOI-oKHI-347" value="" style="rounded=0;whiteSpace=wrap;html=1;strokeColor=none;fillColor=#222222;fontColor=#ffffff;strokeWidth=0.1;fontSize=3;fontFamily=Teko Light;container=0;rotation=-180;" parent="qDtawQAKe1lcSOI-oKHI-362" vertex="1">
          <mxGeometry x="113.30000000000001" y="30.22999999999999" width="12" height="5" as="geometry" />
        </mxCell>
        <mxCell id="qDtawQAKe1lcSOI-oKHI-348" value="" style="rounded=0;whiteSpace=wrap;html=1;strokeColor=none;fillColor=#000000;fontColor=#ffffff;strokeWidth=0.1;fontSize=3;fontFamily=Teko Light;container=0;rotation=-180;" parent="qDtawQAKe1lcSOI-oKHI-362" vertex="1">
          <mxGeometry x="113.30000000000001" y="24.22999999999999" width="12" height="7" as="geometry" />
        </mxCell>
        <mxCell id="qDtawQAKe1lcSOI-oKHI-349" value="" style="rounded=0;whiteSpace=wrap;html=1;strokeColor=none;fillColor=#000000;fontColor=#ffffff;strokeWidth=0.1;fontSize=3;fontFamily=Teko Light;container=0;rotation=-180;" parent="qDtawQAKe1lcSOI-oKHI-362" vertex="1">
          <mxGeometry x="116.80000000000001" y="30.22999999999999" width="5" height="4" as="geometry" />
        </mxCell>
        <mxCell id="qDtawQAKe1lcSOI-oKHI-350" value="" style="rounded=0;whiteSpace=wrap;html=1;strokeColor=none;fillColor=#60a917;fontColor=#ffffff;strokeWidth=0.1;fontSize=3;fontFamily=Teko Light;container=0;rotation=-180;" parent="qDtawQAKe1lcSOI-oKHI-362" vertex="1">
          <mxGeometry x="122.30000000000001" y="32.22999999999999" width="3" height="2" as="geometry" />
        </mxCell>
        <mxCell id="qDtawQAKe1lcSOI-oKHI-351" value="" style="rounded=0;whiteSpace=wrap;html=1;strokeColor=none;fillColor=#e3c800;fontColor=#000000;strokeWidth=0.1;fontSize=3;fontFamily=Teko Light;container=0;rotation=-180;" parent="qDtawQAKe1lcSOI-oKHI-362" vertex="1">
          <mxGeometry x="113.30000000000001" y="32.22999999999999" width="3" height="2" as="geometry" />
        </mxCell>
        <mxCell id="qDtawQAKe1lcSOI-oKHI-352" value="" style="rounded=0;whiteSpace=wrap;html=1;strokeColor=none;fillColor=#222222;fontColor=#ffffff;strokeWidth=0.1;fontSize=3;fontFamily=Teko Light;container=0;rotation=-180;" parent="qDtawQAKe1lcSOI-oKHI-362" vertex="1">
          <mxGeometry x="139.2971428571429" y="30.22999999999999" width="12" height="5" as="geometry" />
        </mxCell>
        <mxCell id="qDtawQAKe1lcSOI-oKHI-353" value="" style="rounded=0;whiteSpace=wrap;html=1;strokeColor=none;fillColor=#000000;fontColor=#ffffff;strokeWidth=0.1;fontSize=3;fontFamily=Teko Light;container=0;rotation=-180;" parent="qDtawQAKe1lcSOI-oKHI-362" vertex="1">
          <mxGeometry x="139.2971428571429" y="24.22999999999999" width="12" height="7" as="geometry" />
        </mxCell>
        <mxCell id="qDtawQAKe1lcSOI-oKHI-354" value="" style="rounded=0;whiteSpace=wrap;html=1;strokeColor=none;fillColor=#000000;fontColor=#ffffff;strokeWidth=0.1;fontSize=3;fontFamily=Teko Light;container=0;rotation=-180;" parent="qDtawQAKe1lcSOI-oKHI-362" vertex="1">
          <mxGeometry x="142.7971428571429" y="30.22999999999999" width="5" height="4" as="geometry" />
        </mxCell>
        <mxCell id="qDtawQAKe1lcSOI-oKHI-355" value="" style="rounded=0;whiteSpace=wrap;html=1;strokeColor=none;fillColor=#60a917;fontColor=#ffffff;strokeWidth=0.1;fontSize=3;fontFamily=Teko Light;container=0;rotation=-180;" parent="qDtawQAKe1lcSOI-oKHI-362" vertex="1">
          <mxGeometry x="148.2971428571429" y="32.22999999999999" width="3" height="2" as="geometry" />
        </mxCell>
        <mxCell id="qDtawQAKe1lcSOI-oKHI-356" value="" style="rounded=0;whiteSpace=wrap;html=1;strokeColor=none;fillColor=#e3c800;fontColor=#000000;strokeWidth=0.1;fontSize=3;fontFamily=Teko Light;container=0;rotation=-180;" parent="qDtawQAKe1lcSOI-oKHI-362" vertex="1">
          <mxGeometry x="139.2971428571429" y="32.22999999999999" width="3" height="2" as="geometry" />
        </mxCell>
        <mxCell id="qDtawQAKe1lcSOI-oKHI-357" value="" style="rounded=0;whiteSpace=wrap;html=1;strokeColor=none;fillColor=#222222;fontColor=#ffffff;strokeWidth=0.1;fontSize=3;fontFamily=Teko Light;container=0;rotation=-180;" parent="qDtawQAKe1lcSOI-oKHI-362" vertex="1">
          <mxGeometry x="126.30000000000001" y="30.22999999999999" width="12" height="5" as="geometry" />
        </mxCell>
        <mxCell id="qDtawQAKe1lcSOI-oKHI-358" value="" style="rounded=0;whiteSpace=wrap;html=1;strokeColor=none;fillColor=#000000;fontColor=#ffffff;strokeWidth=0.1;fontSize=3;fontFamily=Teko Light;container=0;rotation=-180;" parent="qDtawQAKe1lcSOI-oKHI-362" vertex="1">
          <mxGeometry x="126.30000000000001" y="24.22999999999999" width="12" height="7" as="geometry" />
        </mxCell>
        <mxCell id="qDtawQAKe1lcSOI-oKHI-359" value="" style="rounded=0;whiteSpace=wrap;html=1;strokeColor=none;fillColor=#000000;fontColor=#ffffff;strokeWidth=0.1;fontSize=3;fontFamily=Teko Light;container=0;rotation=-180;" parent="qDtawQAKe1lcSOI-oKHI-362" vertex="1">
          <mxGeometry x="129.8" y="30.22999999999999" width="5" height="4" as="geometry" />
        </mxCell>
        <mxCell id="qDtawQAKe1lcSOI-oKHI-360" value="" style="rounded=0;whiteSpace=wrap;html=1;strokeColor=none;fillColor=#60a917;fontColor=#ffffff;strokeWidth=0.1;fontSize=3;fontFamily=Teko Light;container=0;rotation=-180;" parent="qDtawQAKe1lcSOI-oKHI-362" vertex="1">
          <mxGeometry x="135.3" y="32.22999999999999" width="3" height="2" as="geometry" />
        </mxCell>
        <mxCell id="qDtawQAKe1lcSOI-oKHI-361" value="" style="rounded=0;whiteSpace=wrap;html=1;strokeColor=none;fillColor=#e3c800;fontColor=#000000;strokeWidth=0.1;fontSize=3;fontFamily=Teko Light;container=0;rotation=-180;" parent="qDtawQAKe1lcSOI-oKHI-362" vertex="1">
          <mxGeometry x="126.30000000000001" y="32.22999999999999" width="3" height="2" as="geometry" />
        </mxCell>
      </root>
    </mxGraphModel>
  </diagram>
</mxfile>
